<?xml version="1.0" encoding="UTF-8" standalone="no"?>
<!DOCTYPE svg PUBLIC "-//W3C//DTD SVG 1.1//EN" "http://www.w3.org/Graphics/SVG/1.1/DTD/svg11.dtd">
<svg version="1.1" xmlns:xl="http://www.w3.org/1999/xlink" xmlns:dc="http://purl.org/dc/elements/1.1/" xmlns="http://www.w3.org/2000/svg" viewBox="2140 -90 428.582 262.4773" width="428.582" height="262.4773">
  <defs/>
  <g id="Canvas_1" fill="none" stroke="none" stroke-opacity="1" fill-opacity="1" stroke-dasharray="none">
    <title>Canvas 1</title>
    <g id="Canvas_1_Layer_1">
      <title>Layer 1</title>
      <g id="Group_894">
        <g id="Graphic_888">
          <path d="M 2233.3587 -74.74689 C 2248.6308 -81.29942 2272.7772 -87.79959 2280.6712 -88.4627 C 2356.3608 -94.82327 2588.9117 -87.11031 2567.1516 46.86313 C 2548.126 164.10189 2319.7543 177.2942 2207.2388 171.29135 C 2144.3447 167.9322 2119.2954 113.79314 2159.3975 78.0727 C 2160.1714 77.38342 2160.9583 76.69414 2161.758 75.99614 C 2176.1787 63.48439 2196.8683 38.260212 2193.4243 22.075208 C 2187.7618 -4.5275286 2154.509 -40.902343 2233.3587 -74.74689 Z" fill="#dadada"/>
        </g>
        <g id="Group_625">
          <title>_7</title>
          <g id="Graphic_687">
            <path d="M 2217.0558 2.7151562 L 2250.8873 2.7151562 L 2245.3676 20.347346 L 2221.3762 20.347346 Z" fill="white"/>
            <path d="M 2217.0558 2.7151562 L 2250.8873 2.7151562 L 2245.3676 20.347346 L 2221.3762 20.347346 Z" stroke="#1a1a1a" stroke-linecap="round" stroke-linejoin="round" stroke-width="2"/>
          </g>
          <g id="Line_686">
            <path d="M 2246.927 4.3916665 L 2259.4027 4.3916665 L 2259.8427 1.467918 L 2266.0007 1.467918" stroke="#1a1a1a" stroke-linecap="round" stroke-linejoin="round" stroke-width="3"/>
          </g>
          <g id="Graphic_685">
            <path d="M 2223.2138 22.36343 L 2244.736 22.36343 C 2249.3734 22.36343 2249.134 27.083286 2244.736 27.083286 L 2223.2138 27.083286" stroke="#1a1a1a" stroke-linecap="round" stroke-linejoin="round" stroke-width="2"/>
          </g>
          <g id="Graphic_684">
            <ellipse cx="2225.0948" cy="29.507285" rx="5.27798040597311" ry="4.94411387043619" stroke="#1a1a1a" stroke-linecap="round" stroke-linejoin="round" stroke-width="2"/>
          </g>
          <g id="Graphic_683">
            <ellipse cx="2244.3485" cy="29.507285" rx="5.27798040597299" ry="4.94411387043619" stroke="#1a1a1a" stroke-linecap="round" stroke-linejoin="round" stroke-width="2"/>
          </g>
          <g id="Graphic_682">
            <path d="M 2226.1025 8.605367 L 2222.0899 8.605367 L 2221.3876 5.5406633 L 2225.6488 5.5406633 Z" fill="white"/>
            <path d="M 2226.1025 8.605367 L 2222.0899 8.605367 L 2221.3876 5.5406633 L 2225.6488 5.5406633 Z" stroke="#1a1a1a" stroke-linecap="round" stroke-linejoin="round" stroke-width="2"/>
          </g>
          <g id="Graphic_681">
            <path d="M 2232.2764 8.605367 L 2228.266 8.605367 L 2227.947 5.5406633 L 2232.2103 5.5406633 Z" fill="white"/>
            <path d="M 2232.2764 8.605367 L 2228.266 8.605367 L 2227.947 5.5406633 L 2232.2103 5.5406633 Z" stroke="#1a1a1a" stroke-linecap="round" stroke-linejoin="round" stroke-width="2"/>
          </g>
          <g id="Graphic_680">
            <path d="M 2238.4527 8.605367 L 2234.44 8.605367 L 2234.5085 5.5406633 L 2238.7696 5.5406633 Z" fill="white"/>
            <path d="M 2238.4527 8.605367 L 2234.44 8.605367 L 2234.5085 5.5406633 L 2238.7696 5.5406633 Z" stroke="#1a1a1a" stroke-linecap="round" stroke-linejoin="round" stroke-width="2"/>
          </g>
          <g id="Graphic_679">
            <path d="M 2244.6267 8.605367 L 2240.614 8.605367 L 2241.0677 5.5406633 L 2245.3312 5.5406633 Z" fill="white"/>
            <path d="M 2244.6267 8.605367 L 2240.614 8.605367 L 2241.0677 5.5406633 L 2245.3312 5.5406633 Z" stroke="#1a1a1a" stroke-linecap="round" stroke-linejoin="round" stroke-width="2"/>
          </g>
          <g id="Graphic_678">
            <path d="M 2226.7066 12.693062 L 2223.0292 12.693062 L 2222.441 10.130244 L 2226.3282 10.130244 Z" fill="white"/>
            <path d="M 2226.7066 12.693062 L 2223.0292 12.693062 L 2222.441 10.130244 L 2226.3282 10.130244 Z" stroke="#1a1a1a" stroke-linecap="round" stroke-linejoin="round" stroke-width="2"/>
          </g>
          <g id="Graphic_677">
            <path d="M 2232.3676 12.693062 L 2228.6902 12.693062 L 2228.4234 10.130244 L 2232.3106 10.130244 Z" fill="white"/>
            <path d="M 2232.3676 12.693062 L 2228.6902 12.693062 L 2228.4234 10.130244 L 2232.3106 10.130244 Z" stroke="#1a1a1a" stroke-linecap="round" stroke-linejoin="round" stroke-width="2"/>
          </g>
          <g id="Graphic_676">
            <path d="M 2238.0286 12.693062 L 2234.3512 12.693062 L 2234.406 10.130244 L 2238.293 10.130244 Z" fill="white"/>
            <path d="M 2238.0286 12.693062 L 2234.3512 12.693062 L 2234.406 10.130244 L 2238.293 10.130244 Z" stroke="#1a1a1a" stroke-linecap="round" stroke-linejoin="round" stroke-width="2"/>
          </g>
          <g id="Graphic_675">
            <path d="M 2243.6896 12.693062 L 2240.0121 12.693062 L 2240.3906 10.130244 L 2244.2778 10.130244 Z" fill="white"/>
            <path d="M 2243.6896 12.693062 L 2240.0121 12.693062 L 2240.3906 10.130244 L 2244.2778 10.130244 Z" stroke="#1a1a1a" stroke-linecap="round" stroke-linejoin="round" stroke-width="2"/>
          </g>
          <g id="Graphic_674">
            <path d="M 2227.2173 16.152866 L 2223.8226 16.152866 L 2223.3233 13.978742 L 2226.896 13.978742 Z" fill="white"/>
            <path d="M 2227.2173 16.152866 L 2223.8226 16.152866 L 2223.3233 13.978742 L 2226.896 13.978742 Z" stroke="#1a1a1a" stroke-linecap="round" stroke-linejoin="round" stroke-width="2"/>
          </g>
          <g id="Graphic_673">
            <path d="M 2232.443 16.152866 L 2229.048 16.152866 L 2228.8224 13.978742 L 2232.395 13.978742 Z" fill="white"/>
            <path d="M 2232.443 16.152866 L 2229.048 16.152866 L 2228.8224 13.978742 L 2232.395 13.978742 Z" stroke="#1a1a1a" stroke-linecap="round" stroke-linejoin="round" stroke-width="2"/>
          </g>
          <g id="Graphic_672">
            <path d="M 2237.6684 16.152866 L 2234.2736 16.152866 L 2234.3215 13.978742 L 2237.894 13.978742 Z" fill="white"/>
            <path d="M 2237.6684 16.152866 L 2234.2736 16.152866 L 2234.3215 13.978742 L 2237.894 13.978742 Z" stroke="#1a1a1a" stroke-linecap="round" stroke-linejoin="round" stroke-width="2"/>
          </g>
          <g id="Graphic_671">
            <path d="M 2242.8962 16.152866 L 2239.4992 16.152866 L 2239.8206 13.978742 L 2243.3955 13.978742 Z" fill="white"/>
            <path d="M 2242.8962 16.152866 L 2239.4992 16.152866 L 2239.8206 13.978742 L 2243.3955 13.978742 Z" stroke="#1a1a1a" stroke-linecap="round" stroke-linejoin="round" stroke-width="2"/>
          </g>
          <g id="Graphic_670">
            <path d="M 2288.7792 108.04271 C 2278.8 90.17987 2257.6654 83.67245 2243.4092 90.33578 C 2231.36 95.96757 2228.102 109.19171 2227.2835 114.28745 L 2288.9662 114.28745 Z" stroke="#1a1a1a" stroke-linecap="round" stroke-linejoin="round" stroke-width="3"/>
          </g>
          <g id="Graphic_669">
            <rect x="2229.121" y="55.02014" width="12.489294" height="18.559075" fill="#1a1a1a"/>
          </g>
          <g id="Graphic_668">
            <path d="M 2321.808 -16.055352 C 2321.808 -16.055352 2325.5039 -22.823327 2323.9376 -26.91743 C 2322.3713 -31.01153 2319.12 -35.29998 2312.734 -33.377867 C 2308.9267 -32.487288 2310.8304 -30.6506 2307.6933 -31.69922 C 2304.556 -32.74784 2302.128 -31.752613 2300.3452 -30.8599 C 2298.5623 -29.967183 2298.4528 -26.767932 2297.1077 -25.561272 C 2295.7626 -24.35461 2292.9628 -25.456623 2291.7864 -21.8879 C 2290.61 -18.319174 2295.3704 -13.43487 2293.7745 -10.579463 C 2292.1785 -7.724057 2286.465 -8.65735 2285.9613 -.16587859 C 2285.4574 8.325592 2303.1517 3.926088 2305.142 2.1150296 C 2307.1324 .30397142 2321.808 -16.055352 2321.808 -16.055352 Z" fill="#25383f"/>
            <path d="M 2321.808 -16.055352 C 2321.808 -16.055352 2325.5039 -22.823327 2323.9376 -26.91743 C 2322.3713 -31.01153 2319.12 -35.29998 2312.734 -33.377867 C 2308.9267 -32.487288 2310.8304 -30.6506 2307.6933 -31.69922 C 2304.556 -32.74784 2302.128 -31.752613 2300.3452 -30.8599 C 2298.5623 -29.967183 2298.4528 -26.767932 2297.1077 -25.561272 C 2295.7626 -24.35461 2292.9628 -25.456623 2291.7864 -21.8879 C 2290.61 -18.319174 2295.3704 -13.43487 2293.7745 -10.579463 C 2292.1785 -7.724057 2286.465 -8.65735 2285.9613 -.16587859 C 2285.4574 8.325592 2303.1517 3.926088 2305.142 2.1150296 C 2307.1324 .30397142 2321.808 -16.055352 2321.808 -16.055352 Z" stroke="#1a1a1a" stroke-linecap="round" stroke-linejoin="round" stroke-width="1"/>
          </g>
          <g id="Graphic_667">
            <path d="M 2304.67 -1.4707802 C 2304.67 -1.4707802 2297.331 10.07258 2297.949 11.069944 C 2298.5668 12.067307 2305.7896 14.37598 2311.4004 13.169319 C 2312.2964 12.95575 2316.1038 -1.0500509 2316.1038 -1.0500509 C 2316.1038 -1.0500509 2305.0896 -2.137113 2304.67 -1.4707802 Z" fill="white"/>
            <path d="M 2304.67 -1.4707802 C 2304.67 -1.4707802 2297.331 10.07258 2297.949 11.069944 C 2298.5668 12.067307 2305.7896 14.37598 2311.4004 13.169319 C 2312.2964 12.95575 2316.1038 -1.0500509 2316.1038 -1.0500509 C 2316.1038 -1.0500509 2305.0896 -2.137113 2304.67 -1.4707802 Z" stroke="#1a1a1a" stroke-linecap="round" stroke-linejoin="round" stroke-width="2"/>
          </g>
          <g id="Graphic_666">
            <path d="M 2321.1652 -22.588402 C 2321.1652 -22.588402 2325.3488 -10.468408 2320.5268 -2.512993 C 2315.7048 5.442422 2301.672 -1.0180156 2301.672 -1.0180156 C 2301.672 -1.0180156 2301.1135 -3.640633 2301.9 -3.7730452 C 2302.6866 -3.9054575 2298.8815 -6.709608 2300.3474 -8.862375 C 2301.8134 -11.015142 2304.784 -11.013007 2306.0723 -7.916268 C 2306.8565 -6.814256 2308.4434 -8.650943 2307.0047 -11.380344 C 2305.566 -14.109745 2305.532 -17.255605 2307.0047 -18.000958 C 2308.4776 -18.74631 2312.677 -20.830736 2316.097 -19.782116 C 2319.5168 -18.733497 2321.1356 -20.830736 2321.1652 -22.588402 Z" fill="white"/>
            <path d="M 2321.1652 -22.588402 C 2321.1652 -22.588402 2325.3488 -10.468408 2320.5268 -2.512993 C 2315.7048 5.442422 2301.672 -1.0180156 2301.672 -1.0180156 C 2301.672 -1.0180156 2301.1135 -3.640633 2301.9 -3.7730452 C 2302.6866 -3.9054575 2298.8815 -6.709608 2300.3474 -8.862375 C 2301.8134 -11.015142 2304.784 -11.013007 2306.0723 -7.916268 C 2306.8565 -6.814256 2308.4434 -8.650943 2307.0047 -11.380344 C 2305.566 -14.109745 2305.532 -17.255605 2307.0047 -18.000958 C 2308.4776 -18.74631 2312.677 -20.830736 2316.097 -19.782116 C 2319.5168 -18.733497 2321.1356 -20.830736 2321.1652 -22.588402 Z" stroke="#1a1a1a" stroke-linecap="round" stroke-linejoin="round" stroke-width="2"/>
          </g>
          <g id="Graphic_665">
            <path d="M 2225.984 135.90909 L 2484.1826 135.90909 C 2488.2386 135.90909 2491.5262 131.05255 2491.5262 125.05983 C 2491.5262 119.0671 2488.2386 114.21056 2484.1826 114.21056 L 2225.984 114.21056 C 2221.928 114.21056 2218.6404 119.0671 2218.6404 125.05983 C 2218.6404 131.05255 2221.937 135.90909 2225.984 135.90909 Z" stroke="#1a1a1a" stroke-linecap="round" stroke-linejoin="round" stroke-width="3"/>
          </g>
          <g id="Graphic_664">
            <path d="M 2320.577 114.35152 C 2320.577 114.35152 2424.871 114.90252 2427.584 113.32853 C 2430.2972 111.75453 2428.8426 109.97123 2428.8426 109.97123 L 2428.284 99.89722 C 2428.284 99.89722 2343.4284 83.00398 2338.896 84.08463 C 2334.3635 85.16529 2320.577 114.35152 2320.577 114.35152 Z" fill="white"/>
            <path d="M 2320.577 114.35152 C 2320.577 114.35152 2424.871 114.90252 2427.584 113.32853 C 2430.2972 111.75453 2428.8426 109.97123 2428.8426 109.97123 L 2428.284 99.89722 C 2428.284 99.89722 2343.4284 83.00398 2338.896 84.08463 C 2334.3635 85.16529 2320.577 114.35152 2320.577 114.35152 Z" stroke="#1a1a1a" stroke-linecap="round" stroke-linejoin="round" stroke-width="2"/>
          </g>
          <g id="Graphic_663">
            <path d="M 2428.284 99.88868 C 2428.284 99.88868 2432.0915 103.82261 2428.8426 109.96269 C 2426.4442 109.07211 2423.8018 103.67097 2428.284 99.88868 Z" fill="white"/>
            <path d="M 2428.284 99.88868 C 2428.284 99.88868 2432.0915 103.82261 2428.8426 109.96269 C 2426.4442 109.07211 2423.8018 103.67097 2428.284 99.88868 Z" stroke="#1a1a1a" stroke-linecap="round" stroke-linejoin="round" stroke-width="2"/>
          </g>
          <g id="Graphic_662">
            <path d="M 2428.5348 100.95652 C 2428.5348 100.95652 2432.1074 104.40351 2429.0592 109.78116 C 2426.7998 108.99523 2424.3284 104.25615 2428.5348 100.95652 Z" fill="#1a1a1a"/>
          </g>
          <g id="Graphic_661">
            <path d="M 2429.5357 -79.78895 L 2473.869 -48.61948 C 2480.5307 -43.93584 2481.878 -35.080237 2476.878 -28.839942 L 2392.5515 76.40609 C 2387.5516 82.64638 2378.098 83.9083 2371.4363 79.22466 L 2327.103 48.055184 C 2320.4413 43.37154 2319.0942 34.51594 2324.094 28.275644 L 2408.4205 -76.97039 C 2413.4204 -83.21068 2422.874 -84.4726 2429.5357 -79.78895 Z" fill="#1a1a1a"/>
          </g>
          <g id="Graphic_660">
            <path d="M 2427.1902 -81.2616 L 2471.5235 -50.09213 C 2478.1852 -45.408484 2479.5323 -36.552883 2474.5324 -30.312588 L 2390.206 74.93344 C 2385.206 81.17374 2375.7524 82.43565 2369.0908 77.75201 L 2324.7575 46.58254 C 2318.0958 41.898895 2316.7486 33.043293 2321.7486 26.802998 L 2406.075 -78.44303 C 2411.075 -84.68333 2420.5285 -85.94524 2427.1902 -81.2616 Z" fill="white"/>
            <path d="M 2427.1902 -81.2616 L 2471.5235 -50.09213 C 2478.1852 -45.408484 2479.5323 -36.552883 2474.5324 -30.312588 L 2390.206 74.93344 C 2385.206 81.17374 2375.7524 82.43565 2369.0908 77.75201 L 2324.7575 46.58254 C 2318.0958 41.898895 2316.7486 33.043293 2321.7486 26.802998 L 2406.075 -78.44303 C 2411.075 -84.68333 2420.5285 -85.94524 2427.1902 -81.2616 Z" stroke="#1a1a1a" stroke-linecap="round" stroke-linejoin="round" stroke-width="2"/>
          </g>
          <g id="Graphic_659">
            <path d="M 2325.9234 29.635426 C 2322.644 33.730108 2323.529 39.539744 2327.9 42.61183 L 2372.235 73.77997 C 2374.3346 75.25594 2376.9742 75.89006 2379.573 75.5428 C 2382.1718 75.19554 2384.5169 73.89536 2386.0922 71.92833 L 2390.522 66.39692 L 2330.1526 24.35602 Z" fill="white"/>
            <path d="M 2325.9234 29.635426 C 2322.644 33.730108 2323.529 39.539744 2327.9 42.61183 L 2372.235 73.77997 C 2374.3346 75.25594 2376.9742 75.89006 2379.573 75.5428 C 2382.1718 75.19554 2384.5169 73.89536 2386.0922 71.92833 L 2390.522 66.39692 L 2330.1526 24.35602 Z" stroke="#1a1a1a" stroke-linecap="round" stroke-linejoin="round" stroke-width="2"/>
          </g>
          <g id="Graphic_658">
            <path d="M 2468.433 -46.30088 L 2424.096 -77.46688 C 2421.9973 -78.94408 2419.358 -79.57918 2416.759 -79.23227 C 2414.1604 -78.88536 2411.8154 -77.5849 2410.241 -75.61738 L 2330.1526 24.35602 L 2390.522 66.39692 L 2470.4075 -33.32234 C 2473.6823 -37.418413 2472.799 -43.22476 2468.433 -46.30088 Z" fill="white"/>
            <path d="M 2468.433 -46.30088 L 2424.096 -77.46688 C 2421.9973 -78.94408 2419.358 -79.57918 2416.759 -79.23227 C 2414.1604 -78.88536 2411.8154 -77.5849 2410.241 -75.61738 L 2330.1526 24.35602 L 2390.522 66.39692 L 2470.4075 -33.32234 C 2473.6823 -37.418413 2472.799 -43.22476 2468.433 -46.30088 Z" stroke="#1a1a1a" stroke-linecap="round" stroke-linejoin="round" stroke-width="2"/>
          </g>
          <g id="Graphic_657">
            <path d="M 2404.3496 -47.340955 L 2444.7426 -19.60272 L 2443.06 -17.714776 L 2403.0706 -45.773365 Z" fill="white"/>
            <path d="M 2404.3496 -47.340955 L 2444.7426 -19.60272 L 2443.06 -17.714776 L 2403.0706 -45.773365 Z" stroke="#1a1a1a" stroke-linecap="round" stroke-linejoin="round" stroke-width="2"/>
          </g>
          <g id="Graphic_656">
            <path d="M 2397.0608 -39.942953 L 2437.4538 -12.204717 L 2435.7735 -10.316774 L 2395.784 -38.375363 Z" fill="white"/>
            <path d="M 2397.0608 -39.942953 L 2437.4538 -12.204717 L 2435.7735 -10.316774 L 2395.784 -38.375363 Z" stroke="#1a1a1a" stroke-linecap="round" stroke-linejoin="round" stroke-width="2"/>
          </g>
          <g id="Graphic_655">
            <path d="M 2389.7742 -32.54495 L 2430.1672 -4.806715 L 2428.487 -2.9187725 L 2388.4952 -30.97736 Z" fill="white"/>
            <path d="M 2389.7742 -32.54495 L 2430.1672 -4.806715 L 2428.487 -2.9187725 L 2388.4952 -30.97736 Z" stroke="#1a1a1a" stroke-linecap="round" stroke-linejoin="round" stroke-width="2"/>
          </g>
          <g id="Graphic_654">
            <path d="M 2383.9309 -24.642928 L 2424.3239 3.0953076 L 2422.6436 4.9832504 L 2382.654 -23.075338 Z" fill="white"/>
            <path d="M 2383.9309 -24.642928 L 2424.3239 3.0953076 L 2422.6436 4.9832504 L 2382.654 -23.075338 Z" stroke="#1a1a1a" stroke-linecap="round" stroke-linejoin="round" stroke-width="2"/>
          </g>
          <g id="Graphic_653">
            <path d="M 2377.2348 -16.230478 L 2417.6278 11.507758 L 2415.9475 13.395701 L 2375.9558 -14.662887 Z" fill="white"/>
            <path d="M 2377.2348 -16.230478 L 2417.6278 11.507758 L 2415.9475 13.395701 L 2375.9558 -14.662887 Z" stroke="#1a1a1a" stroke-linecap="round" stroke-linejoin="round" stroke-width="2"/>
          </g>
          <g id="Graphic_652">
            <path d="M 2412.14 -56.441096 L 2421.6632 -49.83116 L 2419.869 -47.55025 L 2410.4598 -54.027775 Z" fill="white"/>
            <path d="M 2412.14 -56.441096 L 2421.6632 -49.83116 L 2419.869 -47.55025 L 2410.4598 -54.027775 Z" stroke="#1a1a1a" stroke-linecap="round" stroke-linejoin="round" stroke-width="2"/>
          </g>
          <g id="Graphic_651">
            <path d="M 2353.492 25.82964 L 2379.232 45.11912 L 2396.509 24.413684 L 2371.8702 4.630863 Z" fill="#1a1a1a"/>
          </g>
          <g id="Graphic_650">
            <path d="M 2356.8183 25.49434 L 2372.1734 7.783129 L 2393.2648 24.71695 L 2378.842 41.99889 Z" fill="white"/>
            <path d="M 2356.8183 25.49434 L 2372.1734 7.783129 L 2393.2648 24.71695 L 2378.842 41.99889 Z" stroke="#1a1a1a" stroke-linecap="round" stroke-linejoin="round" stroke-width="2"/>
          </g>
          <g id="Graphic_649">
            <path d="M 2363.4072 8.515668 L 2368.5598 28.559042 L 2403.0615 18.536287 L 2400.1478 10.719692 L 2373.6006 19.115057 L 2370.3518 7.3624 Z" fill="#ff6d24"/>
            <path d="M 2363.4072 8.515668 L 2368.5598 28.559042 L 2403.0615 18.536287 L 2400.1478 10.719692 L 2373.6006 19.115057 L 2370.3518 7.3624 Z" stroke="#1a1a1a" stroke-linecap="round" stroke-linejoin="round" stroke-width="2"/>
          </g>
          <g id="Graphic_648">
            <path d="M 2278.6815 88.24921 C 2278.6815 88.24921 2272.1838 102.2059 2279.3518 112.06847 C 2286.5198 121.93105 2318.8123 138.43347 2352.8376 83.89456 C 2376.5303 104.90753 2386.865 111.75453 2399.97 107.97651 L 2405.264 99.24157 C 2405.264 99.24157 2380.5064 63.4988 2362.835 59.968515 C 2346.5656 56.72014 2331.9172 65.478575 2326.4568 72.56904 C 2325.2804 71.15308 2323.1806 73.90811 2323.1806 73.90811 C 2322.0042 72.8061 2315.03 75.16603 2315.03 75.16603 Z" fill="white"/>
            <path d="M 2278.6815 88.24921 C 2278.6815 88.24921 2272.1838 102.2059 2279.3518 112.06847 C 2286.5198 121.93105 2318.8123 138.43347 2352.8376 83.89456 C 2376.5303 104.90753 2386.865 111.75453 2399.97 107.97651 L 2405.264 99.24157 C 2405.264 99.24157 2380.5064 63.4988 2362.835 59.968515 C 2346.5656 56.72014 2331.9172 65.478575 2326.4568 72.56904 C 2325.2804 71.15308 2323.1806 73.90811 2323.1806 73.90811 C 2322.0042 72.8061 2315.03 75.16603 2315.03 75.16603 Z" stroke="#1a1a1a" stroke-linecap="round" stroke-linejoin="round" stroke-width="2"/>
          </g>
          <g id="Graphic_647">
            <path d="M 2276.9329 90.09872 C 2276.9329 90.09872 2288.3574 93.77209 2300.849 88.36668 C 2313.3406 82.96127 2319.8907 78.00435 2319.8907 78.00435 L 2308.635 77.506735 L 2278.221 87.79004 Z" fill="#1a1a1a"/>
          </g>
          <g id="Graphic_646">
            <path d="M 2255.146 110.67174 C 2255.146 110.67174 2249.6014 109.67437 2249.0975 112.29913 C 2248.5937 114.92388 2256.603 114.55441 2260.522 114.18707 C 2264.4413 113.81973 2264.4983 110.72513 2264.22 109.62312 C 2263.942 108.52111 2264.7787 105.53115 2264.7787 105.53115 L 2259.4027 103.32713 C 2259.4027 103.32713 2258.6184 105.88995 2257.7498 106.84246 C 2256.881 107.79497 2252.506 107.1564 2249.4327 106.6054 C 2246.3594 106.0544 2237.3355 111.63493 2237.3355 111.63493 C 2237.3355 111.63493 2236.045 113.70654 2240.8625 113.49725 C 2243.8894 113.37465 2246.9214 113.42814 2249.941 113.65742" fill="white"/>
            <path d="M 2255.146 110.67174 C 2255.146 110.67174 2249.6014 109.67437 2249.0975 112.29913 C 2248.5937 114.92388 2256.603 114.55441 2260.522 114.18707 C 2264.4413 113.81973 2264.4983 110.72513 2264.22 109.62312 C 2263.942 108.52111 2264.7787 105.53115 2264.7787 105.53115 L 2259.4027 103.32713 C 2259.4027 103.32713 2258.6184 105.88995 2257.7498 106.84246 C 2256.881 107.79497 2252.506 107.1564 2249.4327 106.6054 C 2246.3594 106.0544 2237.3355 111.63493 2237.3355 111.63493 C 2237.3355 111.63493 2236.045 113.70654 2240.8625 113.49725 C 2243.8894 113.37465 2246.9214 113.42814 2249.941 113.65742" stroke="#1a1a1a" stroke-linecap="round" stroke-linejoin="round" stroke-width="2"/>
          </g>
          <g id="Graphic_645">
            <path d="M 2279.0486 28.063564 C 2279.0486 28.063564 2265.955 57.72605 2260.9416 84.53526 C 2259.0083 96.76204 2257.7498 104.32236 2257.7498 104.32236 C 2257.7498 104.32236 2259.3457 107.31231 2264.8175 106.45804 C 2269.3545 98.66707 2286.7045 63.456084 2291.0796 60.83347 C 2291.743 54.631446 2279.0486 28.063564 2279.0486 28.063564 Z" fill="#ff6d24"/>
            <path d="M 2279.0486 28.063564 C 2279.0486 28.063564 2265.955 57.72605 2260.9416 84.53526 C 2259.0083 96.76204 2257.7498 104.32236 2257.7498 104.32236 C 2257.7498 104.32236 2259.3457 107.31231 2264.8175 106.45804 C 2269.3545 98.66707 2286.7045 63.456084 2291.0796 60.83347 C 2291.743 54.631446 2279.0486 28.063564 2279.0486 28.063564 Z" stroke="#1a1a1a" stroke-linecap="round" stroke-linejoin="round" stroke-width="2"/>
          </g>
          <g id="Graphic_644">
            <path d="M 2275.8795 86.88451 C 2275.8795 86.88451 2266.247 40.24122 2284.5614 18.677242 C 2302.8758 -2.8867373 2320.4926 10.937531 2323.1806 18.414554 C 2325.8686 25.891576 2331.8899 46.065227 2321.3567 77.0198 C 2311.7264 84.05046 2276.3834 95.22649 2275.8795 86.88451 Z" fill="#ff6d24"/>
            <path d="M 2275.8795 86.88451 C 2275.8795 86.88451 2266.247 40.24122 2284.5614 18.677242 C 2302.8758 -2.8867373 2320.4926 10.937531 2323.1806 18.414554 C 2325.8686 25.891576 2331.8899 46.065227 2321.3567 77.0198 C 2311.7264 84.05046 2276.3834 95.22649 2275.8795 86.88451 Z" stroke="#1a1a1a" stroke-linecap="round" stroke-linejoin="round" stroke-width="2"/>
          </g>
          <g id="Graphic_643">
            <path d="M 2409.183 114.69323 L 2409.744 115.84863 C 2409.744 115.84863 2414.2262 114.0632 2419.6022 107.97651 C 2424.9782 101.88981 2430.4112 94.70325 2427.9466 94.52171 C 2425.482 94.34018 2421.002 96.80262 2421.002 96.80262 Z" fill="#25383f"/>
            <path d="M 2409.183 114.69323 L 2409.744 115.84863 C 2409.744 115.84863 2414.2262 114.0632 2419.6022 107.97651 C 2424.9782 101.88981 2430.4112 94.70325 2427.9466 94.52171 C 2425.482 94.34018 2421.002 96.80262 2421.002 96.80262 Z" stroke="#1a1a1a" stroke-linecap="round" stroke-linejoin="round" stroke-width="1"/>
          </g>
          <g id="Graphic_642">
            <path d="M 2412.5618 111.61998 C 2411.5382 113.5421 2409.525 115.10755 2407.2428 115.5774 C 2407.4465 115.65323 2407.6552 115.71672 2407.8675 115.76748 C 2412.9084 116.94851 2417.865 104.74949 2420.4708 100.0275 C 2421.9766 97.25084 2424.711 95.23611 2427.9466 94.51958 C 2427.733 93.93053 2427.4863 93.35238 2427.208 92.78754 C 2418.9205 95.24784 2416.2918 104.62776 2412.5618 111.61998 Z" fill="white"/>
            <path d="M 2412.5618 111.61998 C 2411.5382 113.5421 2409.525 115.10755 2407.2428 115.5774 C 2407.4465 115.65323 2407.6552 115.71672 2407.8675 115.76748 C 2412.9084 116.94851 2417.865 104.74949 2420.4708 100.0275 C 2421.9766 97.25084 2424.711 95.23611 2427.9466 94.51958 C 2427.733 93.93053 2427.4863 93.35238 2427.208 92.78754 C 2418.9205 95.24784 2416.2918 104.62776 2412.5618 111.61998 Z" stroke="#1a1a1a" stroke-linecap="round" stroke-linejoin="round" stroke-width="2"/>
          </g>
          <g id="Graphic_641">
            <path d="M 2398.7548 107.7907 C 2398.7548 107.7907 2397.494 105.01432 2400.5194 102.04572 C 2403.5448 99.07712 2404.58 99.24798 2404.58 99.24798 C 2404.58 99.24798 2404.8603 100.70878 2403.8503 102.5711 C 2402.8404 104.43341 2399.8195 108.80302 2398.7548 107.7907 Z" fill="#1a1a1a"/>
          </g>
          <g id="Graphic_640">
            <path d="M 2412.5618 111.61998 C 2416.2918 104.62776 2418.9296 95.24784 2427.208 92.78754 C 2426.6813 91.7197 2425.945 90.59846 2425.2586 90.76078 C 2423.9978 91.0555 2406.5042 99.71355 2405.0017 99.67298 C 2403.4992 99.6324 2399.466 106.16545 2399.466 106.16545 C 2399.466 106.16545 2402.5508 113.88808 2407.2428 115.5774 C 2409.525 115.10755 2411.5382 113.53782 2412.5618 111.61998 Z" fill="white"/>
            <path d="M 2412.5618 111.61998 C 2416.2918 104.62776 2418.9296 95.24784 2427.208 92.78754 C 2426.6813 91.7197 2425.945 90.59846 2425.2586 90.76078 C 2423.9978 91.0555 2406.5042 99.71355 2405.0017 99.67298 C 2403.4992 99.6324 2399.466 106.16545 2399.466 106.16545 C 2399.466 106.16545 2402.5508 113.88808 2407.2428 115.5774 C 2409.525 115.10755 2411.5382 113.53782 2412.5618 111.61998 Z" stroke="#1a1a1a" stroke-linecap="round" stroke-linejoin="round" stroke-width="2"/>
          </g>
          <g id="Graphic_639">
            <path d="M 2316.496 17.500482 C 2316.496 17.500482 2303.895 19.388424 2305.2378 31.036433 C 2306.5807 42.68444 2317.6724 59.054444 2332.1224 60.4704 C 2346.5724 61.88636 2363.2088 48.666487 2366.4007 41.58243 C 2367.958 38.86798 2361.9663 35.457295 2360.017 35.916466 C 2360.017 35.916466 2337.8358 52.60041 2325.57 27.888438 C 2322.0407 20.334532 2318.6527 16.958019 2316.496 17.500482 Z" fill="#ff6d24"/>
            <path d="M 2316.496 17.500482 C 2316.496 17.500482 2303.895 19.388424 2305.2378 31.036433 C 2306.5807 42.68444 2317.6724 59.054444 2332.1224 60.4704 C 2346.5724 61.88636 2363.2088 48.666487 2366.4007 41.58243 C 2367.958 38.86798 2361.9663 35.457295 2360.017 35.916466 C 2360.017 35.916466 2337.8358 52.60041 2325.57 27.888438 C 2322.0407 20.334532 2318.6527 16.958019 2316.496 17.500482 Z" stroke="#1a1a1a" stroke-linecap="round" stroke-linejoin="round" stroke-width="2"/>
          </g>
          <g id="Graphic_638">
            <path d="M 2359.871 36.69172 C 2358.348 37.689082 2356.4717 38.57966 2359.3285 41.727657 C 2362.1852 44.87565 2364.684 45.07854 2365.7965 42.015974 C 2366.909 38.953406 2361.401 35.694355 2359.871 36.69172 Z" fill="#1a1a1a"/>
          </g>
          <g id="Graphic_637">
            <path d="M 2359.96 37.80441 C 2359.96 37.80441 2366.681 29.883165 2370.769 29.462436 C 2374.8569 29.041706 2379.6196 29.829773 2380.4039 31.615203 C 2381.188 33.400633 2377.212 34.13317 2377.212 34.13317 C 2377.212 34.13317 2378.8923 39.32715 2375.1396 39.799136 C 2371.3868 40.27112 2367.8006 37.17652 2367.8006 37.17652 C 2367.8006 37.17652 2365.466 42.767734 2364.139 43.113714 C 2362.4793 43.55153 2359.2327 40.7965 2359.96 37.80441 Z" fill="white"/>
            <path d="M 2359.96 37.80441 C 2359.96 37.80441 2366.681 29.883165 2370.769 29.462436 C 2374.8569 29.041706 2379.6196 29.829773 2380.4039 31.615203 C 2381.188 33.400633 2377.212 34.13317 2377.212 34.13317 C 2377.212 34.13317 2378.8923 39.32715 2375.1396 39.799136 C 2371.3868 40.27112 2367.8006 37.17652 2367.8006 37.17652 C 2367.8006 37.17652 2365.466 42.767734 2364.139 43.113714 C 2362.4793 43.55153 2359.2327 40.7965 2359.96 37.80441 Z" stroke="#1a1a1a" stroke-linecap="round" stroke-linejoin="round" stroke-width="2"/>
          </g>
          <g id="Graphic_636">
            <path d="M 2441.9064 112.10905 C 2441.9064 112.10905 2438.6051 112.91634 2438.6051 107.62412 C 2438.6051 102.3319 2442.0045 88.71693 2439.5764 84.81504 C 2437.1483 80.91315 2442.49 84.54381 2443.557 88.5354 C 2444.624 92.52699 2447.442 110.47739 2441.9064 112.10905 Z" fill="#25383f"/>
            <path d="M 2441.9064 112.10905 C 2441.9064 112.10905 2438.6051 112.91634 2438.6051 107.62412 C 2438.6051 102.3319 2442.0045 88.71693 2439.5764 84.81504 C 2437.1483 80.91315 2442.49 84.54381 2443.557 88.5354 C 2444.624 92.52699 2447.442 110.47739 2441.9064 112.10905 Z" stroke="#1a1a1a" stroke-linecap="round" stroke-linejoin="round" stroke-width="1"/>
          </g>
          <g id="Graphic_635">
            <path d="M 2437.0525 83.77923 C 2433.7216 85.66504 2432.1895 92.5996 2431.9684 96.20463 C 2431.7084 100.43755 2427.6365 102.91708 2427.6365 102.91708 C 2423.6353 107.88681 2427.6365 112.65365 2427.6365 112.65365 L 2438.498 112.26069 C 2440.1236 102.80389 2440.8075 92.71065 2437.0525 83.77923 Z" fill="white"/>
            <path d="M 2437.0525 83.77923 C 2433.7216 85.66504 2432.1895 92.5996 2431.9684 96.20463 C 2431.7084 100.43755 2427.6365 102.91708 2427.6365 102.91708 C 2423.6353 107.88681 2427.6365 112.65365 2427.6365 112.65365 L 2438.498 112.26069 C 2440.1236 102.80389 2440.8075 92.71065 2437.0525 83.77923 Z" stroke="#1a1a1a" stroke-linecap="round" stroke-linejoin="round" stroke-width="2"/>
          </g>
          <g id="Graphic_634">
            <path d="M 2438.9585 83.29657 C 2438.286 83.27649 2437.6226 83.44453 2437.0525 83.77923 C 2440.7984 92.71065 2440.1144 102.80389 2438.4912 112.26069 L 2441.4208 112.1539 C 2441.4208 112.1539 2442.262 88.58452 2438.9585 83.29657 Z" fill="white"/>
            <path d="M 2438.9585 83.29657 C 2438.286 83.27649 2437.6226 83.44453 2437.0525 83.77923 C 2440.7984 92.71065 2440.1144 102.80389 2438.4912 112.26069 L 2441.4208 112.1539 C 2441.4208 112.1539 2442.262 88.58452 2438.9585 83.29657 Z" stroke="#1a1a1a" stroke-linecap="round" stroke-linejoin="round" stroke-width="2"/>
          </g>
          <g id="Graphic_633">
            <path d="M 2298.4118 89.31492 C 2298.4118 89.31492 2293.852 108.69623 2310.3494 106.00954 C 2326.8467 103.32286 2344.076 67.56727 2356.123 71.04843 C 2368.17 74.52959 2392.3733 100.94798 2398.1666 102.72914" stroke="#1a1a1a" stroke-linecap="round" stroke-linejoin="round" stroke-width="3"/>
          </g>
          <g id="Graphic_632">
            <ellipse cx="2441.2453" cy="-55.53984" rx="4.20186517849117" ry="3.93606991931484" fill="white"/>
            <ellipse cx="2441.2453" cy="-55.53984" rx="4.20186517849117" ry="3.93606991931484" stroke="#1a1a1a" stroke-linecap="round" stroke-linejoin="round" stroke-width="2"/>
          </g>
          <g id="Graphic_631">
            <rect x="2427.208" y="63.57782" width="63.290034" height="1.966963" fill="white"/>
            <rect x="2427.208" y="63.57782" width="63.290034" height="1.966963" stroke="#1a1a1a" stroke-linecap="round" stroke-linejoin="round" stroke-width="2"/>
          </g>
          <g id="Graphic_630">
            <rect x="2476.3284" y="52.060086" width="7.617147" height="10.704037" fill="#1a1a1a"/>
          </g>
          <g id="Graphic_629">
            <rect x="2458.014" y="44.20505" width="12.489294" height="18.559075" fill="white"/>
            <rect x="2458.014" y="44.20505" width="12.489294" height="18.559075" stroke="#1a1a1a" stroke-linecap="round" stroke-linejoin="round" stroke-width="2"/>
          </g>
          <g id="Graphic_628">
            <rect x="2235.3657" y="59.90231" width="12.489294" height="18.559075" fill="white"/>
            <rect x="2235.3657" y="59.90231" width="12.489294" height="18.559075" stroke="#1a1a1a" stroke-linecap="round" stroke-linejoin="round" stroke-width="2"/>
          </g>
          <g id="Graphic_627">
            <rect x="2465.1272" y="106.26369" width="13.442293" height="10.751022" fill="white"/>
            <rect x="2465.1272" y="106.26369" width="13.442293" height="10.751022" stroke="#1a1a1a" stroke-linecap="round" stroke-linejoin="round" stroke-width="2"/>
          </g>
          <g id="Graphic_626">
            <path d="M 2234.44 -10.57092 C 2244.9276 -48.231534 2283.9823 -69.98986 2318.2674 -62.42314 C 2345.1862 -56.481673 2366.387 -33.07887 2370.0212 -4.185232" stroke="#1a1a1a" stroke-linecap="round" stroke-linejoin="round" stroke-width="3"/>
          </g>
        </g>
      </g>
    </g>
  </g>
</svg>
