<?xml version="1.0" encoding="UTF-8" standalone="no"?>
<!DOCTYPE svg PUBLIC "-//W3C//DTD SVG 1.1//EN" "http://www.w3.org/Graphics/SVG/1.1/DTD/svg11.dtd">
<svg version="1.1" xmlns:xl="http://www.w3.org/1999/xlink" xmlns:dc="http://purl.org/dc/elements/1.1/" xmlns="http://www.w3.org/2000/svg" viewBox="2140 -454 428.582 272" width="428.582" height="272">
  <defs/>
  <g id="Canvas_1" fill="none" stroke="none" stroke-opacity="1" fill-opacity="1" stroke-dasharray="none">
    <title>Canvas 1</title>
    <g id="Canvas_1_Layer_1">
      <title>Layer 1</title>
      <g id="Group_887">
        <g id="Graphic_886">
          <path d="M 2233.3587 -197.39644 C 2248.6308 -190.78234 2272.7772 -184.22108 2280.6712 -183.55175 C 2356.3608 -177.1314 2588.9117 -184.91684 2567.1516 -320.14915 C 2548.126 -438.4895 2319.7543 -451.8058 2207.2388 -445.74653 C 2144.3447 -442.3558 2119.2954 -387.70805 2159.3975 -351.65198 C 2160.1714 -350.9562 2160.9583 -350.26046 2161.758 -349.5559 C 2176.1787 -336.9266 2196.8683 -311.4654 2193.4243 -295.1283 C 2187.7618 -268.2756 2154.509 -231.559 2233.3587 -197.39644 Z" fill="#dadada"/>
        </g>
        <g id="Graphic_560">
          <path d="M 2229.1154 -355.70183 L 2362.8748 -355.70183 C 2369.9362 -355.70183 2375.6605 -349.9237 2375.6605 -342.796 C 2375.6605 -335.66832 2369.9362 -329.8902 2362.8748 -329.8902 L 2229.1154 -329.8902 C 2222.054 -329.8902 2216.3297 -335.66832 2216.3297 -342.796 C 2216.3297 -349.9237 2222.054 -355.70183 2229.1154 -355.70183 Z" stroke="#1a1a1a" stroke-linecap="round" stroke-linejoin="round" stroke-width="3"/>
        </g>
        <g id="Graphic_559">
          <ellipse cx="2347.921" cy="-362.47922" rx="41.8818574763363" ry="42.2753944462669" fill="#ffa076"/>
        </g>
        <g id="Graphic_558">
          <path d="M 2268.3616 -387.28277 C 2268.3616 -387.28277 2295.2928 -433.0657 2372.2316 -396.29133 C 2449.1705 -359.51693 2449 -424.0097 2449 -424.0097" stroke="#1a1a1a" stroke-linecap="round" stroke-linejoin="round" stroke-width="3"/>
        </g>
        <g id="Graphic_557">
          <path d="M 2257.646 -251.20105 C 2269.2507 -250.19767 2277.121 -243.9703 2280.0757 -241.356 C 2280.6388 -243.88744 2282.3032 -249.5395 2286.9017 -251.85692 C 2293.7072 -255.2859 2305.4145 -250.6211 2312.2565 -238.0766 L 2230.0045 -238.0766 C 2230.0045 -238.0766 2238.2304 -252.8649 2257.646 -251.20105 Z" fill="white"/>
          <path d="M 2257.646 -251.20105 C 2269.2507 -250.19767 2277.121 -243.9703 2280.0757 -241.356 C 2280.6388 -243.88744 2282.3032 -249.5395 2286.9017 -251.85692 C 2293.7072 -255.2859 2305.4145 -250.6211 2312.2565 -238.0766 L 2230.0045 -238.0766 C 2230.0045 -238.0766 2238.2304 -252.8649 2257.646 -251.20105 Z" stroke="#1a1a1a" stroke-linecap="round" stroke-linejoin="round" stroke-width="2"/>
        </g>
        <g id="Graphic_556">
          <path d="M 2433.7957 -251.20105 C 2445.4004 -250.19767 2453.2706 -243.9703 2456.2254 -241.356 C 2456.7885 -243.88744 2458.4528 -249.5395 2463.0514 -251.85692 C 2469.857 -255.2859 2481.5642 -250.6211 2488.404 -238.0766 L 2406.1656 -238.0766 C 2406.1656 -238.0766 2414.3915 -252.8649 2433.7957 -251.20105 Z" fill="white"/>
          <path d="M 2433.7957 -251.20105 C 2445.4004 -250.19767 2453.2706 -243.9703 2456.2254 -241.356 C 2456.7885 -243.88744 2458.4528 -249.5395 2463.0514 -251.85692 C 2469.857 -255.2859 2481.5642 -250.6211 2488.404 -238.0766 L 2406.1656 -238.0766 C 2406.1656 -238.0766 2414.3915 -252.8649 2433.7957 -251.20105 Z" stroke="#1a1a1a" stroke-linecap="round" stroke-linejoin="round" stroke-width="2"/>
        </g>
        <g id="Graphic_555">
          <path d="M 2262.9992 -385.48555 C 2262.9992 -385.48555 2216.3297 -305.0635 2299.5666 -309.32787 C 2377.3362 -313.31146 2489.236 -329.67156 2483.3858 -282.7522 C 2479.77 -253.75552 2467.2373 -246.6214 2467.2373 -246.6214" stroke="#1a1a1a" stroke-linecap="round" stroke-linejoin="round" stroke-width="3"/>
        </g>
        <g id="Graphic_554">
          <ellipse cx="2467.2373" cy="-246.62602" rx="6.70976083575687" ry="1.2726343564935" fill="white"/>
          <ellipse cx="2467.2373" cy="-246.62602" rx="6.70976083575687" ry="1.2726343564935" stroke="#1a1a1a" stroke-linecap="round" stroke-linejoin="round" stroke-width="2"/>
        </g>
        <g id="Graphic_553">
          <path d="M 2467.2373 -268.6612 C 2463.171 -268.6612 2459.8745 -265.3346 2459.8732 -261.2302 C 2459.8732 -257.12465 2466.1133 -246.62602 2467.2373 -246.62602 C 2468.3613 -246.62602 2474.599 -257.12465 2474.599 -261.2302 C 2474.599 -265.33423 2471.303 -268.6612 2467.2373 -268.6612 Z M 2467.2373 -257.1914 C 2464.719 -257.1914 2462.6775 -259.25207 2462.6775 -261.79404 C 2462.6775 -264.336 2464.719 -266.39668 2467.2373 -266.39668 C 2469.7556 -266.39668 2471.797 -264.336 2471.797 -261.79404 C 2471.797 -259.25207 2469.7556 -257.1914 2467.2373 -257.1914 Z" fill="white"/>
          <path d="M 2467.2373 -268.6612 C 2463.171 -268.6612 2459.8745 -265.3346 2459.8732 -261.2302 C 2459.8732 -257.12465 2466.1133 -246.62602 2467.2373 -246.62602 C 2468.3613 -246.62602 2474.599 -257.12465 2474.599 -261.2302 C 2474.599 -265.33423 2471.303 -268.6612 2467.2373 -268.6612 Z M 2467.2373 -257.1914 C 2464.719 -257.1914 2462.6775 -259.25207 2462.6775 -261.79404 C 2462.6775 -264.336 2464.719 -266.39668 2467.2373 -266.39668 C 2469.7556 -266.39668 2471.797 -264.336 2471.797 -261.79404 C 2471.797 -259.25207 2469.7556 -257.1914 2467.2373 -257.1914 Z" stroke="#1a1a1a" stroke-linecap="round" stroke-linejoin="round" stroke-width="2"/>
        </g>
        <g id="Graphic_552">
          <path d="M 2228.4063 -214.97132 L 2486.605 -214.97132 C 2490.661 -214.97132 2493.9486 -220.20453 2493.9486 -226.66204 C 2493.9486 -233.11955 2490.661 -238.35276 2486.605 -238.35276 L 2228.4063 -238.35276 C 2224.3504 -238.35276 2221.0628 -233.11955 2221.0628 -226.66204 C 2221.0628 -220.20453 2224.3595 -214.97132 2228.4063 -214.97132 Z" stroke="#1a1a1a" stroke-linecap="round" stroke-linejoin="round" stroke-width="3"/>
        </g>
        <g id="Graphic_551">
          <path d="M 2312.2975 -291.34533 C 2312.2975 -291.34533 2253.5422 -282.2413 2255.4938 -255.90495 C 2257.4454 -229.5686 2303.276 -218.99173 2363.4927 -252.45297 L 2418.0074 -265.45544 L 2337.3126 -291.33382 C 2337.3126 -291.33382 2319.4975 -292.73993 2312.2975 -291.34533 Z" fill="#ff6d24"/>
          <path d="M 2312.2975 -291.34533 C 2312.2975 -291.34533 2253.5422 -282.2413 2255.4938 -255.90495 C 2257.4454 -229.5686 2303.276 -218.99173 2363.4927 -252.45297 L 2418.0074 -265.45544 L 2337.3126 -291.33382 C 2337.3126 -291.33382 2319.4975 -292.73993 2312.2975 -291.34533 Z" stroke="#1a1a1a" stroke-linecap="round" stroke-linejoin="round" stroke-width="2"/>
        </g>
        <g id="Graphic_550">
          <path d="M 2336.013 -360.76014 C 2336.013 -360.76014 2317.7283 -362.8106 2317.564 -373.14586 C 2317.4 -383.4811 2322.1672 -384.21752 2326.3714 -386.1115 C 2331.786 -388.5417 2334.3054 -395.37894 2330.5664 -404.64637 C 2330.5664 -404.64637 2326.3417 -418.68444 2339.1 -427.36963 C 2348.3633 -432.7018 2351.8675 -426.4675 2351.8675 -426.4675 C 2351.8675 -426.4675 2357.232 -433.9307 2368.2828 -428.59854 C 2375.9227 -424.9164 2375.8406 -406.7797 2387.3792 -405.46794 C 2398.9178 -404.1562 2405.0963 -395.1327 2399.8936 -382.66413 C 2394.6909 -370.19556 2383.2093 -363.7933 2370.5855 -364.07174 C 2357.9617 -364.3502 2336.013 -360.76014 2336.013 -360.76014 Z" fill="#25383f"/>
          <path d="M 2336.013 -360.76014 C 2336.013 -360.76014 2317.7283 -362.8106 2317.564 -373.14586 C 2317.4 -383.4811 2322.1672 -384.21752 2326.3714 -386.1115 C 2331.786 -388.5417 2334.3054 -395.37894 2330.5664 -404.64637 C 2330.5664 -404.64637 2326.3417 -418.68444 2339.1 -427.36963 C 2348.3633 -432.7018 2351.8675 -426.4675 2351.8675 -426.4675 C 2351.8675 -426.4675 2357.232 -433.9307 2368.2828 -428.59854 C 2375.9227 -424.9164 2375.8406 -406.7797 2387.3792 -405.46794 C 2398.9178 -404.1562 2405.0963 -395.1327 2399.8936 -382.66413 C 2394.6909 -370.19556 2383.2093 -363.7933 2370.5855 -364.07174 C 2357.9617 -364.3502 2336.013 -360.76014 2336.013 -360.76014 Z" stroke="#1a1a1a" stroke-linecap="round" stroke-linejoin="round" stroke-width="1"/>
        </g>
        <g id="Graphic_549">
          <path d="M 2335.7007 -362.47922 C 2335.7007 -362.47922 2285.7914 -348.04533 2281.895 -306.21187 C 2279.1592 -276.77565 2297.6606 -257.32487 2310.3368 -256.1765 C 2316.1893 -258.14414 2314.8966 -266.18266 2314.8966 -266.18266 C 2314.8966 -266.18266 2298.9692 -288.3306 2307.0948 -305.2269 C 2315.2204 -322.12322 2329.6863 -329.83726 2331.7998 -332.62416" fill="white"/>
          <path d="M 2335.7007 -362.47922 C 2335.7007 -362.47922 2285.7914 -348.04533 2281.895 -306.21187 C 2279.1592 -276.77565 2297.6606 -257.32487 2310.3368 -256.1765 C 2316.1893 -258.14414 2314.8966 -266.18266 2314.8966 -266.18266 C 2314.8966 -266.18266 2298.9692 -288.3306 2307.0948 -305.2269 C 2315.2204 -322.12322 2329.6863 -329.83726 2331.7998 -332.62416" stroke="#1a1a1a" stroke-linecap="round" stroke-linejoin="round" stroke-width="2"/>
        </g>
        <g id="Graphic_548">
          <path d="M 2390.4594 -291.34533 C 2445.7994 -296.24715 2457.2604 -281.52098 2456.2824 -263.49932 C 2455.3043 -245.47766 2439.2173 -232.8802 2403.7877 -229.59853 C 2368.358 -226.31684 2338.8857 -246.11282 2338.8857 -246.11282 C 2334.2256 -254.31704 2340.9992 -265.14476 2349.2866 -264.7075 C 2351.4594 -264.81337 2378.2163 -266.45652 2395.3406 -261.97124 C 2395.3406 -261.97124 2392.8487 -265.42322 2386.889 -265.98935" fill="#ff6d24"/>
          <path d="M 2390.4594 -291.34533 C 2445.7994 -296.24715 2457.2604 -281.52098 2456.2824 -263.49932 C 2455.3043 -245.47766 2439.2173 -232.8802 2403.7877 -229.59853 C 2368.358 -226.31684 2338.8857 -246.11282 2338.8857 -246.11282 C 2334.2256 -254.31704 2340.9992 -265.14476 2349.2866 -264.7075 C 2351.4594 -264.81337 2378.2163 -266.45652 2395.3406 -261.97124 C 2395.3406 -261.97124 2392.8487 -265.42322 2386.889 -265.98935" stroke="#1a1a1a" stroke-linecap="round" stroke-linejoin="round" stroke-width="2"/>
        </g>
        <g id="Graphic_547">
          <path d="M 2319.2717 -288.22013 C 2319.2717 -288.22013 2316.634 -281.3714 2319.0164 -278.63742 C 2321.399 -275.90345 2330.644 -268.6773 2340.5067 -267.8028 C 2350.3696 -266.9283 2359.6875 -268.19632 2359.6875 -268.19632 Z" fill="#1a1a1a"/>
        </g>
        <g id="Graphic_546">
          <path d="M 2321.2917 -333.3813 C 2317.9562 -310.65573 2319.7596 -280.78456 2319.7596 -280.78456 C 2319.7596 -280.78456 2330.7305 -267.74066 2355.3535 -267.9869 C 2379.9764 -268.23314 2392.6526 -276.3545 2392.6526 -276.3545 C 2392.6526 -276.3545 2404.3553 -351.1636 2373.1504 -365.43642 C 2356.815 -370.35665 2352.1023 -366.2557 2352.1023 -366.2557 C 2352.1023 -366.2557 2343.6804 -367.5099 2335.687 -362.48153" fill="white"/>
          <path d="M 2321.2917 -333.3813 C 2317.9562 -310.65573 2319.7596 -280.78456 2319.7596 -280.78456 C 2319.7596 -280.78456 2330.7305 -267.74066 2355.3535 -267.9869 C 2379.9764 -268.23314 2392.6526 -276.3545 2392.6526 -276.3545 C 2392.6526 -276.3545 2404.3553 -351.1636 2373.1504 -365.43642 C 2356.815 -370.35665 2352.1023 -366.2557 2352.1023 -366.2557 C 2352.1023 -366.2557 2343.6804 -367.5099 2335.687 -362.48153" stroke="#1a1a1a" stroke-linecap="round" stroke-linejoin="round" stroke-width="2"/>
        </g>
        <g id="Graphic_545">
          <path d="M 2345.844 -386.7628 C 2345.844 -386.7628 2352.2642 -368.22563 2342.1072 -362.2376 C 2344.1774 -359.1262 2351.1334 -348.86 2356.6028 -348.86 C 2362.1795 -348.86 2365.6472 -356.6845 2367.054 -361.00638 C 2364.293 -365.0268 2359.6602 -377.16627 2364.5346 -387.91115 C 2352.1023 -385.61443 2345.844 -386.7628 2345.844 -386.7628 Z" fill="white"/>
          <path d="M 2345.844 -386.7628 C 2345.844 -386.7628 2352.2642 -368.22563 2342.1072 -362.2376 C 2344.1774 -359.1262 2351.1334 -348.86 2356.6028 -348.86 C 2362.1795 -348.86 2365.6472 -356.6845 2367.054 -361.00638 C 2364.293 -365.0268 2359.6602 -377.16627 2364.5346 -387.91115 C 2352.1023 -385.61443 2345.844 -386.7628 2345.844 -386.7628 Z" stroke="#1a1a1a" stroke-linecap="round" stroke-linejoin="round" stroke-width="2"/>
        </g>
        <g id="Graphic_544">
          <path d="M 2347.246 -380.899 C 2347.246 -380.899 2353.037 -379.3387 2356.3885 -381.49276 C 2347.0227 -384.3648 2346.7993 -384.0242 2346.7993 -384.0242 Z" fill="#1a1a1a"/>
        </g>
        <g id="Graphic_543">
          <path d="M 2372.87 -391.39305 C 2369.1172 -382.4294 2358.1896 -381.50887 2355.4538 -381.29254 C 2352.638 -381.0739 2340.3927 -381.1844 2338.0102 -394.30882 C 2336.0678 -405.00307 2344.1227 -410.68504 2347.1754 -412.42484 C 2347.8754 -410.1235 2349.9273 -407.73705 2354.5737 -405.79243 C 2363.8757 -401.9055 2370.166 -396.26725 2372.87 -391.39305 Z" fill="white"/>
          <path d="M 2372.87 -391.39305 C 2369.1172 -382.4294 2358.1896 -381.50887 2355.4538 -381.29254 C 2352.638 -381.0739 2340.3927 -381.1844 2338.0102 -394.30882 C 2336.0678 -405.00307 2344.1227 -410.68504 2347.1754 -412.42484 C 2347.8754 -410.1235 2349.9273 -407.73705 2354.5737 -405.79243 C 2363.8757 -401.9055 2370.166 -396.26725 2372.87 -391.39305 Z" stroke="#1a1a1a" stroke-linecap="round" stroke-linejoin="round" stroke-width="2"/>
        </g>
        <g id="Graphic_542">
          <path d="M 2392.844 -266.90297 C 2392.844 -266.90297 2396.581 -266.67284 2394.497 -262.19447" stroke="#1a1a1a" stroke-linecap="round" stroke-linejoin="round" stroke-width="2"/>
        </g>
        <g id="Graphic_541">
          <path d="M 2409.745 -270.72087 C 2409.745 -270.72087 2400.8785 -269.13526 2395.1263 -265.42783" fill="white"/>
          <path d="M 2409.745 -270.72087 C 2409.745 -270.72087 2400.8785 -269.13526 2395.1263 -265.42783" stroke="#1a1a1a" stroke-linecap="round" stroke-linejoin="round" stroke-width="2"/>
        </g>
        <g id="Graphic_540">
          <path d="M 2410.7208 -267.44148 C 2410.7208 -267.44148 2399.5493 -265.5751 2395.3338 -264.5395" stroke="#1a1a1a" stroke-linecap="round" stroke-linejoin="round" stroke-width="2"/>
        </g>
        <g id="Graphic_539">
          <path d="M 2351.122 -251.2954 C 2351.122 -251.2954 2354.4666 -261.96664 2350.048 -263.6236 C 2345.6297 -265.28054 2341.104 -257.87028 2339.5606 -255.302 C 2336.0404 -249.41292 2342.7046 -238.89817 2351.122 -251.2954 Z" fill="#1a1a1a"/>
        </g>
        <g id="Graphic_538">
          <path d="M 2347.278 -263.1403 C 2343.8842 -261.8635 2340.0912 -262.2906 2337.0595 -264.29097 C 2335.801 -265.13786 2334.6634 -266.2678 2333.1837 -266.6268 C 2331.198 -267.1124 2329.08 -265.99165 2327.8647 -264.3255 C 2326.6495 -262.65933 2326.182 -260.57434 2325.945 -258.52616 C 2325.708 -256.47798 2325.6714 -254.39758 2325.1767 -252.39773 C 2324.6204 -250.15164 2323.5146 -248.09196 2322.4408 -246.0507 C 2321.367 -244.0094 2320.2863 -241.9267 2319.8075 -239.6645 C 2319.3287 -237.4023 2319.5066 -234.90077 2320.788 -232.99068 C 2321.953 -231.25088 2323.95 -230.15545 2326.018 -229.94142 C 2328.1084 -229.76573 2330.195 -230.32155 2331.9275 -231.51553 C 2333.437 -232.52972 2334.6608 -233.92114 2335.4796 -235.55435 C 2337.3833 -239.35614 2336.8475 -243.88514 2336.2114 -248.09426 C 2336.1134 -248.72712 2336.0222 -249.4037 2336.2935 -249.98135 C 2336.8338 -251.132 2338.457 -251.22406 2339.661 -250.82133 C 2340.8647 -250.4186 2342.032 -249.69368 2343.2928 -249.82486 C 2344.255 -249.9261 2345.1167 -250.53827 2345.705 -251.3115 C 2346.2678 -252.1102 2346.6883 -253.00192 2346.9475 -253.94653 C 2347.5068 -255.729 2347.8654 -257.56938 2348.0167 -259.43288 C 2348.124 -260.77685 2348.4385 -261.67897 2347.6086 -262.73528 Z" fill="white"/>
          <path d="M 2347.278 -263.1403 C 2343.8842 -261.8635 2340.0912 -262.2906 2337.0595 -264.29097 C 2335.801 -265.13786 2334.6634 -266.2678 2333.1837 -266.6268 C 2331.198 -267.1124 2329.08 -265.99165 2327.8647 -264.3255 C 2326.6495 -262.65933 2326.182 -260.57434 2325.945 -258.52616 C 2325.708 -256.47798 2325.6714 -254.39758 2325.1767 -252.39773 C 2324.6204 -250.15164 2323.5146 -248.09196 2322.4408 -246.0507 C 2321.367 -244.0094 2320.2863 -241.9267 2319.8075 -239.6645 C 2319.3287 -237.4023 2319.5066 -234.90077 2320.788 -232.99068 C 2321.953 -231.25088 2323.95 -230.15545 2326.018 -229.94142 C 2328.1084 -229.76573 2330.195 -230.32155 2331.9275 -231.51553 C 2333.437 -232.52972 2334.6608 -233.92114 2335.4796 -235.55435 C 2337.3833 -239.35614 2336.8475 -243.88514 2336.2114 -248.09426 C 2336.1134 -248.72712 2336.0222 -249.4037 2336.2935 -249.98135 C 2336.8338 -251.132 2338.457 -251.22406 2339.661 -250.82133 C 2340.8647 -250.4186 2342.032 -249.69368 2343.2928 -249.82486 C 2344.255 -249.9261 2345.1167 -250.53827 2345.705 -251.3115 C 2346.2678 -252.1102 2346.6883 -253.00192 2346.9475 -253.94653 C 2347.5068 -255.729 2347.8654 -257.56938 2348.0167 -259.43288 C 2348.124 -260.77685 2348.4385 -261.67897 2347.6086 -262.73528 Z" stroke="#1a1a1a" stroke-linecap="round" stroke-linejoin="round" stroke-width="2"/>
        </g>
        <g id="Graphic_537">
          <path d="M 2308.8298 -257.32487 C 2308.8298 -257.32487 2305.8226 -261.26243 2308.8298 -265.14937 C 2311.837 -269.0363 2314.2332 -266.15274 2314.598 -265.14937 C 2315.0038 -264.04933 2313.0681 -255.24677 2308.8298 -257.32487 Z" fill="#1a1a1a"/>
        </g>
        <g id="Graphic_536">
          <path d="M 2319.119 -262.47523 C 2317.27 -262.53046 2314.411 -265.2069 2312.5666 -265.0343 C 2310.7426 -266.47493 2306.5203 -262.38087 2309.4796 -258.55377 C 2310.8293 -256.80707 2312.7284 -254.4114 2314.7917 -253.64505 C 2317.81 -252.53883 2321.1802 -253.08587 2323.7027 -255.09142 C 2326.225 -257.09697 2327.5414 -260.2761 2327.183 -263.49702 C 2327.1237 -264.11207 2326.9763 -264.71518 2326.7453 -265.28745 C 2325.856 -267.39546 2323.3254 -268.64047 2321.1367 -268.04903 C 2318.948 -267.4576 2317.3635 -265.11024 2317.628 -262.83654" fill="white"/>
          <path d="M 2319.119 -262.47523 C 2317.27 -262.53046 2314.411 -265.2069 2312.5666 -265.0343 C 2310.7426 -266.47493 2306.5203 -262.38087 2309.4796 -258.55377 C 2310.8293 -256.80707 2312.7284 -254.4114 2314.7917 -253.64505 C 2317.81 -252.53883 2321.1802 -253.08587 2323.7027 -255.09142 C 2326.225 -257.09697 2327.5414 -260.2761 2327.183 -263.49702 C 2327.1237 -264.11207 2326.9763 -264.71518 2326.7453 -265.28745 C 2325.856 -267.39546 2323.3254 -268.64047 2321.1367 -268.04903 C 2318.948 -267.4576 2317.3635 -265.11024 2317.628 -262.83654" stroke="#1a1a1a" stroke-linecap="round" stroke-linejoin="round" stroke-width="2"/>
        </g>
        <g id="Graphic_535">
          <path d="M 2393.5144 -327.77757 C 2399.0888 -324.78585 2404.8045 -319.4928 2407.3625 -309.32787 C 2412.563 -288.65508 2399.4513 -278.49014 2392.192 -274.7689 C 2389.0504 -272.46757 2389.593 -266.45652 2393.984 -265.41632 C 2422.973 -269.08233 2444.094 -293.7433 2428.9783 -329.0157 C 2413.8625 -364.28806 2373.1504 -365.43642 2373.1504 -365.43642" fill="white"/>
          <path d="M 2393.5144 -327.77757 C 2399.0888 -324.78585 2404.8045 -319.4928 2407.3625 -309.32787 C 2412.563 -288.65508 2399.4513 -278.49014 2392.192 -274.7689 C 2389.0504 -272.46757 2389.593 -266.45652 2393.984 -265.41632 C 2422.973 -269.08233 2444.094 -293.7433 2428.9783 -329.0157 C 2413.8625 -364.28806 2373.1504 -365.43642 2373.1504 -365.43642" stroke="#1a1a1a" stroke-linecap="round" stroke-linejoin="round" stroke-width="2"/>
        </g>
        <g id="Graphic_534">
          <path d="M 2328.7014 -298.91438 L 2331.027 -299.8142 L 2381.358 -301.12595 L 2380.3776 -275.91726 L 2378.9823 -276.0185 L 2380.136 -299.8142 Z" fill="#1a1a1a"/>
        </g>
        <g id="Graphic_533">
          <path d="M 2323.2798 -273.07742 L 2329.349 -266.89377 L 2329.3375 -269.79574 L 2329.276 -272.76905 Z" fill="white"/>
          <path d="M 2323.2798 -273.07742 L 2329.349 -266.89377 L 2329.3375 -269.79574 L 2329.276 -272.76905 Z" stroke="#1a1a1a" stroke-linecap="round" stroke-linejoin="round" stroke-width="2"/>
        </g>
        <g id="Graphic_532">
          <path d="M 2329.349 -264.5395 L 2323.2798 -270.7761 L 2323.2798 -273.07742 L 2329.349 -266.89377 Z" fill="white"/>
          <path d="M 2329.349 -264.5395 L 2323.2798 -270.7761 L 2323.2798 -273.07742 L 2329.349 -266.89377 Z" stroke="#1a1a1a" stroke-linecap="round" stroke-linejoin="round" stroke-width="2"/>
        </g>
        <g id="Graphic_531">
          <path d="M 2328.7014 -298.91438 L 2380.136 -299.8142 L 2378.5355 -266.82703 L 2329.349 -266.89377 Z" fill="white"/>
          <path d="M 2328.7014 -298.91438 L 2380.136 -299.8142 L 2378.5355 -266.82703 L 2329.349 -266.89377 Z" stroke="#1a1a1a" stroke-linecap="round" stroke-linejoin="round" stroke-width="2"/>
        </g>
        <g id="Graphic_530">
          <rect x="2329.349" y="-266.89377" width="49.17289" height="2.3542536" fill="white"/>
          <rect x="2329.349" y="-266.89377" width="49.17289" height="2.3542536" stroke="#1a1a1a" stroke-linecap="round" stroke-linejoin="round" stroke-width="2"/>
        </g>
        <g id="Graphic_529">
          <path d="M 2354.9203 -286.36066 L 2351.236 -283.3206 L 2358.169 -279.1437 L 2358.169 -284.65538 Z" fill="white"/>
          <path d="M 2354.9203 -286.36066 L 2351.236 -283.3206 L 2358.169 -279.1437 L 2358.169 -284.65538 Z" stroke="#1a1a1a" stroke-linecap="round" stroke-linejoin="round" stroke-width="2"/>
        </g>
        <g id="Graphic_528">
          <path d="M 2390.2428 -342.796 C 2390.2428 -342.796 2393.161 -333.1995 2393.5144 -327.77757" fill="white"/>
          <path d="M 2390.2428 -342.796 C 2390.2428 -342.796 2393.161 -333.1995 2393.5144 -327.77757" stroke="#1a1a1a" stroke-linecap="round" stroke-linejoin="round" stroke-width="2"/>
        </g>
        <g id="Graphic_527">
          <path d="M 2392.2878 -274.34545 C 2392.2878 -274.34545 2394.9074 -275.90345 2396.371 -273.09353 C 2397.8348 -270.28362 2397.2968 -266.18956 2394.8026 -266.0607 C 2392.3084 -265.9318 2391.2505 -267.9662 2391.1707 -269.95683 C 2391.091 -271.94747 2391.825 -274.13373 2392.2878 -274.34545 Z" fill="#1a1a1a"/>
        </g>
        <g id="Graphic_526">
          <path d="M 2379.7324 -271.76107 C 2379.7324 -271.76107 2380.9773 -272.41694 2380.3822 -274.71366 C 2379.7871 -277.0104 2381.8983 -278.54077 2383.362 -277.28424 C 2384.8257 -276.02772 2387.0988 -273.8944 2388.4006 -273.51007 C 2389.7024 -273.12575 2393.168 -273.45714 2393.168 -273.45714 C 2395.3338 -272.73683 2396.011 -268.6704 2393.8176 -267.24357 C 2393.8176 -267.24357 2382.9288 -261.09213 2374.9652 -266.72577 C 2371.201 -269.33317 2374.6938 -277.3878 2378.7566 -276.62146 L 2380.389 -276.22563" fill="white"/>
          <path d="M 2379.7324 -271.76107 C 2379.7324 -271.76107 2380.9773 -272.41694 2380.3822 -274.71366 C 2379.7871 -277.0104 2381.8983 -278.54077 2383.362 -277.28424 C 2384.8257 -276.02772 2387.0988 -273.8944 2388.4006 -273.51007 C 2389.7024 -273.12575 2393.168 -273.45714 2393.168 -273.45714 C 2395.3338 -272.73683 2396.011 -268.6704 2393.8176 -267.24357 C 2393.8176 -267.24357 2382.9288 -261.09213 2374.9652 -266.72577 C 2371.201 -269.33317 2374.6938 -277.3878 2378.7566 -276.62146 L 2380.389 -276.22563" stroke="#1a1a1a" stroke-linecap="round" stroke-linejoin="round" stroke-width="2"/>
        </g>
        <g id="Graphic_525">
          <path d="M 2343.3498 -369.00348 C 2340.664 -369.588 2335.484 -362.51605 2336.672 -357.0366 C 2338.0125 -350.83913 2347.1458 -348.1512 2353.623 -349.2443 C 2355.6433 -349.5963 2357.5828 -350.31855 2359.3456 -351.37534 C 2355.3694 -352.5536 2350.764 -354.8089 2347.8252 -359.4967 C 2344.8864 -364.1845 2345.3333 -368.57083 2343.3498 -369.00348 Z" fill="white"/>
          <path d="M 2343.3498 -369.00348 C 2340.664 -369.588 2335.484 -362.51605 2336.672 -357.0366 C 2338.0125 -350.83913 2347.1458 -348.1512 2353.623 -349.2443 C 2355.6433 -349.5963 2357.5828 -350.31855 2359.3456 -351.37534 C 2355.3694 -352.5536 2350.764 -354.8089 2347.8252 -359.4967 C 2344.8864 -364.1845 2345.3333 -368.57083 2343.3498 -369.00348 Z" stroke="#1a1a1a" stroke-linecap="round" stroke-linejoin="round" stroke-width="2"/>
        </g>
        <g id="Graphic_524">
          <path d="M 2365.8136 -369.00348 C 2368.497 -369.588 2373.677 -362.51605 2372.4892 -357.0366 C 2371.1486 -350.83913 2363.1006 -348.0062 2356.6234 -349.09933 C 2354.136 -349.51817 2355.5837 -352.6986 2354.3047 -353.45574 C 2358.2808 -354.634 2358.4085 -354.8089 2361.336 -359.4967 C 2364.2633 -364.1845 2363.8278 -368.57083 2365.8136 -369.00348 Z" fill="white"/>
          <path d="M 2365.8136 -369.00348 C 2368.497 -369.588 2373.677 -362.51605 2372.4892 -357.0366 C 2371.1486 -350.83913 2363.1006 -348.0062 2356.6234 -349.09933 C 2354.136 -349.51817 2355.5837 -352.6986 2354.3047 -353.45574 C 2358.2808 -354.634 2358.4085 -354.8089 2361.336 -359.4967 C 2364.2633 -364.1845 2363.8278 -368.57083 2365.8136 -369.00348 Z" stroke="#1a1a1a" stroke-linecap="round" stroke-linejoin="round" stroke-width="2"/>
        </g>
        <g id="Graphic_501">
          <ellipse cx="2263.6467" cy="-388.0009" rx="13.2644881217925" ry="2.51535144963365" fill="white"/>
          <ellipse cx="2263.6467" cy="-388.0009" rx="13.2644881217925" ry="2.51535144963365" stroke="#1a1a1a" stroke-linecap="round" stroke-linejoin="round" stroke-width="2"/>
        </g>
        <g id="Graphic_500">
          <path d="M 2263.649 -431.56955 C 2255.609 -431.56955 2249.0908 -424.9912 2249.0896 -416.8756 C 2249.0896 -408.75883 2261.4284 -388.0009 2263.649 -388.0009 C 2265.8696 -388.0009 2278.2062 -408.75883 2278.2062 -416.8756 C 2278.2062 -420.7727 2276.6725 -424.51014 2273.9425 -427.2658 C 2271.2125 -430.02144 2267.5098 -431.56955 2263.649 -431.56955 Z M 2263.649 -408.89 C 2260.011 -408.8891 2256.7307 -411.10045 2255.3378 -414.49286 C 2253.945 -417.88527 2254.714 -421.79057 2257.286 -424.38754 C 2259.8582 -426.9845 2263.727 -427.76167 2267.0881 -426.3566 C 2270.4493 -424.9515 2272.641 -421.64094 2272.641 -417.96873 C 2272.6384 -412.9574 2268.6137 -408.8959 2263.649 -408.8946 Z" fill="white"/>
          <path d="M 2263.649 -431.56955 C 2255.609 -431.56955 2249.0908 -424.9912 2249.0896 -416.8756 C 2249.0896 -408.75883 2261.4284 -388.0009 2263.649 -388.0009 C 2265.8696 -388.0009 2278.2062 -408.75883 2278.2062 -416.8756 C 2278.2062 -420.7727 2276.6725 -424.51014 2273.9425 -427.2658 C 2271.2125 -430.02144 2267.5098 -431.56955 2263.649 -431.56955 Z M 2263.649 -408.89 C 2260.011 -408.8891 2256.7307 -411.10045 2255.3378 -414.49286 C 2253.945 -417.88527 2254.714 -421.79057 2257.286 -424.38754 C 2259.8582 -426.9845 2263.727 -427.76167 2267.0881 -426.3566 C 2270.4493 -424.9515 2272.641 -421.64094 2272.641 -417.96873 C 2272.6384 -412.9574 2268.6137 -408.8959 2263.649 -408.8946 Z" stroke="#1a1a1a" stroke-linecap="round" stroke-linejoin="round" stroke-width="2"/>
        </g>
        <g id="Graphic_499">
          <ellipse cx="2449.8437" cy="-426.50026" rx="8.0685843009666" ry="1.53038308692256" fill="white"/>
          <ellipse cx="2449.8437" cy="-426.50026" rx="8.0685843009666" ry="1.53038308692256" stroke="#1a1a1a" stroke-linecap="round" stroke-linejoin="round" stroke-width="2"/>
        </g>
        <g id="Graphic_498">
          <path d="M 2449.8437 -453 C 2444.9576 -452.99364 2441 -448.99367 2441 -444.06165 C 2441 -439.1253 2448.5054 -426.50026 2449.855 -426.50026 C 2451.2048 -426.50026 2458.708 -439.1253 2458.708 -444.06165 C 2458.7086 -446.43403 2457.7746 -448.7093 2456.1118 -450.38595 C 2454.449 -452.0626 2452.194 -453.00305 2449.8437 -453 Z M 2449.8437 -439.20586 C 2446.8218 -439.20586 2444.372 -441.67867 2444.372 -444.72904 C 2444.372 -447.7794 2446.8218 -450.2522 2449.8437 -450.2522 C 2452.8657 -450.2522 2455.3155 -447.7794 2455.3155 -444.72904 C 2455.3105 -441.68227 2452.862 -439.21506 2449.8437 -439.21507 Z" fill="white"/>
          <path d="M 2449.8437 -453 C 2444.9576 -452.99364 2441 -448.99367 2441 -444.06165 C 2441 -439.1253 2448.5054 -426.50026 2449.855 -426.50026 C 2451.2048 -426.50026 2458.708 -439.1253 2458.708 -444.06165 C 2458.7086 -446.43403 2457.7746 -448.7093 2456.1118 -450.38595 C 2454.449 -452.0626 2452.194 -453.00305 2449.8437 -453 Z M 2449.8437 -439.20586 C 2446.8218 -439.20586 2444.372 -441.67867 2444.372 -444.72904 C 2444.372 -447.7794 2446.8218 -450.2522 2449.8437 -450.2522 C 2452.8657 -450.2522 2455.3155 -447.7794 2455.3155 -444.72904 C 2455.3105 -441.68227 2452.862 -439.21506 2449.8437 -439.21507 Z" stroke="#1a1a1a" stroke-linecap="round" stroke-linejoin="round" stroke-width="2"/>
        </g>
        <g id="Graphic_497">
          <rect x="2468.571" y="-345.09273" width="15.033663" height="17.151761" fill="white"/>
          <rect x="2468.571" y="-345.09273" width="15.033663" height="17.151761" stroke="#1a1a1a" stroke-linecap="round" stroke-linejoin="round" stroke-width="2"/>
        </g>
        <g id="Graphic_496">
          <path d="M 2478.5296 -333.52398 C 2478.5403 -334.03675 2478.3368 -334.5304 2477.9688 -334.88406 C 2477.595 -335.25534 2476.964 -335.58903 2476.0765 -335.88513 C 2474.8407 -336.26715 2473.9394 -336.76424 2473.3725 -337.3764 C 2472.7977 -338.01106 2472.493 -338.84833 2472.5244 -339.70763 C 2472.491 -340.57405 2472.789 -341.42026 2473.3565 -342.0711 C 2473.9566 -342.70803 2474.7684 -343.09894 2475.6364 -343.16882 L 2475.6364 -345.09273 L 2476.9337 -345.09273 L 2476.9337 -343.1596 C 2477.8272 -343.07157 2478.6484 -342.6256 2479.2136 -341.9215 C 2479.7562 -341.2311 2480.0275 -340.28526 2480.0275 -339.08397 L 2478.4316 -339.08397 C 2478.4316 -339.91245 2478.2378 -340.57063 2477.8502 -341.0585 C 2477.4706 -341.54193 2476.8855 -341.81374 2476.2748 -341.79033 C 2475.5908 -341.79033 2475.055 -341.60853 2474.679 -341.2495 C 2474.2957 -340.84532 2474.0966 -340.2983 2474.1294 -339.73985 C 2474.105 -339.20005 2474.3167 -338.67666 2474.7085 -338.30843 C 2475.0946 -337.95402 2475.73 -337.63184 2476.6145 -337.34187 C 2477.3469 -337.12265 2478.0446 -336.79954 2478.687 -336.38222 C 2479.1465 -336.07414 2479.5233 -335.65587 2479.7836 -335.16482 C 2480.0277 -334.6594 2480.148 -334.1022 2480.1347 -333.5401 C 2480.1744 -332.6559 2479.856 -331.79344 2479.2524 -331.1513 C 2478.664 -330.54837 2477.8388 -330.1909 2476.7764 -330.0789 L 2476.7764 -328.40123 L 2475.4882 -328.40123 L 2475.4882 -330.0789 C 2474.4076 -330.17785 2473.564 -330.56678 2472.9507 -331.24337 C 2472.3374 -331.91996 2472.0388 -332.8382 2472.0388 -334.00495 L 2473.6506 -334.00495 C 2473.6506 -333.1903 2473.8604 -332.56433 2474.2845 -332.12477 C 2474.7085 -331.68522 2475.308 -331.4643 2476.0856 -331.4643 C 2476.863 -331.4643 2477.4535 -331.6507 2477.88 -332.0189 C 2478.3152 -332.39234 2478.555 -332.9479 2478.5296 -333.52398 Z" fill="white"/>
          <path d="M 2478.5296 -333.52398 C 2478.5403 -334.03675 2478.3368 -334.5304 2477.9688 -334.88406 C 2477.595 -335.25534 2476.964 -335.58903 2476.0765 -335.88513 C 2474.8407 -336.26715 2473.9394 -336.76424 2473.3725 -337.3764 C 2472.7977 -338.01106 2472.493 -338.84833 2472.5244 -339.70763 C 2472.491 -340.57405 2472.789 -341.42026 2473.3565 -342.0711 C 2473.9566 -342.70803 2474.7684 -343.09894 2475.6364 -343.16882 L 2475.6364 -345.09273 L 2476.9337 -345.09273 L 2476.9337 -343.1596 C 2477.8272 -343.07157 2478.6484 -342.6256 2479.2136 -341.9215 C 2479.7562 -341.2311 2480.0275 -340.28526 2480.0275 -339.08397 L 2478.4316 -339.08397 C 2478.4316 -339.91245 2478.2378 -340.57063 2477.8502 -341.0585 C 2477.4706 -341.54193 2476.8855 -341.81374 2476.2748 -341.79033 C 2475.5908 -341.79033 2475.055 -341.60853 2474.679 -341.2495 C 2474.2957 -340.84532 2474.0966 -340.2983 2474.1294 -339.73985 C 2474.105 -339.20005 2474.3167 -338.67666 2474.7085 -338.30843 C 2475.0946 -337.95402 2475.73 -337.63184 2476.6145 -337.34187 C 2477.3469 -337.12265 2478.0446 -336.79954 2478.687 -336.38222 C 2479.1465 -336.07414 2479.5233 -335.65587 2479.7836 -335.16482 C 2480.0277 -334.6594 2480.148 -334.1022 2480.1347 -333.5401 C 2480.1744 -332.6559 2479.856 -331.79344 2479.2524 -331.1513 C 2478.664 -330.54837 2477.8388 -330.1909 2476.7764 -330.0789 L 2476.7764 -328.40123 L 2475.4882 -328.40123 L 2475.4882 -330.0789 C 2474.4076 -330.17785 2473.564 -330.56678 2472.9507 -331.24337 C 2472.3374 -331.91996 2472.0388 -332.8382 2472.0388 -334.00495 L 2473.6506 -334.00495 C 2473.6506 -333.1903 2473.8604 -332.56433 2474.2845 -332.12477 C 2474.7085 -331.68522 2475.308 -331.4643 2476.0856 -331.4643 C 2476.863 -331.4643 2477.4535 -331.6507 2477.88 -332.0189 C 2478.3152 -332.39234 2478.555 -332.9479 2478.5296 -333.52398 Z" stroke="#1a1a1a" stroke-linecap="round" stroke-linejoin="round" stroke-width="3"/>
        </g>
        <g id="Graphic_495">
          <rect x="2464.6564" y="-327.77757" width="33.19307" height="3.903044" fill="#1a1a1a"/>
        </g>
        <g id="Graphic_494">
          <path d="M 2208.4526 -238.9511 L 2236.8306 -238.9511 L 2231.4682 -245.9218 Z" fill="white"/>
          <path d="M 2208.4526 -238.9511 L 2236.8306 -238.9511 L 2231.4682 -245.9218 Z" stroke="#1a1a1a" stroke-linecap="round" stroke-linejoin="round" stroke-width="3"/>
        </g>
        <g id="Graphic_493">
          <path d="M 2209.0386 -239.8256 L 2230.0045 -246.62602 L 2225.292 -252.94775 Z" fill="white"/>
          <path d="M 2209.0386 -239.8256 L 2230.0045 -246.62602 L 2225.292 -252.94775 Z" stroke="#1a1a1a" stroke-linecap="round" stroke-linejoin="round" stroke-width="3"/>
        </g>
        <g id="Graphic_881">
          <ellipse cx="2489.6225" cy="-386.02406" rx="11.2148533982631" ry="11.3202321873264" fill="#1a1a1a"/>
        </g>
        <g id="Graphic_880">
          <rect x="2461.6686" y="-381.4306" width="24.540847" height="20.670484" fill="white"/>
          <rect x="2461.6686" y="-381.4306" width="24.540847" height="20.670484" stroke="#1a1a1a" stroke-linecap="round" stroke-linejoin="round" stroke-width="2"/>
        </g>
        <g id="Graphic_883">
          <ellipse cx="2222.6416" cy="-312.7407" rx="14.8969002041577" ry="15.0368768269956" stroke="#1a1a1a" stroke-linecap="round" stroke-linejoin="round" stroke-width="2"/>
        </g>
        <g id="Graphic_882">
          <path d="M 2221.1528 -309.84565 C 2221.1242 -310.614 2221.2402 -311.38087 2221.4948 -312.10555 C 2221.782 -312.7454 2222.2082 -313.31174 2222.742 -313.7625 C 2223.2045 -314.1447 2223.6113 -314.59097 2223.9503 -315.08806 C 2224.146 -315.41344 2224.2502 -315.78665 2224.2512 -316.1674 C 2224.2512 -317.3119 2223.7299 -317.8834 2222.6872 -317.88187 C 2222.2452 -317.9013 2221.815 -317.7346 2221.4994 -317.4216 C 2221.19 -317.07293 2221.0265 -316.61676 2221.0434 -316.14897 L 2218.1342 -316.14897 C 2218.148 -317.4377 2218.5613 -318.44723 2219.3745 -319.1775 C 2220.1877 -319.9078 2221.295 -320.27218 2222.6963 -320.27064 C 2224.1144 -320.27064 2225.214 -319.92468 2225.9953 -319.23275 C 2226.7766 -318.5408 2227.1672 -317.56352 2227.1672 -316.30086 C 2227.1702 -315.7364 2227.0397 -315.1794 2226.7864 -314.67613 C 2226.437 -314.0401 2225.9864 -313.4663 2225.4527 -312.97775 L 2224.641 -312.1999 C 2224.154 -311.7467 2223.8447 -311.1315 2223.7701 -310.467 L 2223.729 -309.84795 Z M 2220.8633 -306.74577 C 2220.8515 -307.1656 2221.0173 -307.57062 2221.3192 -307.8596 C 2221.99 -308.44576 2222.9854 -308.44576 2223.6561 -307.8596 C 2224.2583 -307.24682 2224.2583 -306.25852 2223.6561 -305.64573 C 2222.9763 -305.06557 2221.9809 -305.06557 2221.301 -305.64573 C 2221.0074 -305.93336 2220.8484 -306.3331 2220.8633 -306.74577 Z" fill="black"/>
        </g>
      </g>
    </g>
  </g>
</svg>
