<?xml version="1.0" encoding="UTF-8" standalone="no"?>
<!DOCTYPE svg PUBLIC "-//W3C//DTD SVG 1.1//EN" "http://www.w3.org/Graphics/SVG/1.1/DTD/svg11.dtd">
<svg version="1.1" xmlns:xl="http://www.w3.org/1999/xlink" xmlns:dc="http://purl.org/dc/elements/1.1/" xmlns="http://www.w3.org/2000/svg" viewBox="2177 233.81818 428.582 256.5682" width="428.582" height="256.5682">
  <defs/>
  <g id="Canvas_1" fill="none" stroke="none" stroke-opacity="1" fill-opacity="1" stroke-dasharray="none">
    <title>Canvas 1</title>
    <g id="Canvas_1_Layer_1">
      <title>Layer 1</title>
      <g id="Group_893">
        <g id="Graphic_890">
          <title>贝塞尔曲面</title>
          <path d="M 2512.2437 248.79484 C 2496.9707 242.36107 2472.8228 235.9787 2464.9283 235.32762 C 2389.234 229.08233 2156.669 236.6555 2178.4305 368.20073 C 2197.4573 483.3146 2265.0054 489.1058 2265.0054 489.1058 C 2265.0054 489.1058 2426.0558 490.5347 2538.3652 490.37374 C 2601.1443 490.2802 2626.314 433.91766 2586.2094 398.84464 C 2585.4354 398.16785 2584.6486 397.49107 2583.8488 396.8057 C 2569.4272 384.52073 2548.7364 359.75373 2552.1805 343.86208 C 2557.8434 317.7415 2591.0983 282.02596 2512.2437 248.79484 Z" fill="#dadada"/>
        </g>
        <g id="Group_892">
          <g id="Graphic_810">
            <path d="M 2268.5227 451.75847 C 2262.214 444.55025 2260.4856 434.7632 2264.1907 427.0759 C 2269.0996 416.8792 2282.969 411.59614 2295.7236 416.75606 C 2295.8764 416.3464 2297.534 412.0864 2301.3576 411.22454 C 2305.3864 410.31567 2310.4777 413.48326 2311.8686 419.20283 L 2311.8686 451.75847 Z" stroke="#1a1a1a" stroke-linecap="round" stroke-linejoin="round" stroke-width="2"/>
          </g>
          <g id="Graphic_809">
            <rect x="2497.8787" y="413.59295" width="21.455167" height="38.140895" fill="white"/>
            <rect x="2497.8787" y="413.59295" width="21.455167" height="38.140895" stroke="#1a1a1a" stroke-linecap="round" stroke-linejoin="round" stroke-width="2"/>
          </g>
          <g id="Graphic_808">
            <rect x="2478.9156" y="407.52864" width="21.455167" height="44.205203" fill="white"/>
            <rect x="2478.9156" y="407.52864" width="21.455167" height="44.205203" stroke="#1a1a1a" stroke-linecap="round" stroke-linejoin="round" stroke-width="2"/>
          </g>
          <g id="Graphic_807">
            <rect x="2460.8737" y="372.74114" width="21.455167" height="78.99271" fill="white"/>
            <rect x="2460.8737" y="372.74114" width="21.455167" height="78.99271" stroke="#1a1a1a" stroke-linecap="round" stroke-linejoin="round" stroke-width="2"/>
          </g>
          <g id="Graphic_806">
            <path d="M 2412.4388 314.01428 L 2428.3672 344.33582 L 2399.9146 344.28433 C 2399.9146 344.28433 2395.8606 327.101 2396.0225 326.62195 C 2396.1844 326.1429 2412.4388 314.01428 2412.4388 314.01428 Z" fill="white"/>
            <path d="M 2412.4388 314.01428 L 2428.3672 344.33582 L 2399.9146 344.28433 C 2399.9146 344.28433 2395.8606 327.101 2396.0225 326.62195 C 2396.1844 326.1429 2412.4388 314.01428 2412.4388 314.01428 Z" stroke="#1a1a1a" stroke-linecap="round" stroke-linejoin="round" stroke-width="2"/>
          </g>
          <g id="Graphic_805">
            <path d="M 2261.1696 474.81135 L 2519.384 474.81135 C 2523.4402 474.81135 2526.728 469.7208 2526.728 463.43937 C 2526.728 457.1579 2523.4402 452.0674 2519.384 452.0674 L 2261.1696 452.0674 C 2257.1134 452.0674 2253.8256 457.1579 2253.8256 463.43937 C 2253.8256 469.7208 2257.1225 474.81135 2261.1696 474.81135 Z" stroke="#1a1a1a" stroke-linecap="round" stroke-linejoin="round" stroke-width="3"/>
          </g>
          <g id="Graphic_804">
            <path d="M 2335.394 318.88543 C 2330.745 314.9142 2324.7553 310.45494 2324.9058 303.8019 C 2325.2957 298.6666 2327.9018 297.81593 2331.8622 295.82807 C 2334.5983 292.81942 2330.7382 289.3765 2328.7865 287.0618 C 2326.641 284.20313 2326.1302 280.47814 2326.0618 276.92776 C 2325.7198 271.90215 2327.578 266.43106 2333.358 266.04155 C 2334.742 264.02683 2331.99 262.28522 2336.1327 257.53495 C 2340.0635 253.10033 2348.5316 248.68585 2353.851 252.9772 C 2353.851 252.9772 2360.2647 246.18984 2367.741 251.29604 C 2375.2172 256.40223 2375.6504 264.48798 2380.5274 264.2798 C 2385.4044 264.0716 2388.0036 269.0681 2384.969 272.473 C 2381.9342 275.87786 2379.335 275.7704 2379.1183 278.0045 C 2378.9017 280.2386 2373.1583 279.60062 2371.642 278.42984 C 2370.1258 277.25907 2356.3156 312.15626 2355.5815 312.26147 C 2354.8473 312.3667 2335.394 318.88543 2335.394 318.88543 Z" fill="#25383f"/>
            <path d="M 2335.394 318.88543 C 2330.745 314.9142 2324.7553 310.45494 2324.9058 303.8019 C 2325.2957 298.6666 2327.9018 297.81593 2331.8622 295.82807 C 2334.5983 292.81942 2330.7382 289.3765 2328.7865 287.0618 C 2326.641 284.20313 2326.1302 280.47814 2326.0618 276.92776 C 2325.7198 271.90215 2327.578 266.43106 2333.358 266.04155 C 2334.742 264.02683 2331.99 262.28522 2336.1327 257.53495 C 2340.0635 253.10033 2348.5316 248.68585 2353.851 252.9772 C 2353.851 252.9772 2360.2647 246.18984 2367.741 251.29604 C 2375.2172 256.40223 2375.6504 264.48798 2380.5274 264.2798 C 2385.4044 264.0716 2388.0036 269.0681 2384.969 272.473 C 2381.9342 275.87786 2379.335 275.7704 2379.1183 278.0045 C 2378.9017 280.2386 2373.1583 279.60062 2371.642 278.42984 C 2370.1258 277.25907 2356.3156 312.15626 2355.5815 312.26147 C 2354.8473 312.3667 2335.394 318.88543 2335.394 318.88543 Z" stroke="#1a1a1a" stroke-linecap="round" stroke-linejoin="round" stroke-width="1"/>
          </g>
          <g id="Graphic_803">
            <path d="M 2332.8768 317.45945 C 2332.8768 317.45945 2366.6625 293.1149 2387.7688 297.73758 C 2408.875 302.36024 2414.395 315.13133 2414.395 315.13133 L 2400.0924 335.72625 L 2401.718 344.34478 L 2336.3767 342.48004 Z" fill="#ff6d24"/>
            <path d="M 2332.8768 317.45945 C 2332.8768 317.45945 2366.6625 293.1149 2387.7688 297.73758 C 2408.875 302.36024 2414.395 315.13133 2414.395 315.13133 L 2400.0924 335.72625 L 2401.718 344.34478 L 2336.3767 342.48004 Z" stroke="#1a1a1a" stroke-linecap="round" stroke-linejoin="round" stroke-width="2"/>
          </g>
          <g id="Graphic_802">
            <path d="M 2366.9976 292.55303 L 2367.579 297.1533 C 2368.3907 303.58922 2377.0047 305.07788 2377.0868 306.22627 C 2377.0868 307.37242 2374.1615 317.7639 2360.8324 320.23753 C 2347.5033 322.71116 2341.484 315.9305 2343.9282 314.81345 C 2352.2184 310.4236 2351.8924 293.58725 2351.8924 293.58725 C 2351.8924 293.58725 2344.986 290.6368 2344.0103 282.8958 C 2338.3102 281.93993 2337.1018 275.5555 2341.4908 273.16247 C 2342.5608 272.59448 2343.812 272.45183 2344.986 272.764 C 2344.986 272.764 2348.967 271.8059 2348.723 265.26253 C 2359.7767 267.1765 2364.4896 268.2152 2369.6995 265.26253 C 2374.2596 271.40742 2381.159 294.30584 2356.3726 293.98796" fill="white"/>
            <path d="M 2366.9976 292.55303 L 2367.579 297.1533 C 2368.3907 303.58922 2377.0047 305.07788 2377.0868 306.22627 C 2377.0868 307.37242 2374.1615 317.7639 2360.8324 320.23753 C 2347.5033 322.71116 2341.484 315.9305 2343.9282 314.81345 C 2352.2184 310.4236 2351.8924 293.58725 2351.8924 293.58725 C 2351.8924 293.58725 2344.986 290.6368 2344.0103 282.8958 C 2338.3102 281.93993 2337.1018 275.5555 2341.4908 273.16247 C 2342.5608 272.59448 2343.812 272.45183 2344.986 272.764 C 2344.986 272.764 2348.967 271.8059 2348.723 265.26253 C 2359.7767 267.1765 2364.4896 268.2152 2369.6995 265.26253 C 2374.2596 271.40742 2381.159 294.30584 2356.3726 293.98796" stroke="#1a1a1a" stroke-linecap="round" stroke-linejoin="round" stroke-width="2"/>
          </g>
          <g id="Graphic_801">
            <rect x="2306.3007" y="342.4711" width="158.31223" height="109.26276" fill="white"/>
            <rect x="2306.3007" y="342.4711" width="158.31223" height="109.26276" stroke="#1a1a1a" stroke-linecap="round" stroke-linejoin="round" stroke-width="2"/>
          </g>
          <g id="Graphic_800">
            <path d="M 2345.6656 342.4711 L 2350.2143 342.4711 C 2350.2143 342.4711 2336.99 358.26425 2336.452 366.13733 C 2335.9139 374.0104 2336.73 380.12173 2344.888 381.6932 C 2338.1916 384.64814 2331.0414 379.32927 2330.3916 377.41305 C 2329.7418 375.49683 2333.2006 349.30323 2334.0693 348.513 C 2334.938 347.7228 2345.6656 342.4711 2345.6656 342.4711 Z" fill="#1a1a1a"/>
          </g>
          <g id="Graphic_799">
            <rect x="2319.4132" y="414.3921" width="7.259644" height="5.5315266" fill="white"/>
            <rect x="2319.4132" y="414.3921" width="7.259644" height="5.5315266" stroke="#1a1a1a" stroke-linecap="round" stroke-linejoin="round" stroke-width="2"/>
          </g>
          <g id="Graphic_798">
            <rect x="2319.4132" y="425.88275" width="7.259644" height="5.5315266" fill="white"/>
            <rect x="2319.4132" y="425.88275" width="7.259644" height="5.5315266" stroke="#1a1a1a" stroke-linecap="round" stroke-linejoin="round" stroke-width="2"/>
          </g>
          <g id="Graphic_797">
            <rect x="2319.4132" y="437.37113" width="7.259644" height="5.5315266" fill="white"/>
            <rect x="2319.4132" y="437.37113" width="7.259644" height="5.5315266" stroke="#1a1a1a" stroke-linecap="round" stroke-linejoin="round" stroke-width="2"/>
          </g>
          <g id="Graphic_796">
            <rect x="2336.3151" y="415.98823" width="24.827345" height="2.3415527" fill="white"/>
            <rect x="2336.3151" y="415.98823" width="24.827345" height="2.3415527" stroke="#1a1a1a" stroke-linecap="round" stroke-linejoin="round" stroke-width="2"/>
          </g>
          <g id="Graphic_795">
            <rect x="2336.3151" y="427.4766" width="24.827345" height="2.3415527" fill="white"/>
            <rect x="2336.3151" y="427.4766" width="24.827345" height="2.3415527" stroke="#1a1a1a" stroke-linecap="round" stroke-linejoin="round" stroke-width="2"/>
          </g>
          <g id="Graphic_794">
            <rect x="2336.3151" y="438.42774" width="24.827345" height="2.4557202" fill="white"/>
            <rect x="2336.3151" y="438.42774" width="24.827345" height="2.4557202" stroke="#1a1a1a" stroke-linecap="round" stroke-linejoin="round" stroke-width="2"/>
          </g>
          <g id="Graphic_793">
            <rect x="2402.1992" y="394.2852" width="13.003063" height="14.0426" fill="white"/>
            <rect x="2402.1992" y="394.2852" width="13.003063" height="14.0426" stroke="#1a1a1a" stroke-linecap="round" stroke-linejoin="round" stroke-width="2"/>
          </g>
          <g id="Graphic_792">
            <rect x="2422.047" y="394.2852" width="11.033109" height="14.0426" fill="white"/>
            <rect x="2422.047" y="394.2852" width="11.033109" height="14.0426" stroke="#1a1a1a" stroke-linecap="round" stroke-linejoin="round" stroke-width="2"/>
          </g>
          <g id="Graphic_791">
            <rect x="2439.4185" y="394.2852" width="11.053629" height="14.0426" fill="white"/>
            <rect x="2439.4185" y="394.2852" width="11.053629" height="14.0426" stroke="#1a1a1a" stroke-linecap="round" stroke-linejoin="round" stroke-width="2"/>
          </g>
          <g id="Graphic_790">
            <rect x="2381.7198" y="417.15677" width="68.7523" height="30.108876" fill="white"/>
            <rect x="2381.7198" y="417.15677" width="68.7523" height="30.108876" stroke="#1a1a1a" stroke-linecap="round" stroke-linejoin="round" stroke-width="2"/>
          </g>
          <g id="Graphic_789">
            <rect x="2403.355" y="349.92107" width="42.892095" height="35.427738" fill="white"/>
            <rect x="2403.355" y="349.92107" width="42.892095" height="35.427738" stroke="#1a1a1a" stroke-linecap="round" stroke-linejoin="round" stroke-width="2"/>
          </g>
          <g id="Graphic_788">
            <path d="M 2403.355 349.92107 C 2403.355 350.49863 2446.2472 385.3488 2446.2472 385.3488" stroke="#1a1a1a" stroke-linecap="round" stroke-linejoin="round" stroke-width="1"/>
          </g>
          <g id="Line_787">
            <line x1="2403.355" y1="385.3488" x2="2446.22" y2="350.39117" stroke="#1a1a1a" stroke-linecap="round" stroke-linejoin="round" stroke-width="1"/>
          </g>
          <g id="Graphic_786">
            <ellipse cx="2286.7973" cy="439.39257" rx="12.1366733405073" ry="11.9159764937439" fill="white"/>
            <ellipse cx="2286.7973" cy="439.39257" rx="12.1366733405073" ry="11.9159764937439" stroke="#1a1a1a" stroke-linecap="round" stroke-linejoin="round" stroke-width="2"/>
          </g>
          <g id="Graphic_785">
            <ellipse cx="2269.8087" cy="378.5659" rx="11.2155356306511" ry="11.0115890236194" fill="#1a1a1a"/>
          </g>
          <g id="Graphic_784">
            <path d="M 2338.9167 353.33267 C 2338.3239 354.4609 2337.7827 355.54886 2337.2933 356.5965 C 2319.11 360.78265 2312.2607 353.0282 2309.8895 348.51972 C 2317.279 333.14293 2327.268 320.96283 2327.268 320.96283 C 2329.092 318.69067 2336.7484 313.43673 2344.5506 320.77702 C 2352.353 328.11732 2351.377 335.02557 2338.9167 353.33267 Z" fill="#ff6d24"/>
            <path d="M 2338.9167 353.33267 C 2338.3239 354.4609 2337.7827 355.54886 2337.2933 356.5965 C 2319.11 360.78265 2312.2607 353.0282 2309.8895 348.51972 C 2317.279 333.14293 2327.268 320.96283 2327.268 320.96283 C 2329.092 318.69067 2336.7484 313.43673 2344.5506 320.77702 C 2352.353 328.11732 2351.377 335.02557 2338.9167 353.33267 Z" stroke="#1a1a1a" stroke-linecap="round" stroke-linejoin="round" stroke-width="2"/>
          </g>
          <g id="Graphic_783">
            <path d="M 2325.38 403.99393 C 2325.38 403.99393 2345.1207 407.84204 2360.6158 396.0313 C 2371.788 386.73225 2372.8596 384.5944 2372.8596 384.5944 L 2375.3517 383.1595 C 2375.3517 383.1595 2377.032 384.43547 2379.8502 384.91453 C 2382.6683 385.3936 2383.8038 383.9564 2383.8038 383.9564 C 2383.8038 383.9564 2375.7872 379.7031 2375.2993 379.59567 C 2374.8113 379.4882 2349.617 389.0626 2349.129 389.54167 C 2348.641 390.02072 2332.1723 401.56507 2332.1723 401.56507 Z" fill="#1a1a1a"/>
          </g>
          <g id="Graphic_782">
            <path d="M 2402.8467 372.66055 C 2400.2474 374.97524 2389.7638 370.34586 2389.7638 370.34586 C 2389.7638 370.34586 2393.184 382.55507 2388.9498 384.86976 C 2384.7158 387.18445 2375.541 381.5119 2375.541 381.5119 L 2372.9417 382.9468 C 2361.2383 398.58552 2319.607 417.25974 2305.3249 391.0863 C 2298.0128 377.6817 2303.2591 362.2892 2309.885 348.5063 C 2312.2562 353.0148 2319.1054 360.76922 2337.2887 356.5831 C 2322.2815 388.644 2354.307 383.8042 2366.1905 375.84605 C 2378.4662 367.63494 2385.8627 364.52556 2394.723 366.988 C 2397.6528 367.81403 2405.4482 370.34586 2402.8467 372.66055 Z" fill="white"/>
            <path d="M 2402.8467 372.66055 C 2400.2474 374.97524 2389.7638 370.34586 2389.7638 370.34586 C 2389.7638 370.34586 2393.184 382.55507 2388.9498 384.86976 C 2384.7158 387.18445 2375.541 381.5119 2375.541 381.5119 L 2372.9417 382.9468 C 2361.2383 398.58552 2319.607 417.25974 2305.3249 391.0863 C 2298.0128 377.6817 2303.2591 362.2892 2309.885 348.5063 C 2312.2562 353.0148 2319.1054 360.76922 2337.2887 356.5831 C 2322.2815 388.644 2354.307 383.8042 2366.1905 375.84605 C 2378.4662 367.63494 2385.8627 364.52556 2394.723 366.988 C 2397.6528 367.81403 2405.4482 370.34586 2402.8467 372.66055 Z" stroke="#1a1a1a" stroke-linecap="round" stroke-linejoin="round" stroke-width="2"/>
          </g>
          <g id="Graphic_781">
            <path d="M 2428.935 335.6479 C 2428.935 335.6479 2419.2652 341.23315 2422.8403 344.74324 C 2426.4154 348.25333 2429.694 342.9524 2432.5396 344.07167 C 2435.385 345.19096 2429.4228 352.31635 2432.348 353.67293 C 2435.2734 355.0295 2445.4333 352.1574 2447.5469 351.5194 C 2449.6604 350.88142 2453.801 344.8171 2450.055 336.59706 C 2445.6818 326.93983 2428.935 335.6479 2428.935 335.6479 Z" fill="white"/>
            <path d="M 2428.935 335.6479 C 2428.935 335.6479 2419.2652 341.23315 2422.8403 344.74324 C 2426.4154 348.25333 2429.694 342.9524 2432.5396 344.07167 C 2435.385 345.19096 2429.4228 352.31635 2432.348 353.67293 C 2435.2734 355.0295 2445.4333 352.1574 2447.5469 351.5194 C 2449.6604 350.88142 2453.801 344.8171 2450.055 336.59706 C 2445.6818 326.93983 2428.935 335.6479 2428.935 335.6479 Z" stroke="#1a1a1a" stroke-linecap="round" stroke-linejoin="round" stroke-width="2"/>
          </g>
          <g id="Graphic_780">
            <rect x="2241.853" y="383.0341" width="24.54234" height="20.10691" fill="white"/>
            <rect x="2241.853" y="383.0341" width="24.54234" height="20.10691" stroke="#1a1a1a" stroke-linecap="round" stroke-linejoin="round" stroke-width="2"/>
          </g>
          <g id="Graphic_779">
            <path d="M 2464.613 372.74114 L 2466.6445 372.74114 L 2469.7316 381.7223 L 2469.7316 451.73385 L 2464.613 451.73385 Z" fill="#1a1a1a"/>
          </g>
          <g id="Graphic_778">
            <path d="M 2482.3288 407.5309 L 2483.8246 407.5309 L 2486.0955 412.62812 L 2486.0955 452.37184 L 2482.3288 452.37184 Z" fill="#1a1a1a"/>
          </g>
          <g id="Graphic_777">
            <path d="M 2500.3708 413.59295 L 2501.8642 413.59295 L 2504.1374 418.00295 L 2504.1374 452.37184 L 2500.3708 452.37184 Z" fill="#1a1a1a"/>
          </g>
          <g id="Line_776">
            <line x1="2402.1992" y1="394.2852" x2="2415.2022" y2="408.3278" stroke="#1a1a1a" stroke-linecap="round" stroke-linejoin="round" stroke-width="1"/>
          </g>
          <g id="Line_775">
            <line x1="2415.2022" y1="394.2852" x2="2402.1992" y2="408.3278" stroke="#1a1a1a" stroke-linecap="round" stroke-linejoin="round" stroke-width="1"/>
          </g>
          <g id="Line_774">
            <line x1="2433.08" y1="394.2852" x2="2422.047" y2="408.3278" stroke="#1a1a1a" stroke-linecap="round" stroke-linejoin="round" stroke-width="1"/>
          </g>
          <g id="Line_773">
            <line x1="2422.047" y1="394.2852" x2="2433.08" y2="408.3278" stroke="#1a1a1a" stroke-linecap="round" stroke-linejoin="round" stroke-width="1"/>
          </g>
          <g id="Line_772">
            <line x1="2450.463" y1="394.2852" x2="2439.43" y2="408.3278" stroke="#1a1a1a" stroke-linecap="round" stroke-linejoin="round" stroke-width="1"/>
          </g>
          <g id="Line_771">
            <line x1="2439.43" y1="394.2852" x2="2450.463" y2="408.3278" stroke="#1a1a1a" stroke-linecap="round" stroke-linejoin="round" stroke-width="1"/>
          </g>
          <g id="Line_770">
            <path d="M 2381.7176 417.159 L 2415.2022 447.26564 L 2415.2022 417.159 L 2381.7176 447.26564" stroke="#1a1a1a" stroke-linecap="round" stroke-linejoin="round" stroke-width="1"/>
          </g>
          <g id="Line_769">
            <line x1="2450.472" y1="417.15677" x2="2415.2022" y2="447.26564" stroke="#1a1a1a" stroke-linecap="round" stroke-linejoin="round" stroke-width="1"/>
          </g>
          <g id="Line_768">
            <line x1="2450.472" y1="447.26564" x2="2415.2022" y2="417.15677" stroke="#1a1a1a" stroke-linecap="round" stroke-linejoin="round" stroke-width="1"/>
          </g>
          <g id="Graphic_767">
            <path d="M 2358.3722 293.9611 C 2358.3722 293.9611 2364.916 295.3893 2367.0706 294.3327 L 2366.8677 292.35604 C 2364.9296 293.25594 2361.9815 293.88722 2358.3722 293.9611 Z" fill="#1a1a1a"/>
          </g>
          <g id="Graphic_766">
            <path d="M 2384.2393 342.4711 L 2401.0546 340.8526 L 2401.36 342.4711 Z" fill="#1a1a1a"/>
          </g>
          <g id="Graphic_765">
            <path d="M 2369.1226 322.35746 C 2372.9827 328.7016 2373.2563 334.06746 2372.8596 334.32714" stroke="#1a1a1a" stroke-linecap="round" stroke-linejoin="round" stroke-width="2"/>
          </g>
          <g id="Graphic_764">
            <ellipse cx="2504.4224" cy="323.23274" rx="14.8978064262403" ry="14.6269003212706" stroke="#1a1a1a" stroke-linecap="round" stroke-linejoin="round" stroke-width="2"/>
          </g>
          <g id="Graphic_763">
            <path d="M 2502.9336 326.04888 C 2502.905 325.30147 2503.021 324.5555 2503.2756 323.8506 C 2503.5627 323.2282 2503.989 322.6773 2504.5227 322.2388 C 2504.9854 321.86703 2505.3922 321.43293 2505.7312 320.9494 C 2505.927 320.6329 2506.031 320.26985 2506.032 319.8995 C 2506.032 318.7862 2505.5108 318.23027 2504.468 318.23176 C 2504.026 318.21288 2503.5958 318.37502 2503.28 318.67948 C 2502.9707 319.01865 2502.8072 319.46238 2502.824 319.9174 L 2499.9148 319.9174 C 2499.9285 318.6638 2500.342 317.6818 2501.155 316.97144 C 2501.9683 316.26107 2503.0757 315.90662 2504.477 315.9081 C 2505.8953 315.9081 2506.995 316.24465 2507.7764 316.9177 C 2508.5577 317.5908 2508.9483 318.54143 2508.9483 319.76966 C 2508.9513 320.31872 2508.8208 320.86055 2508.5675 321.3501 C 2508.218 321.9688 2507.7675 322.52693 2507.2337 323.00217 L 2506.422 323.7588 C 2505.9348 324.19966 2505.6256 324.79807 2505.551 325.44446 L 2505.51 326.04664 Z M 2502.644 329.06424 C 2502.6322 328.65586 2502.798 328.26187 2503.1 327.98077 C 2503.7708 327.4106 2504.7663 327.4106 2505.437 327.98077 C 2506.0393 328.57685 2506.0393 329.5382 2505.437 330.1343 C 2504.7572 330.69863 2503.7616 330.69863 2503.0818 330.1343 C 2502.7882 329.8545 2502.629 329.46567 2502.644 329.06424 Z" fill="black"/>
          </g>
          <g id="Graphic_762">
            <path d="M 2273.9515 323.13425 C 2270.9875 323.8618 2268.0234 323.376 2265.2988 322.40447 C 2260.602 321.19116 2255.6565 320.9494 2250.7065 322.1627 C 2248.883 322.5676 2247.1279 323.22643 2245.4943 324.11922 L 2245.4943 332.29003 L 2286.731 332.29003 L 2286.731 319.27046 C 2284.531 319.36896 2282.333 319.51447 2280.1327 319.7361 C 2277.6611 319.97785 2275.9306 322.40447 2273.9515 323.13425 Z" stroke="#1a1a1a" stroke-linecap="round" stroke-linejoin="round" stroke-width="2"/>
          </g>
          <g id="Graphic_761">
            <path d="M 2245.4943 305.4741 L 2245.4943 324.11922 C 2247.1314 323.22543 2248.8905 322.56657 2250.718 322.1627 C 2255.6633 320.9494 2260.6087 321.19116 2265.3102 322.40447 C 2268.0303 323.376 2270.9966 323.8618 2273.963 323.13425 C 2275.942 322.40447 2277.6725 319.97785 2280.144 319.7361 C 2282.3443 319.51223 2284.5423 319.36896 2286.7425 319.27046 L 2286.7425 305.4741 Z" stroke="#1a1a1a" stroke-linecap="round" stroke-linejoin="round" stroke-width="2"/>
          </g>
          <g id="Graphic_760">
            <ellipse cx="2261.4387" cy="314.29858" rx="3.78943285589418" ry="3.7205246914527" fill="#1a1a1a"/>
          </g>
          <g id="Graphic_759">
            <rect x="2452.6906" y="258.85795" width="36.621987" height="25.86677" fill="white"/>
            <rect x="2452.6906" y="258.85795" width="36.621987" height="25.86677" stroke="#1a1a1a" stroke-linecap="round" stroke-linejoin="round" stroke-width="2"/>
          </g>
          <g id="Graphic_758">
            <path d="M 2475.0646 269.5494 L 2469.5766 266.43778 C 2468.7612 265.97608 2467.757 265.97596 2466.9414 266.43747 C 2466.126 266.89897 2465.6226 267.75217 2465.6207 268.67636 L 2465.6207 274.8996 C 2465.6212 275.82438 2466.1242 276.67863 2466.9403 277.14043 C 2467.7563 277.60223 2468.7613 277.60137 2469.5766 277.13818 L 2475.0646 274.02656 C 2475.8776 273.56364 2476.378 272.7107 2476.378 271.78798 C 2476.378 270.86525 2475.8776 270.01232 2475.0646 269.5494 Z" fill="black"/>
          </g>
        </g>
      </g>
    </g>
  </g>
</svg>
