<svg xmlns="http://www.w3.org/2000/svg" data-name="Layer 1" width="751.155" height="558.147" viewBox="0 0 751.155 558.147" class="featureSvg__8YW" alt="Online illustrations by Storyset"><path d="M641.235 553.957c7.97-18.67 13.59-38.99 10.93-59.1a65.244 65.244 0 0 0-5.88-19.65 59.558 59.558 0 0 0-9.22-13.93 8.35 8.35 0 0 0-10.57-1.7c-.26.15-.52.31-.76.48a8.751 8.751 0 0 0-2.97 3.63 6.283 6.283 0 0 0-.31.86 8.938 8.938 0 0 0-.29 3.79 95.57 95.57 0 0 1-.9 31.11q-.765 3.915-1.87 7.76a77.513 77.513 0 0 0-5.27-5.93 65.322 65.322 0 0 0-16.45-12.12h-.01c-.03-.02-.05-.03-.08-.05-7.38-3.76-17.22-2.2-22.97.36-.38.16-.74.34-1.09.51-3 1.54-4.49 3.31-3.21 4.47.29.25.58.51.85.77a95.698 95.698 0 0 1 21.06 28.34v.01a93.305 93.305 0 0 1 5.21 13.16c1.93 6.23 3.53 13.14 7.3 18.22a16.379 16.379 0 0 0 1.25 1.53l33.68-.27c.08-.04.15-.07.23-.11l1.34.05c-.05-.24-.11-.48-.17-.72v-.02c-.03-.13-.07-.27-.1-.39-.03-.1-.05-.19-.07-.27.06-.15.12-.29.19-.44.05-.12.1-.23.15-.35Z" fill="#f0f0f0"></path><path d="M641.065 555.407a.44.44 0 0 1-.69.3 18.265 18.265 0 0 0-4.51-2.39c-.01-.01-.01 0-.01 0a37.984 37.984 0 0 0-6.24-1.66c-.02 0-.03-.01-.05-.01-.86-.17-1.72-.32-2.58-.48-4.18-.77-8.43-1.7-12.05-4.08a12.277 12.277 0 0 1-5.63-8.33c-.53-3.35.14-6.72.42-10.06.02-.24.04-.49.05-.73.02-.31.03-.61.03-.91a19.4 19.4 0 0 0-1.78-8.8 34.905 34.905 0 0 0-6.36-8.94q-1.995-2.145-4.16-4.13h-.01c-.06-.06-.11-.11-.17-.16 0-.01-.01-.02-.02-.03a81.074 81.074 0 0 0-20.75-13.7c-.27-.12-.55-.25-.83-.37-.73-.33-1.46-.64-2.2-.95.35-.17.71-.35 1.09-.51a82.99 82.99 0 0 1 23.09 14.66c.23.2.46.41.68.62q2.595 2.4 4.94 5.03a32.506 32.506 0 0 1 5.99 9.16 20.412 20.412 0 0 1 1.39 8.58c-.02.56-.06 1.12-.11 1.69-.31 3.37-1 6.85-.23 10.22.88 3.84 3.86 6.52 7.32 8.16a31.636 31.636 0 0 0 7.16 2.22c5.1 1.07 10.37 1.59 14.83 4.33h.01c.07.05.14.09.2.13.01 0 .01 0 .01.01a9.486 9.486 0 0 1 .93.63c.02.01.04.03.06.04a.571.571 0 0 1 .08.07.444.444 0 0 1 .1.39Z" fill="#fff"></path><path d="M598.122 505.09a12.205 12.205 0 0 0-.405-15.799c-.392-.435-1.087.154-.694.59a11.302 11.302 0 0 1 .346 14.697c-.37.454.385.964.753.512ZM610.095 527.026a23.524 23.524 0 0 1-16.58-4.361c-.474-.346-.985.407-.513.752a24.469 24.469 0 0 0 17.262 4.504c.583-.07.41-.964-.17-.895ZM576.615 491.187c-.02.04-.04.07-.06.11a7.764 7.764 0 0 1-5.39 3.92c-.27-.26-.56-.52-.85-.77a.334.334 0 0 1 .15-.05 6.909 6.909 0 0 0 5.26-3.47c.05-.08.1-.17.14-.25a.451.451 0 0 1 .63-.12.47.47 0 0 1 .12.63Z" fill="#fff"></path><path d="M297.684 176.37a67.894 67.894 0 0 0-67.818 67.818v259.9a67.894 67.894 0 0 0 67.818 67.817h604.632a67.894 67.894 0 0 0 67.818-67.818v-259.9a67.894 67.894 0 0 0-67.818-67.817Z" transform="translate(-224.423 -170.927)" fill="#fff" style="isolation:isolate"></path><path d="M902.316 577.348H297.684a73.344 73.344 0 0 1-73.261-73.26v-259.9a73.344 73.344 0 0 1 73.26-73.261h604.633a73.344 73.344 0 0 1 73.261 73.26v259.9a73.344 73.344 0 0 1-73.26 73.261ZM297.684 181.813a62.445 62.445 0 0 0-62.375 62.375v259.9a62.445 62.445 0 0 0 62.375 62.374h604.632a62.445 62.445 0 0 0 62.375-62.375v-259.9a62.445 62.445 0 0 0-62.375-62.374Z" transform="translate(-224.423 -170.927)" fill="#e6e6e6" style="isolation:isolate"></path><path d="M377.2 59.253H89.658a23.191 23.191 0 0 0-23.151 23.151v129.692a21.818 21.818 0 0 0 .38 4.1c.092.618.237 1.217.382 1.815a23.226 23.226 0 0 0 22.39 17.237H377.2c.472 0 .943-.018 1.397-.055h.327v-.018a1.381 1.381 0 0 0 .272-.018c.09 0 .2-.018.29-.018a.163.163 0 0 0 .09-.018c.2-.018.4-.036.581-.055.327-.054.653-.09.962-.145a.308.308 0 0 1 .127-.018.359.359 0 0 1 .181-.036.067.067 0 0 1 .055-.018c.2-.036.399-.073.599-.127a2.095 2.095 0 0 0 .326-.073c.4-.09.798-.181 1.18-.308.18-.055.344-.09.526-.145.236-.073.49-.164.725-.254a2.86 2.86 0 0 0 .363-.127.094.094 0 0 0 .073-.037 16.223 16.223 0 0 0 1.542-.635c.436-.2.853-.417 1.27-.635.164-.072.309-.163.472-.254a.381.381 0 0 0 .109-.072c.417-.254.834-.508 1.234-.744.018-.018.018-.036.036-.036a.018.018 0 0 0 .018-.019 13.874 13.874 0 0 0 1.234-.87h.018c.109-.091.2-.164.29-.236.127-.091.254-.2.363-.29.218-.182.436-.364.635-.545a2.785 2.785 0 0 0 .345-.308c.308-.273.599-.563.889-.853a5.133 5.133 0 0 0 .435-.472 7.527 7.527 0 0 0 .635-.69c.182-.235.381-.471.563-.707a8.123 8.123 0 0 0 .599-.78c.326-.436.616-.871.907-1.343.236-.38.472-.78.69-1.18.108-.199.217-.417.326-.634.018 0 .018-.018.018-.036.2-.382.381-.763.544-1.162.073-.163.146-.308.2-.471.145-.309.254-.635.38-.962.2-.599.4-1.216.563-1.833.145-.598.29-1.197.381-1.814a21.818 21.818 0 0 0 .381-4.1V82.404a23.191 23.191 0 0 0-23.151-23.151Z" fill="#e8df7a"></path><path fill="#fff" opacity="0.3" d="M66.506 96.448h333.847v1.814H66.506zM66.506 116.406h333.847v1.814H66.506zM66.506 136.364h333.847v1.814H66.506zM66.506 156.322h333.847v1.814H66.506zM66.506 176.28h333.847v1.814H66.506zM66.506 196.239h333.847v1.814H66.506zM399.971 216.197c-.09.617-.235 1.216-.38 1.814H66.76a14.999 14.999 0 0 1-.218-1.814Z"></path><path d="M400.352 184.01v28.086a21.818 21.818 0 0 1-.38 4.1c-.091.618-.237 1.217-.382 1.815a30.696 30.696 0 0 1-.562 1.833c-.127.326-.236.653-.381.961-.055.164-.127.309-.2.472-.163.4-.344.78-.544 1.161 0 .019 0 .037-.018.037-.109.217-.218.435-.327.635-.217.399-.453.798-.69 1.179-.29.472-.58.907-.906 1.343a8.123 8.123 0 0 1-.6.78c-.18.236-.38.472-.562.707a7.527 7.527 0 0 1-.635.69 5.133 5.133 0 0 1-.435.472c-.29.29-.58.58-.89.852a2.785 2.785 0 0 1-.344.309c-.2.181-.417.363-.635.544-.109.09-.236.2-.363.29-.09.073-.181.146-.29.236h-.018a13.874 13.874 0 0 1-1.234.871.018.018 0 0 1-.018.018c-.018 0-.018.019-.036.037-.254.181-.527.344-.799.508-.145.09-.29.163-.435.236a.381.381 0 0 1-.11.072c-.162.09-.308.182-.47.254-.418.218-.835.436-1.27.635a16.223 16.223 0 0 1-1.543.635.094.094 0 0 1-.073.036 2.86 2.86 0 0 1-.363.127c-.235.091-.49.182-.725.254-.182.055-.345.091-.526.146-.382.127-.78.217-1.18.308a2.095 2.095 0 0 1-.326.073c-.2.054-.4.09-.6.127a.067.067 0 0 0-.054.018.359.359 0 0 0-.181.036.308.308 0 0 0-.127.018c-.309.055-.635.09-.962.145l-.58.055a.163.163 0 0 1-.091.018c-.2.018-.381.036-.562.054h-.037c-.2.018-.399.018-.598.037-.363.018-.726.018-1.09.018H89.658a23.226 23.226 0 0 1-22.39-17.237h-.507a14.999 14.999 0 0 1-.218-1.814 20.368 20.368 0 0 1-.036-1.053v-31.642a43.148 43.148 0 0 1 11.23 1.832c9.871 3.012 19.47 8.11 29.775 8.11.816 0 1.67-.036 2.504-.108 10.85-.908 19.287-7.639 26.308-15.241.563-.599 1.125-1.198 1.651-1.815a142.904 142.904 0 0 0 3.829-4.463 97.679 97.679 0 0 1 13.19-13.68c.78-.635 1.56-1.234 2.36-1.815a33.511 33.511 0 0 1 16.002-6.405 30.687 30.687 0 0 1 2.232-.145c7.765-.236 15.059 2.559 21.7 6.55.961.58 1.923 1.18 2.848 1.815a108.351 108.351 0 0 1 9.163 6.949 175.165 175.165 0 0 0 14.152 11.194c.363.254.726.508 1.089.726a34.26 34.26 0 0 0 1.723 1.089 41.932 41.932 0 0 0 16.402 6.187c.2.036.418.072.635.09 9.453 1.107 18.253-1.687 26.29-6.277.999-.58 2.015-1.18 2.995-1.815a123.974 123.974 0 0 0 17.58-14.152c1.416-1.324 2.85-2.667 4.337-3.991.672-.6 1.343-1.216 2.032-1.815 10.778-9.47 23.206-18.144 37.885-18.144.617 0 1.252.019 1.887.055 10.56.508 19.83 5.624 27.615 12.12a84.7 84.7 0 0 1 6.477 5.97l.254.253a39.962 39.962 0 0 1 1.488 1.56c5.806 6.079 11.158 12.574 17.472 18.144.69.635 1.397 1.234 2.123 1.815a59.25 59.25 0 0 0 6.895 4.935c.562.345 1.143.671 1.723.98Z" opacity="0.1"></path><path d="M400.352 156.594v55.502a21.818 21.818 0 0 1-.38 4.1c-.091.618-.237 1.216-.382 1.815a30.696 30.696 0 0 1-.562 1.833c-.127.326-.236.653-.381.961-.055.164-.127.309-.2.472-.163.4-.344.78-.544 1.161 0 .019 0 .037-.018.037-.109.217-.218.435-.327.635-.217.399-.453.798-.69 1.179-.29.472-.58.907-.906 1.343a8.123 8.123 0 0 1-.6.78c-.18.236-.38.472-.562.707a7.527 7.527 0 0 1-.635.69 5.133 5.133 0 0 1-.435.472c-.29.29-.58.58-.89.852a2.785 2.785 0 0 1-.344.309c-.2.181-.417.363-.635.544-.109.09-.236.2-.363.29-.09.073-.181.146-.29.236h-.018a13.874 13.874 0 0 1-1.234.871.018.018 0 0 1-.018.018c-.018 0-.018.019-.036.037-.254.181-.527.344-.799.508-.145.09-.29.163-.435.236a.381.381 0 0 1-.11.072c-.162.09-.308.182-.47.254-.418.218-.835.436-1.27.635a16.223 16.223 0 0 1-1.543.635.094.094 0 0 1-.073.036 2.86 2.86 0 0 1-.363.127c-.235.091-.49.182-.725.254-.182.055-.345.091-.526.146-.382.127-.78.217-1.18.308a2.095 2.095 0 0 1-.326.073c-.2.054-.4.09-.6.127a.067.067 0 0 0-.054.018.359.359 0 0 0-.181.036.308.308 0 0 0-.127.018c-.309.055-.635.09-.962.145l-.58.055a.163.163 0 0 1-.091.018c-.09 0-.2.018-.29.018a1.381 1.381 0 0 1-.272.018.958.958 0 0 1-.236.018h-.091c-.09.018-.2.018-.308.037-.363.018-.726.018-1.09.018H89.658a23.226 23.226 0 0 1-22.39-17.237c-.144-.599-.29-1.197-.38-1.814a21.818 21.818 0 0 1-.381-4.1v-32.315a54.1 54.1 0 0 0 1.869-1.687 88.58 88.58 0 0 0 1.868-1.815 139.234 139.234 0 0 0 14.715-18.143c.145-.2.29-.381.417-.581.29-.417.581-.816.89-1.234a142.587 142.587 0 0 1 14.714-18.144 87.828 87.828 0 0 1 1.869-1.814c6.75-6.35 14.442-11.086 23.514-12.21 12.501-1.561 24.132 4.227 34.42 12.21.761.599 1.505 1.197 2.249 1.814 3.52 2.867 6.858 5.988 10.015 9.09.835.835 1.688 1.67 2.54 2.504a382.94 382.94 0 0 0 6.714 6.55 178.38 178.38 0 0 0 1.941 1.815c9.072 8.4 18.888 15.785 30.554 18.143.799.164 1.615.309 2.432.418a40.616 40.616 0 0 0 13.245-.418c.725-.127 1.433-.29 2.159-.471 10.922-2.704 21.047-9.508 30.21-17.672.652-.6 1.324-1.198 1.977-1.815 4.681-4.336 9.126-8.981 13.281-13.553a483.137 483.137 0 0 1 4.21-4.59 80.74 80.74 0 0 0 1.705-1.815 153.33 153.33 0 0 1 19.85-18.144 73.776 73.776 0 0 1 2.558-1.814c9.598-6.55 20.085-10.76 31.606-10.088 9.508.544 18.199 4.463 26.019 10.088a69.3 69.3 0 0 1 2.395 1.814 108.698 108.698 0 0 1 16.202 16.094c.562.671 1.125 1.36 1.687 2.05.29.345.563.708.853 1.052l.599.762c4.808 6.006 9.435 12.248 14.352 18.144Z" opacity="0.1"></path><path d="M400.352 133.679v78.417a21.818 21.818 0 0 1-.38 4.1c-.091.618-.237 1.217-.382 1.815a30.696 30.696 0 0 1-.562 1.833c-.127.326-.236.653-.381.961-.055.164-.127.309-.2.472-.163.4-.344.78-.544 1.161 0 .019 0 .037-.018.037-.109.217-.218.435-.327.635-.217.399-.453.798-.69 1.179-.29.472-.58.907-.906 1.343a8.123 8.123 0 0 1-.6.78c-.18.236-.38.472-.562.707a7.527 7.527 0 0 1-.635.69 5.133 5.133 0 0 1-.435.472c-.29.29-.58.58-.89.852a2.785 2.785 0 0 1-.344.309c-.2.181-.417.363-.635.544-.109.09-.236.2-.363.29-.09.073-.181.146-.29.236h-.018a13.874 13.874 0 0 1-1.234.871.018.018 0 0 1-.018.018c-.018 0-.018.019-.036.037-.254.181-.527.344-.799.508-.145.09-.29.163-.435.236a.381.381 0 0 1-.11.072c-.162.09-.308.182-.47.254-.418.218-.835.436-1.27.635a16.223 16.223 0 0 1-1.543.635.094.094 0 0 1-.073.036 2.86 2.86 0 0 1-.363.127c-.235.091-.49.182-.725.254-.182.055-.345.091-.526.146-.382.127-.78.217-1.18.308a2.095 2.095 0 0 1-.326.073c-.2.054-.4.09-.6.127a.067.067 0 0 0-.054.018.359.359 0 0 0-.181.036.308.308 0 0 0-.127.018c-.309.055-.635.09-.962.145l-.58.055a.163.163 0 0 1-.091.018c-.09 0-.2.018-.29.018a1.381 1.381 0 0 1-.272.018.063.063 0 0 1-.037.018h-.29c-.454.037-.925.055-1.397.055H89.657a23.226 23.226 0 0 1-22.39-17.237c-.144-.599-.29-1.197-.38-1.814a21.818 21.818 0 0 1-.381-4.1v-46.848q2.749-3.565 5.516-7.112c.471-.617.943-1.216 1.415-1.815 2.485-3.193 4.99-6.35 7.566-9.435a174.2 174.2 0 0 1 7.765-8.709c.581-.598 1.161-1.215 1.76-1.814a100.85 100.85 0 0 1 23.46-18.144 55.492 55.492 0 0 1 3.593-1.814 56.062 56.062 0 0 1 20.52-5.353 56.99 56.99 0 0 1 27.107 5.353 50.984 50.984 0 0 1 3.756 1.814c8.872 4.572 17.2 10.977 25.002 18.144.672.58 1.307 1.197 1.96 1.814 6.187 5.806 12.047 12.03 17.636 18.144.417.454.834.926 1.252 1.38.127.144.272.29.399.435 5.443 5.987 11.249 12.047 17.418 17.672.163.163.345.308.526.471a97.07 97.07 0 0 0 2.032 1.815 140.697 140.697 0 0 0 7.475 6.187 97.28 97.28 0 0 0 19.541 11.957c1.47.671 2.958 1.27 4.464 1.814a53.658 53.658 0 0 0 26.054 3.085 51.91 51.91 0 0 0 11.812-3.085 58.93 58.93 0 0 0 4.264-1.814c9.199-4.355 17.508-10.941 25.383-18.144.653-.599 1.306-1.198 1.96-1.815 4.48-4.209 8.835-8.582 13.135-12.81a261.114 261.114 0 0 1 5.57-5.333c.654-.6 1.325-1.198 1.997-1.815 2.286-2.05 4.644-4.064 7.076-5.97a90.894 90.894 0 0 1 19.45-12.174 38.508 38.508 0 0 1 1.814-.762c.926-.38 1.85-.725 2.776-1.052a48.657 48.657 0 0 1 12.392-2.685Z" opacity="0.1"></path><circle cx="138.174" cy="116.406" r="5.443" fill="#fff"></circle><circle cx="221.636" cy="176.28" r="5.443" fill="#fff"></circle><circle cx="334.127" cy="136.364" r="5.443" fill="#fff"></circle><path d="M581.718 182.806H453.37a4.631 4.631 0 1 0 0 9.262h128.348a4.631 4.631 0 1 0 0-9.262ZM581.718 252.934H453.37a4.631 4.631 0 1 0 0 9.262h128.348a4.631 4.631 0 1 0 0-9.262ZM581.718 323.062H453.37a4.631 4.631 0 1 0 0 9.262h128.348a4.631 4.631 0 1 0 0-9.262Z" fill="#e6e6e6"></path><circle cx="659.488" cy="187.783" r="11.565" fill="#f2f2f2" style="isolation:isolate"></circle><path d="M657.91 193.803a1.286 1.286 0 0 1-1.029-.515l-3.155-4.207a1.286 1.286 0 1 1 2.058-1.544l2.064 2.752 5.302-7.952a1.287 1.287 0 0 1 2.141 1.427l-6.31 9.466a1.287 1.287 0 0 1-1.035.572Z" fill="#fff"></path><circle cx="659.488" cy="257.911" r="11.565" fill="#f2f2f2" style="isolation:isolate"></circle><path d="M657.91 263.93a1.286 1.286 0 0 1-1.029-.514l-3.155-4.207a1.286 1.286 0 1 1 2.058-1.544l2.064 2.752 5.302-7.952a1.287 1.287 0 1 1 2.141 1.427l-6.31 9.466a1.287 1.287 0 0 1-1.035.572Z" fill="#fff"></path><circle cx="659.488" cy="328.04" r="11.565" fill="#f2f2f2" style="isolation:isolate"></circle><path d="M581.718 112.678H453.37a4.631 4.631 0 1 0 0 9.262h128.348a4.631 4.631 0 1 0 0-9.262Z" fill="#e6e6e6"></path><circle cx="659.488" cy="117.655" r="11.565" fill="#e8df7a"></circle><path d="M657.91 123.674a1.286 1.286 0 0 1-1.029-.514l-3.155-4.207a1.286 1.286 0 1 1 2.058-1.544l2.064 2.752 5.302-7.952a1.287 1.287 0 1 1 2.141 1.427l-6.31 9.465a1.287 1.287 0 0 1-1.035.573Z" fill="#fff"></path><circle cx="621.116" cy="117.655" r="11.565" fill="#f2f2f2" style="isolation:isolate"></circle><circle cx="621.116" cy="187.783" r="11.565" fill="#f2f2f2" style="isolation:isolate"></circle><circle cx="621.116" cy="257.911" r="11.565" fill="#f2f2f2" style="isolation:isolate"></circle><circle cx="621.116" cy="328.04" r="11.565" fill="#f2f2f2" style="isolation:isolate"></circle><path d="M657.91 334.059a1.286 1.286 0 0 1-1.029-.515l-3.155-4.207a1.286 1.286 0 1 1 2.058-1.544l2.064 2.753 5.302-7.953a1.287 1.287 0 0 1 2.141 1.427l-6.31 9.466a1.287 1.287 0 0 1-1.035.572ZM641.235 553.957a.426.426 0 0 1-.15.35.575.575 0 0 1-.27.11.391.391 0 0 1-.46-.29c-1.38-4.64-4.76-8.2-7.96-11.69-2.88-3.13-5.71-6.43-7.16-10.5a12.279 12.279 0 0 1 .52-10.05 17.725 17.725 0 0 1 1.73-2.62c1.43-1.82 3.13-3.44 4.66-5.16.16-.18.32-.37.47-.55.21-.23.4-.47.58-.71a19.345 19.345 0 0 0 3.87-8.1 34.796 34.796 0 0 0 .31-10.97q-.3-2.91-.83-5.78c-.02-.09-.03-.17-.05-.25a80.771 80.771 0 0 0-8.32-23.47c-.15-.27-.29-.54-.44-.8-.64-1.16-1.3-2.3-2-3.42.24-.17.5-.33.76-.48a82.831 82.831 0 0 1 5.97 11.63 81.254 81.254 0 0 1 4.87 16.05c.07.3.12.61.17.91.42 2.31.73 4.65.92 6.98a32.336 32.336 0 0 1-.74 10.92 20.376 20.376 0 0 1-4.07 7.71q-.51.645-1.08 1.26c-1.52 1.66-3.2 3.27-4.57 5.08a15.11 15.11 0 0 0-1.77 2.94c-1.61 3.6-.85 7.54.93 10.92 3.22 6.15 9.36 10.34 12.63 16.37a18.607 18.607 0 0 1 1.46 3.49.501.501 0 0 1 .02.12Z" fill="#fff"></path><path d="M637.091 488.273a12.205 12.205 0 0 0 9.189-12.859c-.051-.583-.96-.531-.91.053a11.302 11.302 0 0 1-8.571 11.943c-.57.14-.274 1.002.292.863ZM633.443 512.996a23.524 23.524 0 0 1-10.612-13.465c-.17-.56-1.031-.268-.862.293a24.469 24.469 0 0 0 11.071 13.988c.508.296.908-.522.403-.816ZM628.285 464.227c-.04.02-.07.03-.11.05a7.703 7.703 0 0 1-5.72.27 6.283 6.283 0 0 1 .31-.86 6.833 6.833 0 0 0 4.97-.21c.09-.03.17-.07.26-.11a.458.458 0 0 1 .58.28.48.48 0 0 1-.29.58Z" fill="#fff"></path><path d="M578.438 310.994a9.362 9.362 0 0 0-2.579-14.123l6.039-32.718-15.921 6.74-3.294 30.037a9.413 9.413 0 0 0 15.755 10.064Z" fill="#ffb6b6"></path><path d="m588.155 214.157-5.06-17.01-35.68-55.67a26.35 26.35 0 0 0-7.01-5.78 26.562 26.562 0 0 0-34.68 38.66 24.72 24.72 0 0 0 2.43 2.9l46.21 47.66 2.63 2.72 4.16 10.52 1.64 47.97 1.47.35 12.95 3.05 1.81.43 3.03-15.67 1.9-7.49a79.542 79.542 0 0 0 2.43-19.54c0-2.03-.07-4.07-.23-6.1Z" fill="#3f3d56"></path><path fill="#ffb6b6" d="M539.105 544.946h-12.39l-5.894-47.79 18.286.001-.002 47.789z"></path><path d="m538.775 540.897-13.22-5.37-.39-.16-7.3 5.53a15.542 15.542 0 0 0-15.53 14.87c-.02.22-.02.45-.02.68v.51h39.95v-16.06Z" fill="#2f2e41"></path><path fill="#ffb6b6" d="m515.51 520.231-10.679 6.283-29.317-38.198 15.76-9.273 24.236 41.188z"></path><path d="m522.885 526.527-1.45-2.47-5.25-8.92-2.73 1.61-.28.16-14.12 2.08-.42.06-3.48 8.47a15.55 15.55 0 0 0-5.52 21.29l.26.43 34.43-20.26Z" fill="#2f2e41"></path><path d="M554.797 252.786c5.809 17.52 5.195 36.537-1.396 56.948l-1.72 70.164-5.526 44.26a75.783 75.783 0 0 1 5.043 27.173c-.024 24.352-1.661 58.948-9.963 75.2H521.59l-4.435-72.374-5.292-36.388-.653-38.993-.569-34.008-21.36 31.235-20.758 30.353 20.632 34.801 18 56-19 16-21.554-40.863-10.446-12.137-28.516-61.73 2.562-8.595a203.33 203.33 0 0 1 22.783-50.23l28.364-65.83Z" fill="#2f2e41"></path><path d="m557.315 246.937-3.24-6.48.29-15.54.97-52.54a50.404 50.404 0 0 0-14.93-36.68 49.36 49.36 0 0 0-9.56-7.43l-6.96-4.16-3.52-8.94-32.46.79-.07 8.67-.03 3.05-11.63 18.54.01.08.24 33.74.48 67.16 3.21 10.41-4.85 12.12 2.58 7.72 2.06-.33 69.38-11.09a13.622 13.622 0 0 0 7.53-5.98 12.393 12.393 0 0 0 .89-1.74 13.648 13.648 0 0 0-.39-11.37Z" fill="#3f3d56"></path><circle cx="501.159" cy="74.551" r="29.496" fill="#ffb6b6"></circle><path d="M519.507 98.992c3.115-2.192 6.27-6.365 8.371-9.489a35.418 35.418 0 0 0 5.077-28.351 10.799 10.799 0 0 0-2.61-5.166 4.644 4.644 0 0 0-5.368-.98 9.68 9.68 0 0 0-.5-7.674 17.059 17.059 0 0 0-5.125-5.937 28.409 28.409 0 0 0-28.975-3.025c-1.83.88 1.104-5.755-.816-5.093a7.862 7.862 0 0 1-5.934-.022c-1.827-.888-7.763 4.62-7.094 2.702a8.958 8.958 0 0 0-1.867 15.03c1.54 1.263 3.45 1.976 5.132 3.044a14.613 14.613 0 0 1 4.73 18.795 19.36 19.36 0 0 1 5.664-2.555 6.553 6.553 0 0 1 5.85 1.322 7.362 7.362 0 0 1 1.861 5.53c-.038 2.003-.487 3.982-.513 5.984-.075 5.876-3.067 17.087 1.53 20.146 3.629 2.414 16.333-1.269 20.587-4.261Z" fill="#2f2e41"></path><path d="M337.299 146.294a9.362 9.362 0 0 0 14.168 2.317l28.786 16.682-.999-17.26-27.182-13.195a9.413 9.413 0 0 0-14.773 11.456Z" fill="#ffb6b6"></path><path d="M523.195 141.127a26.57 26.57 0 0 0-35.36-16.5c-.32.13-.64.27-.96.41l-63.86 29.07-24.86-2.95-32.18-11.24-.82 1.27-7.23 11.17-1.01 1.56 34.52 20.41 3.66.76a24.733 24.733 0 0 1 15.68 10.67l13.38 4.4 52.27-10.12 29.3-5.68 1.66-.32a26.638 26.638 0 0 0 17.07-24.84 26.372 26.372 0 0 0-1.26-8.07Z" fill="#3f3d56"></path><path d="M671.792 558.147H323.804a1.19 1.19 0 1 1 0-2.381h347.988a1.19 1.19 0 0 1 0 2.38Z" fill="#ccc"></path><path d="M297.251 279.936H85.903a4.631 4.631 0 0 0 0 9.262h211.348a4.631 4.631 0 1 0 0-9.262Z" fill="#e6e6e6"></path><circle cx="375.021" cy="284.913" r="11.565" fill="#e8df7a"></circle><path d="M373.443 290.932a1.286 1.286 0 0 1-1.03-.514l-3.154-4.207a1.286 1.286 0 1 1 2.058-1.544l2.064 2.752 5.302-7.952a1.287 1.287 0 1 1 2.14 1.427l-6.31 9.465a1.287 1.287 0 0 1-1.034.573Z" fill="#fff"></path><circle cx="336.649" cy="284.913" r="11.565" fill="#f2f2f2" style="isolation:isolate"></circle><path d="M296.251 335.936H84.903a4.631 4.631 0 0 0 0 9.262h211.348a4.631 4.631 0 1 0 0-9.262Z" fill="#e6e6e6"></path><circle cx="374.021" cy="340.913" r="11.565" fill="#f2f2f2" style="isolation:isolate"></circle><path d="M372.443 346.932a1.286 1.286 0 0 1-1.03-.514l-3.154-4.207a1.286 1.286 0 1 1 2.058-1.544l2.064 2.752 5.302-7.952a1.287 1.287 0 1 1 2.14 1.427l-6.31 9.465a1.287 1.287 0 0 1-1.034.573Z" fill="#fff"></path><circle cx="335.649" cy="340.913" r="11.565" fill="#f2f2f2" style="isolation:isolate"></circle></svg>