<svg xmlns="http://www.w3.org/2000/svg" data-name="Layer 1" width="760.16" height="561.134" viewBox="0 0 760.16 561.134" class="featureSvg__8YW" alt="Online illustrations by Storyset"><path d="M758.481 44.564H298.165a1.238 1.238 0 0 1 0-2.476h460.316a1.238 1.238 0 0 1 0 2.476Z" fill="#cacaca"></path><ellipse cx="325.42" cy="13.617" rx="13.32" ry="13.617" fill="#3f3d56"></ellipse><ellipse cx="371.435" cy="13.617" rx="13.32" ry="13.617" fill="#3f3d56"></ellipse><ellipse cx="417.449" cy="13.617" rx="13.32" ry="13.617" fill="#3f3d56"></ellipse><path d="M730.911 8.329h-32.694a2.476 2.476 0 0 1 0-4.952h32.694a2.476 2.476 0 0 1 0 4.952ZM730.911 17.613h-32.694a2.476 2.476 0 0 1 0-4.951h32.694a2.476 2.476 0 0 1 0 4.951ZM730.911 26.897h-32.694a2.476 2.476 0 0 1 0-4.951h32.694a2.476 2.476 0 0 1 0 4.951Z" fill="#3f3d56"></path><path d="M758.95 385.242H298.634a1.238 1.238 0 0 1 0-2.476H758.95a1.238 1.238 0 0 1 0 2.476Z" fill="#cacaca"></path><path d="M449.323 239.59a12.014 12.014 0 0 1-12-12v-43a12 12 0 0 1 24 0v43a12.014 12.014 0 0 1-12 12ZM488.823 239.59a12.014 12.014 0 0 1-12-12v-43a12 12 0 0 1 24 0v43a12.014 12.014 0 0 1-12 12Z" fill="#e8df7a"></path><path d="M528.323 172.59a12.01 12.01 0 0 0-12 12v43a12 12 0 1 0 24 0v-43a12.01 12.01 0 0 0-12-12ZM567.823 172.59a12.01 12.01 0 0 0-12 12v43a12 12 0 1 0 24 0v-43a12.01 12.01 0 0 0-12-12ZM607.323 239.59a12.014 12.014 0 0 1-12-12v-43a12 12 0 0 1 24 0v43a12.014 12.014 0 0 1-12 12Z" fill="#e6e6e6"></path><path fill="#3f3d56" d="M380.323 248.09h296v2h-296zM380.323 162.09h296v2h-296z"></path><path d="M528.323 181.04a12.01 12.01 0 0 0-12 12v34.55a12 12 0 1 0 24 0v-34.55a12.01 12.01 0 0 0-12-12ZM567.823 205.04a12.01 12.01 0 0 0-12 12v10.55a12 12 0 1 0 24 0v-10.55a12.01 12.01 0 0 0-12-12Z" fill="#e8df7a"></path><circle cx="674.423" cy="206.09" r="12" fill="#f2f2f2"></circle><circle cx="380.423" cy="206.09" r="12" fill="#f2f2f2"></circle><path d="M192.802 276.004a9.157 9.157 0 0 0-4.125-13.422l-30.854-78.492-15.053 10.053 33.574 73.892a9.207 9.207 0 0 0 16.458 7.97Z" fill="#a0616a"></path><path d="m156.161 229.09-.183-.125c-3.529-2.418-5.025-5.51-5.234-7.424a3.224 3.224 0 0 1 .408-2.163l-6.324-13.058-25.746-42.212L133.776 148l2.943-1.89a3.438 3.438 0 0 1 2.786-.256c2.179.666 4.15 3.117 5.859 7.285.857 2.091 3.299 7.062 6.389 13.355 1.805 3.675 3.835 7.808 5.91 12.102a6.98 6.98 0 0 1 .354 2.845 6.686 6.686 0 0 0 .257 2.434c.187.39.635.554 1.154.743a2.657 2.657 0 0 1 1.717 1.259c7.524 15.922 11.539 25.955 12.257 30.63a4.132 4.132 0 0 1 3.394 3.94 4.288 4.288 0 0 1-3.339 4.533Z" fill="#e8df7a"></path><path fill="#a0616a" d="m37.492 475.736 7.417 8.173 35.057-24.721-10.948-12.064-31.526 28.612z"></path><path d="m40.669 467.988 12.63 12.35-5.594 5.078 2.693 20.196a4.72 4.72 0 0 1-8.173 3.796l-14.109-15.546 3.102-7.702-6.483 3.976-5.32-5.862Z" fill="#2f2e41"></path><path fill="#a0616a" d="M125.13 540.421h11.037l5.253-42.573h-16.29v42.573z"></path><path d="m121.528 532.862 17.634-1.053v7.555l16.765 11.579a4.72 4.72 0 0 1-2.682 8.603h-20.994l-3.619-7.474-1.412 7.474h-7.916ZM148.95 520.89a13.03 13.03 0 0 1-1.305-.065l-38.15-3.79a12.832 12.832 0 0 1-11.294-15.386l22.17-106.422A539.985 539.985 0 0 1 96.56 312.17c-8.785-44.822 8.15-65.81 8.321-66.017l.094-16.087 9.137-.526 33.08.104.153-3.672 22.173 57.609-.004.12-3.498 101.154 3.332 8.196-4.214 17.294-3.394 98.154a12.838 12.838 0 0 1-12.79 12.391Z" fill="#2f2e41"></path><path d="m103.777 127.723 15.566-1.153a6.92 6.92 0 0 1 7.367 5.957l.755 5.489 14.358 9.074 16 39-3.013 41.422-3.987-5.422 2.326 4.422 2.674 5.578-4.441 4-46.559-4-20.261-76.992 9.284-7.653 3.74-14.544a6.92 6.92 0 0 1 6.19-5.178Z" fill="#e8df7a"></path><path d="M72.824 490.87a6.947 6.947 0 0 1-2.45-.453 6.742 6.742 0 0 1-4.383-5.553l-4.75-37.769a6.89 6.89 0 0 1 1.972-5.715l9.144-9.008 7.116-2.684 5.31-9.702 33.78-33.51 40.821 29.799-82.053 72.854a6.756 6.756 0 0 1-4.507 1.742Z" fill="#2f2e41"></path><path data-name="a1ca5f83-7fa1-45b1-9d3b-bf096f25c0e5" d="m136.51 113.912-1.998-23.155a31.142 31.142 0 0 0-62.056 5.315l.003.04c-4.485 11.867-.596 16.99 1.998 23.154a4.188 4.188 0 0 0 4.526 3.807l53.719-4.636a4.188 4.188 0 0 0 3.808-4.525Z" fill="#2f2e41"></path><circle data-name="b14fd05a-a043-4ff7-820e-83dd0ca664c7" cx="111.507" cy="96.997" r="22.832" fill="#a0616a"></circle><path data-name="b50f9c05-1494-4f26-bcdb-96e0065c79e8" d="M142.012 91.976a24.662 24.662 0 0 0-26.66-22.426l-4.632.4a24.662 24.662 0 0 0-22.425 26.661l.04.463c3.673 2.072 6.995 2.135 9.787-.844l2.53-9.635 1.475 9.29 5.058-.437 1.28-4.861.744 4.686c7.334 5.23 20.014 1.326 32.843-2.834Z" fill="#2f2e41"></path><path d="M91.41 293.299a9.157 9.157 0 0 1-2.03-13.895l-3.736-83.047 15.856 1.534 1.36 81.15A9.207 9.207 0 0 1 91.41 293.3Z" fill="#a0616a"></path><path d="M86.015 239.016a4.319 4.319 0 0 1-3.972-2.77 4.132 4.132 0 0 1 1.375-5.016c-1.187-3.959-1.847-12.598-2.019-26.37-.004-.376-.314-.611-.82-.964a2.252 2.252 0 0 1-1.256-1.803 8.174 8.174 0 0 1 1.065-3.09 8.019 8.019 0 0 0 .966-2.646c.004-6.9.093-13.642.172-19.59.093-7.01.167-12.549.045-14.805-.244-4.499.485-7.558 2.167-9.094a3.446 3.446 0 0 1 2.628-.963l3.594.478 20.057 8.216-5.157 49.223-.11 14.46a3.22 3.22 0 0 1 1.296 1.778c.632 1.818.607 5.253-1.545 8.952l-.11.191-17.388 3.706a4.713 4.713 0 0 1-.988.107Z" fill="#e8df7a"></path><path d="M231.317 522.113 247.435 517a54.561 54.561 0 0 0-.388-26.249c-6.476 14.4-25.475 17.927-36.3 29.42a32.819 32.819 0 0 0-8.395 27.179l-3.391 11.504a54.994 54.994 0 0 0 40.024-22.767 53.12 53.12 0 0 0 6.224-11.784c-6.874-.688-13.892-2.19-13.892-2.19Z" fill="#f2f2f2"></path><path d="m214.093 500.841 12.146-11.765a54.561 54.561 0 0 0-12.054-23.32c.626 15.775-14.806 27.405-19.37 42.52a32.819 32.819 0 0 0 4.608 28.07l2.095 11.809a54.994 54.994 0 0 0 25.67-38.228 53.12 53.12 0 0 0 .316-13.322c-6.46 2.45-13.411 4.236-13.411 4.236Z" fill="#f2f2f2"></path><path d="M282.67 559.944a1.186 1.186 0 0 1-1.19 1.19H1.19a1.19 1.19 0 0 1 0-2.38h280.29a1.187 1.187 0 0 1 1.19 1.19Z" fill="#ccc"></path></svg>