<?xml version="1.0" standalone="no"?><!DOCTYPE svg PUBLIC "-//W3C//DTD SVG 1.1//EN" "http://www.w3.org/Graphics/SVG/1.1/DTD/svg11.dtd"><svg t="1770985831504" class="icon" viewBox="0 0 1024 1024" version="1.1" xmlns="http://www.w3.org/2000/svg" p-id="11875" xmlns:xlink="http://www.w3.org/1999/xlink" width="200" height="200"><path d="M310.95820629 298.20700445c0 54.69424185-53.27025038 225.89692814 165.70089928 248.93971 95.66637853 21.3598811 120.13315186 68.99889038 111.84810666 211.65700665a452.44112555 452.44112555 0 0 1-1.55344668 34.43471815c-33.52854073 17.60572075-57.15386482 28.22093483-70.94069704 31.84564224 2.20071481-19.74170851 24.59622741-175.60411705-21.23042702-211.91591594-45.82665443-36.24707186-77.67229667-40.71322851-124.92294371-46.92701184-22.84860075-3.04216519-58.57785629-22.20133149-85.63370667-38.83614777-27.05585038-16.57009038-42.84921629-48.67463851-47.63900814-78.70792704-3.23634517-20.06534371-4.14252259-49.06300075-2.84798407-86.99297223 17.41153963-19.41807445 43.17285149-40.64850147 77.21920739-63.43237518z m91.65331001-52.55825408c-1.48871851 19.80643555-32.36345629 191.59166407 56.2476874 232.36961962 32.36345629 14.95191666 45.95610851 20.71261184 68.80470926 26.08494706 22.84860075 5.37233408 80.71446073 13.07483705 104.66341888 37.28270222 9.70903666 9.70903666 24.33731925 26.2144 32.4929115 47.12119296 11.90975261 30.7452837 15.08137074 74.43595037 15.08137074 119.68006258v34.17581113c-25.8260389 19.35334741-47.63900814 32.81654557-65.63309113 40.58377443 0-23.17223481 8.28504519-131.84872334-13.52792405-176.57502037-21.81297038-44.66156999-45.17938517-65.69781703-84.01553408-70.87596999-38.83614777-5.17815296-101.42707371-21.23042816-126.41166223-42.2666752-25.04931555-20.97152-57.80113408-52.55825408-57.80113408-105.69904924 0-35.40562147 0.84145038-69.45197853 2.52435002-102.20379706 25.11404259-18.31771705 47.63900814-31.52200704 67.57489777-39.67759814z m93.14202852-41.55467776c-2.45962297 39.22451001-8.34977223 132.81962667 10.42103296 181.42953813 18.77080519 48.60991261 58.44840334 75.73048889 102.07434297 83.23881073 43.62593963 7.44359481 121.16878222 33.14017963 140.45740259 79.61410447 17.60572075 42.26667406 19.41807445 67.51017074 19.67698148 88.22278257v37.15324815c-23.94895815 21.81297038-45.11465927 38.83614777-63.56182927 51.13426261 0-63.88546333-0.19418112-124.72876259-18.77080518-160.52274631-18.51189703-35.72925667-42.91394333-57.15386482-96.05473963-69.51670557-53.07606926-12.42756779-108.61176149-17.73517483-142.14030223-61.10220629-22.39551261-28.86820295-30.48637667-76.57193927-24.40204629-143.11120555l5.50178816-56.37714147c22.00715037-11.90975261 44.27320889-22.00715037 66.79817444-30.16274147z" fill="#E8130D" p-id="11876"></path><path d="M197.75083406 391.67266816c2.58907705 40.84268259 5.89014926 68.28689408 9.96794482 82.33263331 11.52139037 39.61287111 44.40266297 69.32252445 59.09567261 78.19011186 23.81950407 14.43410147 70.42288185 34.04635705 106.08741148 38.83614777 23.75477703 3.10689223 49.38663481 10.74466816 77.02502741 22.84860075 25.89076594 17.08790557 39.22451001 33.65799481 40.13068629 49.83972409 5.50178816 104.01614962-10.48576 139.16286407-17.41153962 175.73356999-79.22574222 48.41573149-406.67919815 53.39970333-413.4107978-133.72580409-4.5308837-124.79348963 41.61940594-229.45690851 138.51559481-314.05498368z m729.66649743-152.04352c72.10578147 104.8576 33.33436075 238.64812999-116.24953743 401.43631701a214.18135666 214.18135666 0 0 0-3.81888739-36.50597888c-18.57662407-82.72099555-51.78153074-118.45025223-92.49475926-133.46689592-40.77795555-15.08137074-159.09875371-16.50536334-182.07680853-99.87362703a472.70065038 472.70065038 0 0 1 7.50832185-186.60769223c184.14806926-51.7168037 313.21353443-33.33436075 387.13167076 55.01787705z" fill="#1D2683" p-id="11877"></path></svg>