<?xml version="1.0" standalone="no"?><!DOCTYPE svg PUBLIC "-//W3C//DTD SVG 1.1//EN" "http://www.w3.org/Graphics/SVG/1.1/DTD/svg11.dtd"><svg t="1677296049930" class="icon" viewBox="0 0 1024 1024" version="1.1" xmlns="http://www.w3.org/2000/svg" p-id="29652" xmlns:xlink="http://www.w3.org/1999/xlink" width="200" height="200"><path d="M0 0h1024v1024H0z" fill="#D8D8D8" fill-opacity="0" p-id="29653"></path><path d="M630.1184 227.84L540.16 138.496A123.648 123.648 0 0 0 452.7616 102.4a115.4048 115.4048 0 0 0-80.2816 32.1024 116.992 116.992 0 0 0-35.9424 83.0464 116.3264 116.3264 0 0 0 34.304 83.7632l163.328 162.1504a18.688 18.688 0 0 0 25.6 0l70.2464-69.7856c4.4032-5.2224 77.9264-88.6272 0.1024-165.8368z" fill="#15A9CA" p-id="29654"></path><path d="M777.5232 370.688c-17.1008-16.5376-34.9184-33.536-50.944-51.968v-0.6144a31.8464 31.8464 0 0 0-1.28 5.12 183.296 183.296 0 0 1-55.0912 102.3488c-94.72 93.44-190.464 188.928-283.136 281.344l-12.544 12.288a119.04 119.04 0 0 0-36.7616 65.9456 126.8224 126.8224 0 0 0 32.9728 100.1984 107.7248 107.7248 0 0 0 84.8384 36.1984c36.9664 0.512 54.9376-4.3008 81.92-30.3104 107.7248-104.8064 215.5008-210.432 297.0624-290.7648 38.4512-37.9904 47.3088-100.9152 20.0192-143.36a492.6464 492.6464 0 0 0-77.056-86.4768z" fill="#52CAA3" p-id="29655"></path><path d="M256 314.6752v394.752a21.8624 21.8624 0 0 0 13.6192 20.3264 22.2208 22.2208 0 0 0 24.064-4.7616l200.0384-198.656a20.1728 20.1728 0 0 0 0-28.5184l-199.9872-198.656a21.5552 21.5552 0 0 0-15.4112-6.4512 22.3744 22.3744 0 0 0-22.3232 21.9648z" fill="#5268AD" p-id="29656"></path></svg>