<?xml version="1.0" standalone="no"?><!DOCTYPE svg PUBLIC "-//W3C//DTD SVG 1.1//EN" "http://www.w3.org/Graphics/SVG/1.1/DTD/svg11.dtd"><svg t="1770985877776" class="icon" viewBox="0 0 1024 1024" version="1.1" xmlns="http://www.w3.org/2000/svg" p-id="12318" xmlns:xlink="http://www.w3.org/1999/xlink" width="200" height="200"><path d="M992 533c0-80.4-49.8-150.9-125.1-178.2 3.3-16.8 5.1-33.9 5.1-51.6C872 153.8 750.5 32 600.8 32c-87.3 0-168.6 42-219.6 112.5A144.03 144.03 0 0 0 293 114.2a144.03 144.03 0 0 0-135 194.1c-74.7 27-126 99-126 178.8 0 81 50.1 151.5 125.4 178.8-3.3 16.8-4.8 34.2-4.8 51.6 0 149.1 121.5 270.6 270.6 270.6 87.6 0 168.9-42 219.6-113.1a142.5 142.5 0 0 0 88.2 30.6 144.03 144.03 0 0 0 135-194.1c74.7-26.7 126-98.7 126-178.5" fill="#FFFFFF" p-id="12319"></path><path d="M409.4 443.9l210 95.7 211.8-185.7c3-15.3 4.5-30.6 4.5-46.5 0-130.8-106.2-237-237-237-78.3 0-151.2 38.4-195.3 102.9l-35.4 183 41.4 87.6z" fill="#FFD00A" p-id="12320"></path><path d="M191.9 666.2c-3 15.3-4.5 31.2-4.5 47.4 0 131.1 106.5 237.6 237.6 237.6 78.9 0 152.1-38.7 196.2-104.1l35.1-182.4-46.8-89.1-210.9-96-206.7 186.6z" fill="#20B9AF" p-id="12321"></path><path d="M190.7 302.9l144 33.9 31.5-163.8c-19.8-15-44.1-23.4-69-23.4-62.7 0-113.4 51-113.4 113.4 0 14.1 2.4 27.3 6.9 39.9" fill="#EE5096" p-id="12322"></path><path d="M178.1 337.1c-64.2 21.3-108.9 83.1-108.9 150.9 0 66 40.8 125.1 102 148.2l201.9-182.7-37.2-79.2-157.8-37.2z" fill="#12A5DF" p-id="12323"></path><path d="M658.1 847.1c19.8 15.3 43.8 23.4 68.7 23.4 62.7 0 113.4-51 113.4-113.4 0-13.8-2.4-27-6.9-39.6l-143.7-33.6-31.5 163.2z" fill="#90C640" p-id="12324"></path><path d="M687.5 646.4l158.4 36.9c64.2-21.3 109.2-82.8 109.2-150.9 0-66-40.8-124.8-102.3-148.2l-207 181.5 41.7 80.7z" fill="#05799F" p-id="12325"></path></svg>