<?xml version="1.0" standalone="no"?><!DOCTYPE svg PUBLIC "-//W3C//DTD SVG 1.1//EN" "http://www.w3.org/Graphics/SVG/1.1/DTD/svg11.dtd"><svg t="1677296600230" class="icon" viewBox="0 0 1024 1024" version="1.1" xmlns="http://www.w3.org/2000/svg" p-id="37514" xmlns:xlink="http://www.w3.org/1999/xlink" width="200" height="200"><path d="M181.12 116.48h662.4a64 64 0 0 1 64 64V512H117.12V180.48a64 64 0 0 1 64-64z" p-id="37515"></path><path d="M180.48 116.48h662.4a64 64 0 0 1 64 64V313.6H116.48V180.48a64 64 0 0 1 64-64z" fill="#FFFFFF" opacity=".14" p-id="37516"></path><path d="M117.12 512h790.4v332.16a64 64 0 0 1-64 64H181.12a64 64 0 0 1-64-64V512z" fill="#20A539" p-id="37517"></path><path d="M192 192v17.92h128V192z m142.08 0v17.92H512A67.84 67.84 0 0 0 469.76 192z m212.48 0v17.92h108.16L647.68 192z m184.96 0l-6.4 17.92H832V192zM192 225.28v17.28h128v-17.28z m141.44 0v17.28h199.68s0-13.44-7.04-17.28z m212.48 0v17.28h119.68l-5.12-17.28z m172.16 0l-5.76 17.28H832v-17.28zM228.48 256v17.92h53.76V256z m142.08 0v17.92h53.76V256z m106.88 0v17.92h53.76A57.6 57.6 0 0 0 535.04 256z m105.6 0v17.92h95.36L672 256z m124.16 0l-6.4 17.92h96.64V256z m-478.72 34.56v17.28h53.76v-14.72z m142.08 0v17.28H512a64 64 0 0 0 14.72-17.28z m212.48 0v17.28H640v-7.68l3.84 10.24h99.2l3.84-10.24v10.24h53.76v-17.28h-102.4l-5.12 14.72-5.12-14.72z m-354.56 33.92v17.92h53.76v-15.36z m142.08 0v17.92h152.96A71.68 71.68 0 0 0 512 327.04z m212.48 0v17.92H640v-15.36z m64 0l6.4 17.92h74.24l6.4-17.92z m95.36 0v17.92h53.76v-15.36z m-512 34.56v17.28h53.76v-14.72z m142.08 0v17.28h53.76v-14.72z m106.88 0v17.28h57.6a51.2 51.2 0 0 0-3.84-17.28z m105.6 0v17.28H640v-14.72z m76.16 0l6.4 17.28h49.92l6.4-17.28z m83.2 0v17.28h53.76v-14.72zM192 394.88v17.92h128v-17.92z m140.8 0v17.92h192a55.04 55.04 0 0 0 7.04-17.92z m213.76 0v17.92H640v-17.92z m123.52 0l6.4 17.92H704l6.4-17.92z m71.04 0v17.92H832v-17.92zM192 429.44V448h128v-18.56z m140.8 0V448h136.96A64 64 0 0 0 512 429.44z m213.76 0V448H640v-18.56z m135.04 0l7.04 17.28 6.4-17.28z m59.52 0V448H832v-18.56zM304.64 576H230.4v227.84h73.6A112 112 0 0 0 384 772.48a113.92 113.92 0 0 0 32.64-85.12A99.84 99.84 0 0 0 304.64 576z m48 167.04a64 64 0 0 1-51.2 21.12h-24.96V616.32h24.96a72.32 72.32 0 0 1 50.56 18.56 72.32 72.32 0 0 1 19.2 53.12 80 80 0 0 1-18.56 55.68zM599.04 700.16a55.04 55.04 0 0 0-35.84-17.92 64 64 0 0 0 29.44-19.2 49.92 49.92 0 0 0 12.16-32.64 46.08 46.08 0 0 0-19.2-39.04A88.96 88.96 0 0 0 531.2 576H455.04v227.84h80a79.36 79.36 0 0 0 56.96-18.56 64 64 0 0 0 21.12-49.28 49.28 49.28 0 0 0-14.08-35.84zM501.12 612.48h19.2c24.32 0 36.48 8.96 36.48 26.24a27.52 27.52 0 0 1-9.6 22.4 35.84 35.84 0 0 1-24.32 8.32h-21.76z m54.4 147.2a45.44 45.44 0 0 1-27.52 8.32h-26.88v-64h26.24a42.24 42.24 0 0 1 28.16 8.32 27.52 27.52 0 0 1 9.6 22.4 30.72 30.72 0 0 1-9.6 24.96zM691.2 768h90.88v39.68H640v-20.48a86.4 86.4 0 0 1 5.76-32 110.72 110.72 0 0 1 17.28-27.52 203.52 203.52 0 0 1 33.28-30.08 139.52 139.52 0 0 0 29.44-28.8 53.12 53.12 0 0 0 8.32-27.52 27.52 27.52 0 0 0-30.08-30.72 78.72 78.72 0 0 0-53.12 23.68v-42.24a108.8 108.8 0 0 1 64-19.2 71.04 71.04 0 0 1 50.56 17.28 64 64 0 0 1 19.2 48 77.44 77.44 0 0 1-5.76 30.72 97.28 97.28 0 0 1-15.36 26.24 248.96 248.96 0 0 1-33.28 28.8 157.44 157.44 0 0 0-28.8 25.6 24.96 24.96 0 0 0-7.68 15.36z" fill="#FFFFFF" p-id="37518"></path></svg>