<?xml version="1.0" standalone="no"?><!DOCTYPE svg PUBLIC "-//W3C//DTD SVG 1.1//EN" "http://www.w3.org/Graphics/SVG/1.1/DTD/svg11.dtd"><svg t="1770985929553" class="icon" viewBox="0 0 1024 1024" version="1.1" xmlns="http://www.w3.org/2000/svg" p-id="13431" xmlns:xlink="http://www.w3.org/1999/xlink" width="200" height="200"><path d="M282.464 313.664a279.04 279.04 0 0 1 395.616 0c109.44 109.632 109.44 287.36 0 396.832a279.2 279.2 0 0 1-395.616-0.16l-178.56-179.2a27.104 27.104 0 0 1 0-38.304l178.56-179.2z m62.816 344.192a204.992 204.992 0 0 0 290.592 0 206.496 206.496 0 0 0-0.16-291.52 204.992 204.992 0 0 0-290.624 0l-131.2 131.52a20.064 20.064 0 0 0 0 28.256l131.392 131.744z" fill="#00B3FF" p-id="13432"></path><path d="M841.6 412.48l78.592 80.32a27.648 27.648 0 0 1 0 38.464l-78.624 80.32c-4.576 4.704-12.48 0.384-11.072-6.272a433.344 433.344 0 0 0 0-186.56c-1.6-6.656 6.336-11.136 11.072-6.272zM516.864 652.288a140.288 140.288 0 1 0 0-280.576 140.288 140.288 0 0 0 0 280.576z" fill="#00B3FF" p-id="13433"></path></svg>