<?xml version="1.0" standalone="no"?><!DOCTYPE svg PUBLIC "-//W3C//DTD SVG 1.1//EN" "http://www.w3.org/Graphics/SVG/1.1/DTD/svg11.dtd"><svg t="1770985849754" class="icon" viewBox="0 0 1024 1024" version="1.1" xmlns="http://www.w3.org/2000/svg" p-id="12168" xmlns:xlink="http://www.w3.org/1999/xlink" width="200" height="200"><path d="M533.84744281 992l-25.55222531-8.74337063s3.11275031-130.27899469-43.6476825-139.63108218c-31.15517625-36.14941219 5.00806969-1533.49319812 117.20544187-4.98040032 0 0-38.6534475 19.36822687-45.51533343 52.36338469-7.48443656 32.41411125-2.49020062 100.99146844-2.49020063 100.99146844z" fill="#FFFFFF" p-id="12169"></path><path d="M533.84744281 992l-25.55222531-8.74337063s3.11275031-130.27899469-43.6476825-139.63108218c-31.15517625-36.14941219 5.00806969-1533.49319812 117.20544187-4.98040032 0 0-38.6534475 19.36822687-45.51533343 52.36338469-7.48443656 32.41411125-2.49020062 100.99146844-2.49020063 100.99146844z" fill="#A6A385" p-id="12170"></path><path d="M547.55738094 866.07885594S771.35724219 718.94950438 719.00769219 412.87618156C668.49812281 190.33525437 549.43886562 117.40004656 536.39298125 89.35762062 522.00515563 69.35300937 508.2952175 34.50403531 508.2952175 34.50403531l9.3520875 618.99469688c0 0.62254969-19.36822687 189.53193469 29.92390969 212.58012375" fill="#FFFFFF" p-id="12171"></path><path d="M547.55738094 866.07885594S771.35724219 718.94950438 719.00769219 412.87618156C668.49812281 190.33525437 549.43886562 117.40004656 536.39298125 89.35762062 522.00515563 69.35300937 508.2952175 34.50403531 508.2952175 34.50403531l9.3520875 618.99469688c0 0.62254969-19.36822687 189.53193469 29.92390969 212.58012375" fill="#499D4A" p-id="12172"></path><path d="M495.20783 874.17200844S285.11790594 730.79179156 297.59657844 478.34078844C309.50803813 225.87595156 457.79948375 101.8224575 486.46445938 79.38298344c18.70417313-19.94927344 19.36822687-27.43371 20.58565781-47.38298344 13.0873875 28.05625969 10.59718688 419.52962906 12.45100312 465.6536775 5.61678563 177.64814344-9.9608025 342.85911937-24.29329031 376.51833094z" fill="#FFFFFF" p-id="12173"></path><path d="M495.20783 874.17200844S285.11790594 730.79179156 297.59657844 478.34078844C309.50803813 225.87595156 457.79948375 101.8224575 486.46445938 79.38298344c18.70417313-19.94927344 19.36822687-27.43371 20.58565781-47.38298344 13.0873875 28.05625969 10.59718688 419.52962906 12.45100312 465.6536775 5.61678563 177.64814344-9.9608025 342.85911937-24.29329031 376.51833094z" fill="#58AA50" p-id="12174"></path></svg>