<?xml version="1.0" standalone="no"?><!DOCTYPE svg PUBLIC "-//W3C//DTD SVG 1.1//EN" "http://www.w3.org/Graphics/SVG/1.1/DTD/svg11.dtd"><svg t="1677302938165" class="icon" viewBox="0 0 1024 1024" version="1.1" xmlns="http://www.w3.org/2000/svg" p-id="12753" xmlns:xlink="http://www.w3.org/1999/xlink" width="200" height="200"><path d="M991.36 808.768c0.256-2.112 0.256-4.288 0.512-6.144-11.904-13.824-22.208-29.376-35.84-41.536-57.472-51.072-119.04-95.68-192-122.368a61.184 61.184 0 0 1-36.48-33.664c-20.096-42.496-40.832-84.736-60.672-127.424-16.448-35.328-29.056-72.768-48.448-106.368-50.112-88.064-118.4-160.128-201.344-218.752-59.136-41.728-121.152-73.984-196.096-74.432-11.2 0-23.68-7.424-33.408-14.592C146.624 34.88 104.384 10.048 52.352 10.752c-30.784 0.448-54.144 23.36-52.224 54.144 0.96 16.384 6.656 34.048 15.04 48.192 14.08 23.68 32.896 44.16 48.448 67.008 9.536 14.08 17.92 29.376 23.808 45.376 11.904 30.272 19.584 62.464 33.216 92.096 12.608 27.136 31.04 51.712 45.824 78.016a29.376 29.376 0 0 1 2.816 21.44c-20.736 68.224-34.816 136.96-18.368 208.256 8.832 38.592 22.208 75.136 52.992 102.08 28.672 24.832 61.76 13.44 70.144-23.68 1.408-6.592 2.112-13.568 3.328-20.224 2.88-16.448 6.016-32.96 9.088-50.56 19.84 31.168 35.52 61.952 56.96 88.256 21.76 26.432 49.152 48.192 74.24 71.808 1.216-1.28 2.112-2.432 3.328-3.392-56.32-72.768-101.632-151.68-132.864-238.08-49.92 39.872-46.08 98.368-55.36 152.256-19.584-4.032-27.968-16.96-34.368-31.232-32-70.912-33.664-142.912-9.792-216.384 4.8-14.784 11.456-29.312 13.12-44.352 1.28-10.048-1.6-24.32-8.32-31.04-29.376-29.568-46.08-65.92-56.768-104.768C120.192 216.32 93.888 162.432 53.12 115.648 45.76 107.008 38.4 97.28 35.2 86.528 32.128 76.16 30.464 61.824 35.008 52.928c5.952-11.392 20.48-9.984 32.64-5.76 36.48 12.672 71.616 27.712 101.888 52.288 8.64 6.912 21.056 11.392 32.256 12.864 34.048 4.288 68.928 2.88 100.928 19.072 19.328 10.048 39.36 18.816 57.984 30.08 112.768 69.248 196.736 163.2 248.064 286.592 25.6 61.312 55.68 120.768 84.224 180.8 9.024 19.072 22.4 35.072 44.608 40.128 72.768 16 131.2 59.136 190.4 100.672 6.912 4.736 12.672 11.648 21.44 20.288-8.768 0.704-12.16 1.408-15.488 1.408a366.208 366.208 0 0 0-134.848 23.168c-14.08 5.248-19.264 11.008-10.496 24.576 5.504 8.576 9.792 18.368 16 26.24 25.792 32.896 60.608 53.568 96.384 73.472 33.664 18.368 66.304 38.592 99.008 58.432 7.36 4.288 13.376 10.816 20.032 16 1.408-1.344 2.88-2.816 4.032-4.224-10.752-12.16-21.952-23.68-32-36.224a350.208 350.208 0 0 0-107.52-90.24 168 168 0 0 1-29.376-20.992c-6.016-5.248-10.048-12.672-17.152-21.696 54.208-11.328 103.808-21.12 153.408-31.104zM244.672 244.992c15.232-15.744 16.64-30.528 5.248-46.272-11.904-16.384-24.832-19.52-41.728-10.496 12.096 18.944 24.256 37.888 36.48 56.768z" fill="#00A6FB" p-id="12754"></path></svg>