<?xml version="1.0" standalone="no"?><!DOCTYPE svg PUBLIC "-//W3C//DTD SVG 1.1//EN" "http://www.w3.org/Graphics/SVG/1.1/DTD/svg11.dtd"><svg t="1677296439257" class="icon" viewBox="0 0 1024 1024" version="1.1" xmlns="http://www.w3.org/2000/svg" p-id="34294" xmlns:xlink="http://www.w3.org/1999/xlink" width="200" height="200"><path d="M403.456 721.408h2.048l92.672 160.768H323.584c-16.384 0-35.328-11.264-43.52-25.088l-188.416-326.656c-8.192-13.824-8.192-36.352 0-50.176L280.064 153.6c8.192-13.824 27.648-25.088 43.52-25.088h172.032l-92.16 159.232c-16.384 0-29.184 13.312-29.184 29.184 0 5.12 1.536 10.24 4.096 14.848L294.4 476.16c-15.872 0-29.184 12.8-29.184 29.184 0 15.872 12.8 29.184 29.184 29.184h2.56l82.432 142.336c-9.216 13.312-5.632 31.232 7.68 40.448 4.608 2.56 10.24 4.096 16.384 4.096z m212.992-56.32s-0.512 0 0 0l-81.92-141.312c2.56-3.072 4.608-7.168 5.632-11.264h162.304c0 1.536 0.512 3.072 1.536 4.096l-14.848 25.6-70.656 123.392c-0.512-0.512-1.536 0-2.048-0.512z m316.416-185.344c8.192 13.824 8.192 36.352 0 50.176l-188.416 326.656c-8.192 13.824-27.648 25.088-43.52 25.088h-169.472l-97.28-168.96H599.04c5.12 6.144 13.312 9.728 21.504 9.728 15.872 0 28.672-12.8 28.672-29.184 0-4.096-1.024-8.192-2.56-11.776l84.992-147.968c15.36-1.024 27.136-13.824 27.136-29.184s-11.264-27.648-26.112-29.184l-85.504-148.48c5.632-14.848-1.536-31.744-16.384-37.376-3.584-1.536-7.168-2.048-10.752-2.048a29.184 29.184 0 0 0-28.16 20.992H431.104c-0.512-2.56-1.536-5.12-3.072-7.168l100.352-174.08h171.52c16.384 0 35.328 11.264 43.52 25.088l189.44 327.68z m-530.432 184.32l-83.456-143.872 1.536-3.072c0.512-1.024 0.512-2.048 1.024-2.56v-0.512c0.512-1.024 0.512-1.536 0.512-2.56v-0.512c0.512-1.024 0.512-2.048 0.512-3.072v-0.512c0.512-4.096 0-8.192-1.536-12.288-0.512-1.536-1.536-3.072-2.56-5.12v-0.512l83.968-144.896c3.584 0 7.168-0.512 10.24-2.048L493.056 481.28c-6.656 5.632-10.752 13.312-10.752 22.528 0 6.656 2.56 13.312 6.656 18.432v0.512l-80.896 140.288c-1.024 1.536-3.072 1.024-5.632 1.024z m24.576 12.8c-1.536-2.048-3.072-4.096-5.12-6.144l-0.512-0.512 79.872-138.24c1.536 0.512 3.072 1.024 5.12 1.536 1.536 0.512 3.584 0.512 5.632 0.512h3.072c2.56-0.512 5.12-1.024 7.68-2.048 1.024-0.512 1.536-0.512 2.56-1.024l80.896 138.24c-5.632 3.584-9.728 8.704-12.288 14.848H430.592c-1.024-2.56-2.048-5.12-3.584-7.168z m262.656-218.624l17.408 30.208c-2.048 3.072-3.584 6.144-4.608 9.728l-162.304-0.512c-1.536-6.144-5.12-11.776-10.24-15.872l-1.024-1.024c-6.144-4.608-13.824-6.144-21.504-4.608l-81.92-141.312s0-0.512 0.512-0.512c0.512-0.512 1.024-1.536 1.536-2.048 1.536-2.56 3.072-5.632 3.584-8.704v-0.512h161.28c3.072 13.312 14.848 22.528 28.672 22.528h4.096l64.512 112.64z" fill="#2B85FB" p-id="34295"></path></svg>