<?xml version="1.0" standalone="no"?><!DOCTYPE svg PUBLIC "-//W3C//DTD SVG 1.1//EN" "http://www.w3.org/Graphics/SVG/1.1/DTD/svg11.dtd"><svg t="1677295954798" class="icon" viewBox="0 0 1024 1024" version="1.1" xmlns="http://www.w3.org/2000/svg" p-id="26616" xmlns:xlink="http://www.w3.org/1999/xlink" width="200" height="200"><path d="M723.2 460.8H704v121.6h89.6l12.8-19.2h-83.2V460.8z m-249.6 6.4L403.2 582.4h25.6l19.2-38.4h44.8l12.8-19.2h-44.8l25.6-38.4 57.6 96h25.6L492.8 467.2c0-6.4-12.8-6.4-19.2 0z m128 12.8h83.2l12.8-19.2H601.6c-32 0-51.2 25.6-51.2 57.6s19.2 57.6 51.2 57.6h76.8l12.8-19.2H601.6c-25.6 6.4-38.4-12.8-38.4-32 0-25.6 12.8-44.8 38.4-44.8zM198.4 563.2H115.2c-19.2 0-32-19.2-32-38.4s12.8-38.4 32-38.4h83.2c19.2 0 32 19.2 32 38.4 6.4 19.2-6.4 38.4-32 38.4z m0-102.4H115.2c-32 0-51.2 25.6-51.2 57.6s19.2 57.6 51.2 57.6h83.2c38.4 6.4 57.6-19.2 57.6-57.6 0-32-19.2-57.6-57.6-57.6z m665.6 19.2h83.2l12.8-19.2h-96c-32 0-51.2 25.6-51.2 57.6s19.2 57.6 51.2 57.6h76.8l19.2-12.8h-89.6c-19.2 0-32-12.8-32-32h102.4l6.4-19.2H832c6.4-19.2 19.2-32 32-32z m-505.6 51.2c19.2 0 32-12.8 32-38.4 0-6.4-6.4-19.2-12.8-25.6 0 0-12.8-6.4-19.2-6.4H262.4v121.6h19.2V480h76.8c6.4 0 12.8 6.4 12.8 19.2 0 6.4-6.4 12.8-12.8 12.8h-64l70.4 70.4h25.6l-44.8-51.2h12.8zM179.2 416c25.6-64 76.8-102.4 147.2-102.4h390.4c70.4 0 121.6 44.8 147.2 102.4H960c-32-115.2-121.6-198.4-243.2-198.4H326.4c-121.6 0-211.2 83.2-243.2 198.4h96z m678.4 192c-25.6 64-76.8 102.4-147.2 102.4h-384c-70.4 0-121.6-44.8-147.2-102.4H83.2c32 115.2 115.2 198.4 243.2 198.4h390.4c121.6 0 211.2-83.2 243.2-198.4h-102.4z m0 0" fill="#E72520" p-id="26617"></path></svg>