<?xml version="1.0" standalone="no"?><!DOCTYPE svg PUBLIC "-//W3C//DTD SVG 1.1//EN" "http://www.w3.org/Graphics/SVG/1.1/DTD/svg11.dtd"><svg t="1677295324131" class="icon" viewBox="0 0 1024 1024" version="1.1" xmlns="http://www.w3.org/2000/svg" p-id="20387" xmlns:xlink="http://www.w3.org/1999/xlink" width="200" height="200"><path d="M757.44 746.24c6.4-54.08 4.48-62.08 44.8-53.44l10.24 0.96c31.04 1.28 71.68-5.12 95.36-16 51.2-23.68 81.6-63.68 31.04-53.12-115.52 23.68-123.2-15.36-123.2-15.36 121.92-180.8 172.8-410.24 128.64-466.24C824.64-10.24 616.96 62.08 613.44 64l-0.96 0.32c-22.72-4.8-48.32-7.68-77.12-8-52.16-0.96-91.84 13.76-121.92 36.48 0 0-370.24-152.64-352.96 191.68 3.52 73.28 104.96 554.24 225.92 408.96 44.16-53.12 86.72-97.92 86.72-97.92 21.12 14.08 46.72 21.12 73.28 18.56l1.92-1.6c-0.64 6.72-0.32 13.12 0.96 20.8-31.04 34.88-22.08 40.96-84.16 53.76-63.04 13.12-25.92 36.16-1.92 42.24 29.44 7.36 96.96 17.6 142.72-46.4l-1.92 7.36c12.16 9.92 11.52 70.08 13.12 113.28 1.6 43.2 4.48 83.52 13.44 107.2 8.96 23.68 19.2 85.12 101.12 67.52 68.8-14.72 120.96-35.84 125.76-232" p-id="20388"></path><path d="M605.44 1024c-25.6 0-53.12-6.72-76.16-28.48-22.08-20.8-31.04-47.68-36.16-63.68-0.96-2.56-1.6-4.8-2.24-6.4-10.56-28.16-14.08-68.48-16-120.32-0.32-7.68-0.64-16-0.64-24.32 0-5.12-0.32-11.2-0.64-17.28-35.2 15.36-76.48 18.24-120.32 7.04-12.16-3.2-24.32-8.32-34.56-14.4-8-5.12-13.76-10.24-18.24-15.68-35.2 29.12-68.48 24.96-86.72 18.88-32.64-10.88-61.76-41.28-89.28-93.12-19.2-36.48-37.76-83.84-55.36-140.8-30.4-99.2-49.6-204.16-51.2-238.4-5.44-108.8 23.68-186.24 87.04-231.04C157.12 19.2 228.48 7.68 317.12 22.4c37.76 6.08 70.4 16 90.56 22.72C444.48 23.36 487.36 12.8 536 13.44c25.92 0.32 50.56 2.56 73.6 6.72 24.64-7.68 72-18.24 126.08-17.6 101.12 1.28 184.96 40.64 242.24 113.92 21.76 27.84 40.32 88.96 5.44 223.68-21.44 83.2-58.88 171.52-104.64 249.28 12.16-0.32 28.8-2.24 51.2-6.72 12.8-2.56 23.68-3.2 33.28-1.92 20.16 2.88 35.84 15.68 41.6 33.6 17.28 52.48-56.32 91.52-79.36 102.08-29.12 13.44-76.48 21.76-115.52 19.84h-1.92l-6.08-0.32c-0.32 1.92-0.32 3.52-0.64 5.44l-0.96 8c-2.56 99.84-16.96 163.52-46.72 205.44-31.36 44.48-74.56 56.96-112.64 65.28-10.56 2.24-23.04 3.84-35.52 3.84zM531.2 656.32c24.32 19.52 26.56 55.36 28.48 121.92 0.32 8 0.32 16 0.64 23.04 0.96 21.76 2.88 72.96 10.88 94.08 1.28 3.2 2.24 6.4 3.2 9.6 8.96 27.2 12.48 38.4 48.64 30.72 31.68-6.72 48-12.8 60.48-30.72 18.56-26.56 29.12-80.64 31.04-160.32l42.88 0.96-42.56-5.12c0.32-3.52 0.64-6.72 1.28-9.92 3.84-32 6.72-57.28 29.44-73.6 14.4-10.24 30.72-11.52 44.48-10.24-11.52-11.84-15.36-24-16.32-29.44l-3.52-17.6 9.92-15.04c53.12-78.72 96.96-175.68 120.32-265.92 26.24-101.12 14.72-144 10.24-150.08-95.36-121.92-261.12-72-279.36-66.24l-3.2 1.6-16 2.88-8.32-1.6c-20.8-4.48-44.16-6.72-68.8-7.04-38.72-0.64-69.76 8.32-95.36 27.84l-19.52 14.72-22.72-9.28c-44.48-18.24-174.72-54.72-242.88-6.4-37.76 27.52-55.04 80.32-51.2 157.44 1.28 26.56 19.52 126.72 49.28 223.36 40.96 132.48 77.44 169.28 87.68 172.16 1.28-0.64 5.76-2.88 13.12-11.52 44.48-53.76 87.04-98.24 88.64-100.16l24.96-26.24 30.08 19.84c10.24 6.72 21.76 10.88 33.28 11.84l71.36-60.8-10.24 105.6a29.12 29.12 0 0 0 0.64 9.92l3.2 20.16-13.44 15.04-0.32 0.32 33.28 15.36 16.32-21.12z" p-id="20389"></path><path d="M938.88 624.64c-115.52 23.68-123.2-15.36-123.2-15.36 121.92-180.8 172.8-410.24 128.96-466.24C824.64-10.24 616.96 62.08 613.76 64l-0.96 0.32c-22.72-4.8-48.32-7.68-77.12-8-52.16-0.96-91.84 13.76-121.92 36.48 0 0-370.24-152.64-352.96 191.68 3.52 73.28 104.96 554.24 225.92 408.96 44.16-53.12 86.72-97.92 86.72-97.92 21.12 14.08 46.72 21.12 73.28 18.56l1.92-1.6c-0.64 6.72-0.32 13.12 0.96 20.8-31.04 34.88-22.08 40.96-84.16 53.76-63.04 13.12-25.92 36.16-1.92 42.24 29.44 7.36 96.96 17.6 142.72-46.4l-1.92 7.36c12.16 9.92 20.8 63.68 19.2 112.32-1.28 48.64-2.24 82.24 7.36 108.48 9.6 26.24 19.2 85.12 101.12 67.52 68.48-14.72 103.68-52.48 108.8-115.84 3.52-45.12 11.52-38.4 11.84-78.72l6.4-19.2c7.36-61.12 1.28-80.64 43.2-71.68l10.24 0.96c31.04 1.28 71.68-5.12 95.36-16 51.2-24.32 81.6-64 31.04-53.44z" fill="#336791" p-id="20390"></path><path d="M609.28 997.44c-68.8 0-90.56-54.4-99.52-76.8-13.12-32.64-16-154.88-12.8-261.44a14.08 14.08 0 0 1 14.72-13.76c8 0.32 14.08 6.72 13.76 14.72-3.2 118.72 1.28 226.24 10.88 249.92 14.72 36.8 37.12 69.12 100.48 55.68 61.12-13.12 82.88-35.2 92.8-94.08 7.68-45.12 23.04-173.44 24.96-198.72 0.64-8 7.36-13.76 15.36-13.12 8 0.64 13.76 7.36 13.12 15.36-1.92 26.56-17.28 154.56-25.28 201.6-12.16 70.08-43.2 101.76-115.2 117.12-11.84 2.24-23.04 3.52-33.28 3.52zM239.68 733.76c-6.72 0-12.8-1.28-17.92-2.88-44.8-15.04-87.04-87.36-126.08-215.04C65.92 418.24 47.04 316.8 45.44 283.84c-4.8-97.92 20.48-167.36 75.2-206.08 46.08-32.64 110.4-42.56 191.36-29.44 59.2 9.6 104.64 27.84 106.56 28.8 7.36 2.88 10.88 11.2 7.68 18.56-2.88 7.36-11.2 10.88-18.56 7.68-2.24-0.96-175.04-70.08-270.4-2.56-46.4 32.96-67.52 94.08-63.36 181.76 1.28 27.84 18.88 126.4 48.96 224.64 34.56 113.6 73.92 184.96 107.84 196.48 5.12 1.6 21.12 7.04 43.84-20.48 43.84-52.8 84.48-95.04 84.8-95.68 5.44-5.76 14.4-5.76 20.16-0.32 5.76 5.44 5.76 14.4 0.32 20.16-0.32 0.32-40 41.92-83.52 94.08-20.48 24.96-40.32 32.32-56.64 32.32zM815.04 622.08c-2.88 0-5.44-0.64-8-2.56a14.4 14.4 0 0 1-3.84-19.84c122.88-182.4 166.08-402.56 129.28-449.6-46.4-59.2-111.68-90.24-194.56-92.16-61.12-1.28-110.08 14.4-118.4 16.96a14.4 14.4 0 0 1-20.16-6.72 14.4 14.4 0 0 1 5.76-18.24c5.44-3.2 61.76-21.44 128.96-20.8 92.48 0.96 168.64 36.48 220.8 103.04 12.8 16.64 19.2 43.52 18.56 80.32-0.64 33.6-6.72 74.56-18.24 118.72-24.96 96.32-71.68 200-128.64 284.48-2.56 4.48-7.04 6.4-11.52 6.4z" fill="#FFFFFF" p-id="20391"></path><path d="M821.12 706.88c-21.12 0-40.32-2.88-51.84-9.92-12.16-7.36-14.4-16.96-14.72-22.4-3.2-54.72 26.24-65.6 42.56-70.4-1.92-2.88-4.8-6.4-7.68-9.92-9.28-11.52-21.76-27.2-31.36-50.56-1.6-3.52-6.08-12.16-11.52-21.76-29.76-53.44-91.84-164.48-51.52-221.76 18.24-26.24 54.72-36.8 108.16-31.36-7.04-21.12-24.96-60.16-57.6-98.88-38.08-45.12-105.6-99.2-210.88-100.8-53.44-0.96-97.28 15.36-130.24 48.64-73.92 74.56-71.36 209.92-71.36 211.2 0.32 8-6.08 14.4-14.08 14.72a14.72 14.72 0 0 1-14.72-13.76c0-6.08-2.88-148.8 79.36-232 38.72-39.04 89.6-58.24 151.04-57.28 114.88 1.92 188.8 60.16 230.72 108.8 45.44 53.12 67.84 111.68 69.76 131.2 1.6 15.68-10.56 18.56-11.84 18.88h-5.12c-65.28-10.56-90.24 3.52-99.52 16.96-29.76 42.56 28.48 146.88 53.12 191.36 6.4 11.52 10.88 19.84 13.12 24.96 8 19.84 18.88 32.96 27.2 43.52 7.68 9.6 14.08 17.6 16.64 27.52 1.28 1.92 17.28 23.68 106.56 5.12 23.68-4.8 37.76-0.64 42.24 12.8 8.64 25.6-38.4 55.36-64.32 67.2-23.36 10.88-60.16 17.92-92.16 17.92zM783.36 672c3.52 2.88 18.24 7.36 47.36 6.08 26.24-1.28 54.08-7.04 70.4-14.72 19.2-8.96 32.64-18.88 40.64-26.24h-0.64c-58.88 12.16-100.48 10.56-123.52-4.8-1.6-0.96-2.88-1.92-4.16-2.88-1.92 0.64-3.84 1.28-6.08 1.92-13.12 3.52-25.6 7.04-24 40.64zM404.8 747.2c-14.4 0-29.76-1.92-45.44-5.76-4.48-1.28-44.48-11.84-43.84-37.12 0.64-23.36 33.6-30.08 46.08-32.64 43.84-8.96 46.72-12.8 60.48-30.08 4.16-5.12 8.96-11.52 16-19.2 22.72-25.6 44.48-16.64 53.76-12.8 14.4 6.08 26.56 20.48 31.36 37.76 4.48 15.68 2.24 30.72-6.08 42.56-27.2 37.76-66.24 57.28-112.32 57.28z m-57.92-41.6c4.16 2.88 11.2 6.08 19.2 8.32 38.08 9.6 91.2 10.24 127.68-40.96 4.16-6.08 2.88-13.76 1.92-17.92-2.56-8.64-8.64-16.64-15.04-19.2-7.68-3.2-12.16-5.12-21.44 5.44-6.4 7.04-10.88 12.8-14.72 17.92-17.6 22.08-25.6 29.76-77.12 40.32-10.88 2.24-16.96 4.48-20.48 6.08z m101.76-73.92z" fill="#FFFFFF" p-id="20392"></path><path d="M446.72 645.44c-7.04 0-13.12-5.12-14.08-12.16-0.32-1.92-0.64-3.84-0.64-5.76-33.6-0.96-65.92-15.36-90.56-41.28-31.36-32.64-45.76-78.08-39.36-124.48 7.04-49.92 4.48-94.08 2.88-117.76-0.32-6.72-0.64-11.52-0.64-14.72 0-4.48 0-16 37.76-34.88 13.12-6.72 40-18.56 68.8-21.44 48.32-5.12 80.32 16.64 89.92 60.8 25.6 118.08 1.92 170.56-15.04 208.64-3.2 7.04-6.08 13.76-8.64 20.16l-2.24 5.76c-8.96 24-16.64 45.12-14.4 60.48a14.4 14.4 0 0 1-11.84 16.32c-0.64 0.32-1.28 0.32-1.92 0.32z m-113.6-311.68c0 2.24 0.32 5.44 0.64 8.96 1.6 24.64 4.16 70.72-3.2 123.2-5.12 37.76 6.08 74.56 31.68 100.8 19.84 20.8 46.08 32.32 72.96 32.32 3.2-12.8 8-25.92 13.44-40.32l2.24-5.76c2.88-7.36 6.08-14.4 9.28-22.08 16.32-36.48 36.8-81.92 13.44-191.04-4.48-21.12-15.36-33.28-33.6-37.44-39.68-8.96-95.04 20.8-106.88 31.36z m-1.92 1.6z" fill="#FFFFFF" p-id="20393"></path><path d="M411.84 327.36c-0.64 4.8 8.64 17.28 20.48 18.88 12.16 1.6 22.4-8 23.04-12.8 0.64-4.8-8.64-9.92-20.48-11.52-12.16-1.6-22.4 0.96-23.04 5.44z" fill="#FFFFFF" p-id="20394"></path><path d="M434.88 351.36c-0.96 0-2.24 0-3.2-0.32-7.68-0.96-15.04-5.76-20.48-12.8-1.92-2.56-4.8-7.04-4.16-11.52 0.32-1.6 0.96-3.84 3.84-6.08 4.8-3.52 14.08-4.8 24.64-3.52 12.8 1.92 25.92 7.68 24.64 16.96-1.28 7.36-12.8 17.28-25.28 17.28z m-18.24-23.04c0.64 3.2 7.68 11.84 16.32 13.12 8.96 1.28 16.32-5.76 17.6-8.32-0.96-1.6-6.4-5.12-16.32-6.4-9.92-1.28-16.32 0.64-17.6 1.6z" fill="#FFFFFF" p-id="20395"></path><path d="M777.28 318.08c0.64 4.8-8.64 17.28-20.48 18.88-12.16 1.6-22.4-8-23.04-12.8-0.64-4.8 8.64-9.92 20.48-11.52 12.16-1.92 22.4 0.64 23.04 5.44z" fill="#FFFFFF" p-id="20396"></path><path d="M754.24 339.2c-11.84 0-21.76-9.6-22.72-15.04-0.96-7.04 10.56-12.48 22.72-14.08 11.84-1.6 24.64 0.32 25.6 7.36 0.32 3.2-1.92 8-6.08 12.48-2.88 2.88-8.64 8-16.32 8.96-1.28 0.32-2.24 0.32-3.2 0.32z m7.68-24.96c-2.24 0-4.48 0-7.04 0.64-12.48 1.6-18.88 6.72-18.56 8.96 0.32 3.2 9.6 12.16 20.16 10.56a25.6 25.6 0 0 0 13.76-7.68c3.52-3.84 5.12-7.36 4.8-8.64-0.32-1.28-4.8-3.84-13.12-3.84z" fill="#FFFFFF" p-id="20397"></path><path d="M794.88 587.52c-2.88 0-5.44-0.64-8-2.56a14.08 14.08 0 0 1-3.84-19.84c27.84-41.6 22.72-84.48 17.92-125.76-2.24-17.6-4.48-36.16-3.84-53.76 0.64-18.24 2.88-32.96 5.12-47.36 2.56-16.96 5.12-32.96 4.16-52.16-0.32-8 5.76-14.72 13.44-15.04 8-0.32 14.72 5.76 15.04 13.44 1.28 22.08-1.6 40.32-4.48 57.92-2.24 13.44-4.16 27.52-4.8 43.84-0.64 15.36 1.6 32 3.52 49.28 5.44 44.16 11.2 94.4-22.4 144.96-2.88 4.8-7.36 7.04-11.84 7.04z" fill="#FFFFFF" p-id="20398"></path></svg>