<?xml version="1.0" standalone="no"?><!DOCTYPE svg PUBLIC "-//W3C//DTD SVG 1.1//EN" "http://www.w3.org/Graphics/SVG/1.1/DTD/svg11.dtd"><svg t="1770985843554" class="icon" viewBox="0 0 1024 1024" version="1.1" xmlns="http://www.w3.org/2000/svg" p-id="12021" xmlns:xlink="http://www.w3.org/1999/xlink" width="200" height="200"><path d="M991.80000031 605.6c-0.40000031 9.16000031-12.52000031 19.39999969-37.40000062 32.4-51.19999969 26.68000031-316.63999969 135.84-373.11999938 165.28000031-56.52 29.44000031-87.88000031 29.16-132.52000031 7.8-44.64-21.31999969-327.04000031-135.43999969-377.92000031-159.72-25.39999969-12.16000031-38.35999969-22.39999969-38.79999938-32.08000031v97.03999969c0 9.67999969 13.36000031 19.96000031 38.79999938 32.12000062 50.88 24.31999969 333.31999969 138.40000031 377.92000031 159.72 44.64 21.36 76.00000031 21.64000031 132.52000031-7.84000031 56.47999969-29.44000031 321.88000031-138.55999969 373.11999938-165.28000031 26.04-13.56 37.60000031-24.12 37.60000031-33.67999969v-95.68000031l-0.19999969-0.07999969z" fill="#d81e06" p-id="12022"></path><path d="M991.76 447.39999969c-0.40000031 9.16000031-12.52000031 19.36000031-37.36000031 32.36000062-51.19999969 26.68000031-316.63999969 135.84-373.11999938 165.27999938-56.52 29.44000031-87.88000031 29.16-132.52000031 7.84000031-44.64-21.31999969-327.04000031-135.43999969-377.92000031-159.76000031-25.39999969-12.12-38.35999969-22.39999969-38.79999938-32.04v97.04000062c0 9.67999969 13.36000031 19.92 38.79999938 32.07999938 50.88 24.31999969 333.28000031 138.40000031 377.92000031 159.72 44.64 21.36 76.00000031 21.64000031 132.52000031-7.8 56.47999969-29.44000031 321.88000031-138.6 373.11999938-165.27999938 26.04-13.60000031 37.60000031-24.16000031 37.60000031-33.72v-95.68000031l-0.24-0.04000031z" fill="#d81e06" p-id="12023"></path><path d="M991.76 283.32000031c0.48-9.76000031-12.28000031-18.31999969-37.96000031-27.76000031-49.92-18.28000031-313.72000031-123.28000031-364.23999938-141.79999969-50.52-18.48-71.08000031-17.71999969-130.40000062 3.6C399.72000031 138.60000031 118.83999969 248.79999969 68.88000031 268.32000031c-25.00000031 9.84-37.2 18.91999969-36.80000062 28.59999938V393.99999969c0 9.67999969 13.36000031 19.92 38.80000031 32.08000031 50.88 24.31999969 333.28000031 138.43999969 377.92000031 159.76000031 44.64 21.31999969 76.00000031 21.6 132.51999938-7.84000031 56.47999969-29.44000031 321.88000031-138.6 373.12000031-165.28000031 26.04-13.60000031 37.60000031-24.16000031 37.60000031-33.72V283.32000031h-0.32000062zM375.8 375.2l222.43999969-34.15999969-67.2 98.52-155.19999938-64.36000031z m492-88.72000031l-131.56000031 52.00000031-14.28 5.59999969-131.47999969-51.99999938 145.68-57.6 131.59999969 51.99999938z m-386.23999969-95.31999938l-21.52000031-39.68000062 67.12000031 26.24000062 63.27999938-20.72000062-17.11999969 41.00000062 64.48000031 24.15999938-83.16 8.64-18.64000031 44.80000031-30.07999969-49.96000031-96-8.64 71.64-25.83999938z m-165.72 55.99999969c65.68000031 0 118.87999969 20.59999969 118.87999969 46.03999969s-53.20000031 46.08-118.87999969 46.08-118.92-20.68000031-118.92-46.08c0-25.44 53.23999969-46.08 118.92-46.08z" fill="#d81e06" p-id="12024"></path></svg>