<?xml version="1.0" standalone="no"?><!DOCTYPE svg PUBLIC "-//W3C//DTD SVG 1.1//EN" "http://www.w3.org/Graphics/SVG/1.1/DTD/svg11.dtd"><svg t="1677296352590" class="icon" viewBox="0 0 1024 1024" version="1.1" xmlns="http://www.w3.org/2000/svg" p-id="31377" xmlns:xlink="http://www.w3.org/1999/xlink" width="200" height="200"><path d="M849.237333 704.085333l-247.253333-203.562666c-4.992-4.138667-10.112-8.149333-14.933333-12.544-16-14.677333-18.944-30.976-7.253334-48.938667a27219.285333 27219.285333 0 0 1 131.968-201.216c12.885333-19.413333 30.208-23.210667 50.688-11.776 28.8 16.085333 57.344 32.725333 85.845334 49.408 28.330667 16.64 42.752 41.813333 42.837333 74.496 0.213333 114.432 0.128 228.864 0 343.296 0 18.688-4.608 36.010667-20.608 55.338667 2.346667-23.168-8.789333-34.218667-21.333333-44.501334zM172.245333 343.466667c81.664 66.901333 163.029333 134.101333 244.48 201.216 4.096 3.413333 8.234667 6.741333 12.16 10.325333 17.066667 15.530667 19.84 31.146667 7.381334 50.218667a31388.928 31388.928 0 0 1-130.901334 199.68c-13.525333 20.394667-30.293333 24.192-51.84 12.202666-27.306667-15.232-54.016-31.445333-81.322666-46.592-31.36-17.365333-47.232-44.202667-47.36-79.36-0.554667-112.64-0.426667-225.28 0-337.92 0.042667-18.688 3.541333-37.12 19.072-54.101333 1.450667 21.802667 14.549333 33.066667 28.330666 44.373333zM691.328 600.576c47.957333 39.168 95.786667 78.549333 143.488 118.016 26.538667 21.973333 25.216 42.581333-3.968 59.434667-91.946667 53.034667-184.064 105.813333-276.053333 158.890666-31.530667 18.218667-62.421333 17.92-93.781334-0.426666-41.728-24.490667-83.754667-48.426667-125.610666-72.661334-27.349333-15.786667-27.477333-27.776-0.384-43.306666 102.357333-58.709333 204.544-117.632 307.2-175.786667 21.845333-12.373333 38.4-25.898667 29.44-54.229333 10.325333-0.853333 14.506667 5.888 19.626666 10.069333z" fill="#337E8D" p-id="31378"></path><path d="M212.864 350.464c-11.818667-9.728-24.149333-18.944-35.413333-29.312-21.162667-19.626667-19.072-39.68 5.888-54.144 92.928-53.717333 186.026667-107.093333 279.04-160.64 30.848-17.749333 61.44-17.621333 92.288 0.298667 43.349333 25.173333 86.954667 49.92 130.218666 75.178666 22.784 13.312 22.442667 26.24-0.981333 39.68-102.784 59.093333-205.397333 118.4-308.650667 176.554667-24.32 13.738667-39.594667 29.397333-27.776 63.36l-134.613333-110.933333z" fill="#FABF00" p-id="31379"></path></svg>